<svg width="255" height="158" viewBox="0 0 255 158" fill="none" xmlns="http://www.w3.org/2000/svg">
<path d="M88.3233 48.689C97.4873 76.715 100.959 126.711 127.759 126.711C129.799 126.711 131.861 126.511 133.93 126.117C109.568 120.437 106.68 70.985 91.8153 45.376C90.6295 46.4575 89.4659 47.562 88.3233 48.689Z" fill="url(#paint0_linear_1102_3)"/>
<path d="M91.8154 45.376C106.681 70.985 109.568 120.437 133.93 126.117C135.844 125.766 137.762 125.234 139.684 124.563C117.817 113.85 111.773 65.828 94.8904 42.71C93.8483 43.5791 92.8231 44.4683 91.8154 45.377" fill="url(#paint1_linear_1102_3)"/>
<path d="M113.234 30.145C111.198 30.145 109.132 30.345 107.059 30.739C101.636 31.761 96.1272 34.096 90.5742 37.629C92.0912 39.126 93.5342 40.839 94.8922 42.709C100.54 38.022 106.151 34.559 111.742 32.477C113.783 31.7136 115.886 31.129 118.027 30.73C116.46 30.3358 114.85 30.1393 113.234 30.145Z" fill="#14559A"/>
<path d="M156.754 114.687C159.084 112.826 161.328 110.859 163.478 108.794C154.166 80.898 150.833 30.187 123.845 30.187C121.915 30.187 119.968 30.367 118.025 30.727C142.608 36.841 145.757 90.325 156.755 114.687" fill="url(#paint2_linear_1102_3)"/>
<path d="M118.026 30.728C116.459 30.3343 114.849 30.1381 113.233 30.144L123.846 30.183C121.916 30.183 119.969 30.364 118.026 30.728Z" fill="#3092C4"/>
<path d="M156.283 120.613C155.228 119.607 154.226 118.503 153.24 117.325C148.7 120.539 144.178 122.977 139.683 124.563C141.287 125.351 142.986 125.93 144.738 126.285C146.155 126.572 147.598 126.715 149.044 126.711C154.087 126.711 158.074 126.114 161.469 124.486C159.599 123.476 157.886 122.166 156.283 120.613Z" fill="#1969BC"/>
<path d="M111.74 32.481C133.758 43.997 135.672 96.149 153.241 117.325C154.437 116.48 155.607 115.601 156.751 114.687C145.753 90.325 142.608 36.837 118.03 30.727C115.887 31.1304 113.783 31.7172 111.74 32.481Z" fill="url(#paint3_linear_1102_3)"/>
<path d="M94.8896 42.71C111.772 65.828 117.817 113.849 139.684 124.563C144.179 122.977 148.702 120.539 153.241 117.325C135.672 96.149 133.758 43.997 111.74 32.481C106.15 34.559 100.538 38.022 94.8896 42.709" fill="url(#paint4_linear_1102_3)"/>
<path d="M77.5213 48.014C74.8753 53.997 72.1723 61.861 68.9043 72.126C75.4033 62.97 81.8813 55.08 88.3233 48.69C87.4363 45.962 86.4833 43.447 85.4563 41.205C82.6908 43.3304 80.0423 45.6037 77.5223 48.015" fill="url(#paint5_linear_1102_3)"/>
<path d="M87.802 39.479C87.0114 40.0417 86.23 40.6171 85.458 41.205C86.485 43.446 87.433 45.961 88.321 48.689C89.4654 47.5641 90.6295 46.4596 91.813 45.376C90.566 43.233 89.241 41.254 87.802 39.479Z" fill="#2B74B1"/>
<path d="M90.5728 37.63C89.6354 38.2258 88.7112 38.8419 87.8008 39.478C89.2408 41.253 90.5648 43.232 91.8168 45.379C92.8223 44.4668 93.8475 43.5766 94.8918 42.709C93.5348 40.84 92.0918 39.126 90.5738 37.629" fill="#125A9E"/>
<path d="M240.76 28.011C228.307 76.036 202.297 114.609 180.49 124.334H180.45C180.053 124.514 179.66 124.678 179.272 124.837C179.218 124.87 179.169 124.874 179.128 124.893C179.014 124.939 178.908 124.975 178.793 125.021C178.739 125.053 178.691 125.064 178.642 125.083C178.458 125.149 178.278 125.204 178.098 125.276C178.02 125.309 177.947 125.329 177.873 125.355C177.785 125.389 177.695 125.418 177.603 125.443C177.521 125.475 177.435 125.499 177.341 125.535C177.263 125.567 177.181 125.581 177.108 125.613C176.948 125.659 176.802 125.698 176.642 125.753C176.576 125.753 176.515 125.789 176.446 125.807C176.347 125.839 176.236 125.862 176.13 125.892C176.057 125.924 175.996 125.935 175.918 125.951C175.808 125.983 175.685 126.013 175.574 126.039L175.157 126.131C176.156 126.499 177.213 126.685 178.277 126.679C198.955 126.679 219.803 89.623 254.3 28H240.755L240.76 28.011Z" fill="url(#paint6_linear_1102_3)"/>
<path d="M64.414 32.094C64.427 32.094 64.444 32.062 64.451 32.062C64.468 32.062 64.493 32.062 64.501 32.03H64.527C64.641 31.99 64.747 31.945 64.862 31.902C64.892 31.902 64.907 31.902 64.928 31.87C64.957 31.87 64.985 31.837 65.014 31.833C65.136 31.794 65.259 31.748 65.374 31.706H65.393C65.667 31.624 65.921 31.522 66.186 31.427C66.224 31.427 66.26 31.395 66.305 31.395C66.415 31.359 66.53 31.32 66.645 31.294C66.698 31.261 66.751 31.261 66.8 31.244C66.918 31.209 67.033 31.169 67.143 31.143C67.193 31.143 67.237 31.11 67.274 31.107C67.654 31.002 68.031 30.904 68.411 30.813C68.464 30.813 68.509 30.78 68.566 30.777C68.676 30.745 68.779 30.727 68.898 30.711C68.947 30.679 69.004 30.679 69.061 30.662C69.171 30.63 69.278 30.626 69.397 30.6H69.474C69.704 30.553 69.937 30.515 70.166 30.472H70.305C70.415 30.44 70.513 30.436 70.624 30.416C70.684 30.416 70.746 30.384 70.804 30.384C70.906 30.384 71.008 30.351 71.11 30.338C71.164 30.338 71.216 30.338 71.278 30.305C71.519 30.273 71.768 30.26 72.022 30.24C71.2909 30.1665 70.5567 30.1281 69.822 30.125C46.536 30.125 14.452 73.332 0 129.286H2.785C7.41 121.038 11.565 113.235 15.365 105.91C25.486 66.277 46.102 39.249 64.415 32.088" fill="url(#paint7_linear_1102_3)"/>
<path d="M77.5225 48.014C80.0421 45.6026 82.6903 43.3293 85.4555 41.204C84.8931 39.953 84.2625 38.7338 83.5665 37.552C81.4365 40.137 79.4895 43.548 77.5225 48.014Z" fill="#0D82CA"/>
<path d="M79.4346 32.422C80.9546 33.698 82.3177 35.452 83.5647 37.555C83.9577 37.072 84.3546 36.626 84.7666 36.209C83.0366 34.594 81.1686 33.269 79.1396 32.271C79.2216 32.316 79.3036 32.353 79.3886 32.389C79.3886 32.389 79.4206 32.422 79.4346 32.422Z" fill="#0D82CA"/>
<path d="M15.3633 105.915C36.5973 64.998 46.6573 39.102 64.4143 32.092C46.1053 39.258 25.4853 66.286 15.3643 105.915" fill="url(#paint8_linear_1102_3)"/>
<path d="M84.7664 36.208C84.3534 36.629 83.9615 37.071 83.5645 37.554C84.2609 38.7359 84.8928 39.9547 85.4575 41.205C86.2294 40.6174 87.0109 40.0423 87.8015 39.48C86.8675 38.3198 85.8533 37.2264 84.7664 36.208Z" fill="#127BCA"/>
<path d="M25.0028 129.107C24.8718 129.14 24.7408 129.14 24.6178 129.153H24.5448C24.4338 129.153 24.3188 129.186 24.2168 129.186H24.1638C23.8978 129.218 23.6358 129.218 23.3828 129.238H23.3008C44.7918 128.637 54.6148 117.877 59.4908 102.271C63.1958 90.44 66.2378 80.473 68.9048 72.11C59.9028 84.78 50.8608 99.883 41.7698 116.802C37.3858 124.956 30.7198 128.362 25.0018 129.092" fill="url(#paint9_linear_1102_3)"/>
<path d="M25.003 129.099C30.72 128.371 37.386 124.969 41.77 116.809C50.861 99.895 59.908 84.788 68.9 72.118C72.172 61.848 74.8719 53.988 77.5219 48.005C59.597 65.067 41.602 93.437 25.002 129.091" fill="url(#paint10_linear_1102_3)"/>
<path d="M15.3632 105.916C11.5632 113.24 7.4082 121.043 2.7832 129.292H10.8842C11.9073 121.419 13.403 113.614 15.3632 105.92" fill="#05A1E6"/>
<path d="M71.2773 30.326C71.2113 30.326 71.1622 30.358 71.1052 30.358C71.0072 30.391 70.9052 30.391 70.8022 30.401C70.7422 30.401 70.6843 30.401 70.6223 30.434C70.5123 30.466 70.4103 30.469 70.3033 30.49C70.2543 30.49 70.2053 30.49 70.1643 30.522C69.9313 30.561 69.7023 30.604 69.4743 30.643H69.3962C69.2772 30.676 69.1702 30.693 69.0602 30.709C69.0033 30.741 68.9463 30.741 68.8923 30.754C68.7822 30.787 68.6722 30.8 68.5652 30.82C68.5082 30.852 68.4632 30.852 68.4102 30.855C68.0302 30.947 67.6532 31.045 67.2732 31.15C67.2332 31.15 67.1912 31.182 67.1423 31.189C67.0283 31.221 66.9172 31.254 66.7982 31.29C66.7492 31.323 66.6922 31.323 66.6432 31.336C66.5293 31.3676 66.4159 31.4012 66.3033 31.437C66.2593 31.437 66.2223 31.469 66.1813 31.469C65.9193 31.567 65.6613 31.666 65.3913 31.747C65.2773 31.783 65.1543 31.829 65.0312 31.872C64.9823 31.904 64.9382 31.912 64.8812 31.934C64.7662 31.97 64.6512 32.016 64.5452 32.058C64.5052 32.091 64.4632 32.094 64.4352 32.111C46.6782 39.121 36.6172 65.016 15.3842 105.933C13.4223 113.627 11.9269 121.432 10.9062 129.306H12.0433C15.2452 129.306 16.1493 129.273 19.8333 129.273H23.4042C23.6572 129.241 23.9192 129.241 24.1842 129.22H24.2342C24.3442 129.22 24.4543 129.188 24.5613 129.188H24.6392C24.7572 129.188 24.8923 129.156 25.0233 129.142C41.6233 93.488 59.6172 65.118 77.5433 48.056C79.5133 43.591 81.4563 40.18 83.5833 37.599C82.3392 35.497 80.9773 33.739 79.4563 32.463C79.4563 32.463 79.4152 32.463 79.4122 32.43C79.3252 32.395 79.2442 32.352 79.1582 32.31C79.0723 32.263 78.9982 32.227 78.9082 32.182C78.8247 32.1468 78.7429 32.1074 78.6632 32.064C78.5572 32.031 78.4713 31.985 78.3773 31.943C78.2992 31.91 78.2303 31.877 78.1523 31.845C77.9939 31.7835 77.8371 31.7179 77.6823 31.648C77.6123 31.616 77.5472 31.598 77.4822 31.573C77.3633 31.5297 77.2456 31.483 77.1292 31.433C77.0723 31.4 77.0072 31.393 76.9412 31.37C76.7742 31.314 76.6103 31.255 76.4553 31.203H76.4143C76.2262 31.141 76.0423 31.095 75.8503 31.043C75.8053 31.01 75.7682 31.01 75.7233 31.003C75.5553 30.958 75.4082 30.913 75.2493 30.87C75.2093 30.87 75.1712 30.837 75.1393 30.837C74.7481 30.7368 74.3536 30.6508 73.9563 30.579C73.9163 30.579 73.8753 30.546 73.8343 30.546C73.665 30.5124 73.4945 30.485 73.3232 30.464C73.2812 30.432 73.2573 30.432 73.2213 30.432C73.0199 30.4012 72.8178 30.3748 72.6152 30.353H72.5092C72.3452 30.321 72.1943 30.318 72.0433 30.301C71.7853 30.333 71.5402 30.347 71.2982 30.37" fill="url(#paint11_linear_1102_3)"/>
<path d="M192.117 54.598C188.032 67.685 184.723 78.481 181.844 87.364C193.054 71.938 204.096 52.532 214.611 30.138C202.346 33.99 195.802 42.808 192.117 54.598Z" fill="url(#paint12_linear_1102_3)"/>
<path d="M182.2 123.516C181.628 123.808 181.055 124.085 180.49 124.334C202.297 114.609 228.307 76.036 240.76 28.011H238.236C209.626 79.119 200.424 113.333 182.2 123.516Z" fill="url(#paint13_linear_1102_3)"/>
<path d="M167.961 119.223C172.705 113.432 176.57 103.588 181.846 87.364C175.76 95.724 169.634 102.909 163.503 108.77C163.503 108.802 163.503 108.802 163.471 108.822C164.808 112.83 166.276 116.367 167.949 119.222" fill="#079AE1"/>
<path d="M167.961 119.223C166.346 121.193 164.636 122.695 162.734 123.807C162.317 124.049 161.896 124.277 161.467 124.487C163.53 125.604 165.789 126.316 168.12 126.584C168.48 126.62 168.836 126.653 169.208 126.679H169.274C169.441 126.679 169.617 126.679 169.797 126.711H171.572C171.637 126.711 171.705 126.711 171.771 126.679C171.898 126.679 172.032 126.679 172.163 126.646H172.357C172.491 126.646 172.638 126.614 172.782 126.6H172.814C172.857 126.6 172.903 126.568 172.945 126.568C173.095 126.535 173.253 126.522 173.399 126.499H173.534C173.7 126.467 173.873 126.446 174.044 126.414H174.127C174.47 126.348 174.805 126.284 175.145 126.198C172.331 125.168 169.975 122.738 167.947 119.278" fill="#1969BC"/>
<path d="M127.759 126.711C129.8 126.711 131.861 126.511 133.931 126.114C135.845 125.767 137.763 125.234 139.685 124.564C141.288 125.351 142.985 125.93 144.735 126.286C146.154 126.573 147.598 126.715 149.046 126.711H127.759Z" fill="#1E5CB3"/>
<path d="M149.046 126.711C154.085 126.711 158.076 126.114 161.466 124.486C163.53 125.604 165.789 126.317 168.12 126.585C168.48 126.62 168.836 126.653 169.208 126.679H169.274C169.441 126.679 169.617 126.679 169.797 126.712H170.409H149.032L149.046 126.711Z" fill="#1E5CB3"/>
<path d="M170.421 126.711H171.587C171.656 126.711 171.721 126.711 171.787 126.679C171.914 126.679 172.048 126.679 172.184 126.646H172.377C172.511 126.646 172.658 126.614 172.798 126.601H172.834C172.877 126.601 172.919 126.569 172.962 126.569C173.112 126.536 173.269 126.523 173.415 126.499C173.465 126.499 173.504 126.499 173.556 126.467C173.723 126.435 173.896 126.418 174.068 126.386H174.15C174.493 126.32 174.828 126.255 175.167 126.17C176.166 126.538 177.222 126.724 178.287 126.718L170.427 126.75L170.421 126.711Z" fill="#1D60B5"/>
<path d="M163.484 108.823V108.79C161.334 110.855 159.09 112.822 156.761 114.683C155.615 115.595 154.444 116.475 153.248 117.321C154.233 118.499 155.235 119.603 156.291 120.61C157.894 122.163 159.607 123.472 161.476 124.482C161.902 124.272 162.326 124.044 162.74 123.803C164.645 122.691 166.355 121.19 167.97 119.219C166.298 116.364 164.83 112.827 163.492 108.819" fill="#175FAB"/>
<path d="M230.245 28.011H217.544C216.858 28.044 216.191 28.067 215.533 28.109C215.222 28.776 214.903 29.443 214.596 30.114C204.082 52.508 193.04 71.914 181.83 87.34C176.558 103.563 172.69 113.407 167.946 119.198C169.974 122.658 172.334 125.091 175.139 126.122C175.221 126.089 175.287 126.089 175.36 126.072H175.406C175.455 126.072 175.508 126.04 175.561 126.04C175.675 126.007 175.798 125.987 175.913 125.952C175.986 125.919 176.047 125.916 176.121 125.892C176.228 125.86 176.338 125.837 176.436 125.811C176.502 125.778 176.567 125.768 176.632 125.755C176.796 125.702 176.943 125.663 177.099 125.614C177.172 125.582 177.25 125.554 177.332 125.535C177.422 125.503 177.512 125.48 177.594 125.441C177.688 125.408 177.782 125.391 177.864 125.356C177.937 125.323 178.014 125.303 178.084 125.274C178.268 125.208 178.448 125.153 178.632 125.081C178.682 125.081 178.731 125.035 178.784 125.025C178.894 124.979 179.009 124.943 179.119 124.894C179.159 124.861 179.209 124.858 179.262 124.841C179.647 124.681 180.043 124.517 180.44 124.338H180.481C181.058 124.081 181.626 123.809 182.187 123.52C200.414 113.337 209.617 79.123 238.227 28.015H230.236L230.246 28.011H230.245Z" fill="url(#paint14_linear_1102_3)"/>
<path d="M72.0225 30.257C72.0675 30.257 72.1085 30.257 72.1525 30.289C72.2635 30.289 72.3745 30.289 72.4845 30.325H72.5945C72.7955 30.357 72.9955 30.375 73.2005 30.404C73.2375 30.404 73.2705 30.404 73.3025 30.436C73.4705 30.468 73.6425 30.496 73.8135 30.521C73.8505 30.521 73.8995 30.554 73.9405 30.554C74.3335 30.632 74.7345 30.714 75.1185 30.815C75.1545 30.815 75.1925 30.848 75.2245 30.848C75.3885 30.887 75.5355 30.936 75.6995 30.982C75.7495 30.982 75.7845 31.014 75.8295 31.022C76.0225 31.071 76.2025 31.12 76.3895 31.182C76.3985 31.182 76.4095 31.182 76.4315 31.214C76.5915 31.263 76.7545 31.325 76.9215 31.381C76.9885 31.413 77.0495 31.427 77.1105 31.443C77.2255 31.493 77.3525 31.541 77.4625 31.587C77.5275 31.587 77.5925 31.633 77.6625 31.657C77.8135 31.725 77.9725 31.787 78.1285 31.852C78.2105 31.885 78.2795 31.922 78.3585 31.951C78.4485 31.997 78.5415 32.039 78.6395 32.071C78.7215 32.111 78.8115 32.153 78.8895 32.189C78.9755 32.236 79.0565 32.271 79.1395 32.317C81.1675 33.315 83.0365 34.644 84.7665 36.256C85.3859 35.6037 86.0528 34.998 86.7615 34.444C82.9785 31.76 78.6935 30.23 73.7485 30.23C73.1755 30.23 72.6035 30.263 72.0225 30.306" fill="#7DCBEC"/>
<path d="M84.7656 36.208C85.8525 37.2265 86.8666 38.3198 87.8006 39.48C88.71 38.8417 89.6343 38.2249 90.5726 37.63C89.3956 36.4447 88.1193 35.3625 86.7576 34.395C86.049 34.948 85.3831 35.5537 84.7656 36.207" fill="#5EC5ED"/>
<path d="M72.0213 30.256C72.6013 30.207 73.1743 30.186 73.7473 30.186C78.6913 30.186 82.9773 31.716 86.7603 34.396C90.7523 31.246 95.5773 30.146 102.28 30.146H69.8203C70.5703 30.146 71.3013 30.191 72.0213 30.256Z" fill="url(#paint15_linear_1102_3)"/>
<path d="M102.28 30.146C95.5768 30.146 90.7518 31.246 86.7598 34.396C88.1197 35.3641 89.3949 36.446 90.5718 37.63C96.1288 34.097 101.634 31.757 107.062 30.735C109.096 30.3482 111.161 30.151 113.232 30.146H102.28Z" fill="url(#paint16_linear_1102_3)"/>
<path d="M181.844 87.372C184.727 78.482 188.028 67.689 192.121 54.598C195.811 42.803 202.341 33.986 214.606 30.138C214.93 29.479 215.236 28.8 215.551 28.134C195.557 29.332 186.212 39.503 181.509 54.565C173.285 80.861 168.303 97.907 163.506 108.769C169.633 102.913 175.759 95.723 181.844 87.372Z" fill="url(#paint17_linear_1102_3)"/>
<path d="M211.178 119.706H208.912V126.749H207.988V119.706H205.713V118.868H211.177L211.178 119.706ZM220.455 126.747H219.535V121.455C219.535 121.038 219.567 120.527 219.61 119.925C219.515 120.285 219.437 120.535 219.365 120.695L216.682 126.747H216.232L213.542 120.74C213.462 120.573 213.384 120.302 213.299 119.926H213.267C213.299 120.243 213.31 120.756 213.31 121.468V126.748H212.426V118.867H213.645L216.062 124.367C216.245 124.78 216.36 125.099 216.418 125.312H216.453C216.613 124.878 216.745 124.555 216.833 124.342L219.3 118.867H220.461V126.747H220.455Z" fill="black"/>
<defs>
<linearGradient id="paint0_linear_1102_3" x1="2368.59" y1="-1541.96" x2="2368.59" y2="10588.4" gradientUnits="userSpaceOnUse">
<stop stop-color="#0994DC"/>
<stop offset="0.35001" stop-color="#66CEF5"/>
<stop offset="0.84616" stop-color="#127BCA"/>
<stop offset="1" stop-color="#127BCA"/>
</linearGradient>
<linearGradient id="paint1_linear_1102_3" x1="2485.31" y1="-1585.06" x2="2485.31" y2="10854.3" gradientUnits="userSpaceOnUse">
<stop stop-color="#0E76BC"/>
<stop offset="0.36" stop-color="#36AEE8"/>
<stop offset="0.84616" stop-color="#00ADEF"/>
<stop offset="1" stop-color="#00ADEF"/>
</linearGradient>
<linearGradient id="paint2_linear_1102_3" x1="2390.63" y1="9403.1" x2="2390.63" y2="-494.896" gradientUnits="userSpaceOnUse">
<stop stop-color="#1C63B7"/>
<stop offset="0.5" stop-color="#33BDF2"/>
<stop offset="1" stop-color="#33BDF2" stop-opacity="0.42"/>
</linearGradient>
<linearGradient id="paint3_linear_1102_3" x1="2362.33" y1="-1659.23" x2="2362.33" y2="11256.2" gradientUnits="userSpaceOnUse">
<stop stop-color="#166AB8"/>
<stop offset="0.39999" stop-color="#36AEE8"/>
<stop offset="0.84616" stop-color="#0798DD"/>
<stop offset="1" stop-color="#0798DD"/>
</linearGradient>
<linearGradient id="paint4_linear_1102_3" x1="3012.38" y1="-1765.05" x2="3012.38" y2="11968.8" gradientUnits="userSpaceOnUse">
<stop stop-color="#124379"/>
<stop offset="0.39" stop-color="#1487CB"/>
<stop offset="0.78023" stop-color="#165197"/>
<stop offset="1" stop-color="#165197"/>
</linearGradient>
<linearGradient id="paint5_linear_1102_3" x1="68.9043" y1="1587.29" x2="88.3233" y2="1587.29" gradientUnits="userSpaceOnUse">
<stop stop-color="#33BDF2" stop-opacity="0.698"/>
<stop offset="1" stop-color="#1DACD8"/>
</linearGradient>
<linearGradient id="paint6_linear_1102_3" x1="4133.1" y1="9371.53" x2="4133.1" y2="-270.504" gradientUnits="userSpaceOnUse">
<stop stop-color="#136AB4"/>
<stop offset="0.6" stop-color="#59CAF5" stop-opacity="0.549"/>
<stop offset="1" stop-color="#59CAF5" stop-opacity="0.235"/>
</linearGradient>
<linearGradient id="paint7_linear_1102_3" x1="-0.072022" y1="4988.18" x2="7202.13" y2="4988.18" gradientUnits="userSpaceOnUse">
<stop stop-color="#05A1E6" stop-opacity="0.247"/>
<stop offset="1" stop-color="#05A1E6"/>
</linearGradient>
<linearGradient id="paint8_linear_1102_3" x1="2467.82" y1="9209.32" x2="2467.82" y2="-663.395" gradientUnits="userSpaceOnUse">
<stop stop-color="#318ED5"/>
<stop offset="1" stop-color="#38A7E4"/>
</linearGradient>
<linearGradient id="paint9_linear_1102_3" x1="2303.46" y1="5282.18" x2="2303.46" y2="-4314.46" gradientUnits="userSpaceOnUse">
<stop stop-color="#05A1E6"/>
<stop offset="1" stop-color="#05A1E6" stop-opacity="0.549"/>
</linearGradient>
<linearGradient id="paint10_linear_1102_3" x1="2651" y1="8158.22" x2="2651" y2="48.8161" gradientUnits="userSpaceOnUse">
<stop stop-color="#1959A6"/>
<stop offset="0.5" stop-color="#05A1E6"/>
<stop offset="0.91759" stop-color="#7EC5EA"/>
<stop offset="1" stop-color="#7EC5EA"/>
</linearGradient>
<linearGradient id="paint11_linear_1102_3" x1="4357.28" y1="9393.01" x2="1608.41" y2="992.23" gradientUnits="userSpaceOnUse">
<stop stop-color="#165096"/>
<stop offset="1" stop-color="#0D82CA"/>
</linearGradient>
<linearGradient id="paint12_linear_1102_3" x1="1820.03" y1="4436.43" x2="1820.03" y2="-158.65" gradientUnits="userSpaceOnUse">
<stop stop-color="#05A1E6"/>
<stop offset="0.87363" stop-color="#0495D6"/>
<stop offset="1" stop-color="#0495D6"/>
</linearGradient>
<linearGradient id="paint13_linear_1102_3" x1="4113.89" y1="-372.789" x2="-168.64" y2="9135.94" gradientUnits="userSpaceOnUse">
<stop stop-color="#38A7E4" stop-opacity="0.329"/>
<stop offset="0.96153" stop-color="#0E88D3"/>
<stop offset="1" stop-color="#0E88D3"/>
</linearGradient>
<linearGradient id="paint14_linear_1102_3" x1="3683.19" y1="-1.02987" x2="3683.19" y2="10023.8" gradientUnits="userSpaceOnUse">
<stop stop-color="#168CD4"/>
<stop offset="0.5" stop-color="#1C87CC"/>
<stop offset="1" stop-color="#154B8D"/>
</linearGradient>
<linearGradient id="paint15_linear_1102_3" x1="611.058" y1="-839.255" x2="654.513" y2="212.325" gradientUnits="userSpaceOnUse">
<stop stop-color="#97D6EE"/>
<stop offset="0.70329" stop-color="#55C1EA"/>
<stop offset="1" stop-color="#55C1EA"/>
</linearGradient>
<linearGradient id="paint16_linear_1102_3" x1="269.152" y1="-9.5192" x2="465.505" y2="-1123.21" gradientUnits="userSpaceOnUse">
<stop stop-color="#7ACCEC"/>
<stop offset="1" stop-color="#3FB7ED"/>
</linearGradient>
<linearGradient id="paint17_linear_1102_3" x1="2765.6" y1="541.214" x2="2765.6" y2="10346.3" gradientUnits="userSpaceOnUse">
<stop stop-color="#1DA7E7"/>
<stop offset="1" stop-color="#37ABE7" stop-opacity="0"/>
</linearGradient>
</defs>
</svg>
