<svg width="51" height="51" viewBox="0 0 51 51" fill="none" xmlns="http://www.w3.org/2000/svg">
<g clip-path="url(#clip0_6516_2461)">
<path d="M26.3834 43.6139L21.002 38.2311C22.1627 37.0703 22.8147 35.496 22.8146 33.8545C22.8146 32.2131 22.1624 30.6388 21.0017 29.4782C19.8409 28.3175 18.2666 27.6655 16.6251 27.6656C14.9837 27.6657 13.4094 28.3178 12.2488 29.4785L11.5894 28.8184L24.7461 15.6617C24.9754 15.4323 25.2478 15.2503 25.5475 15.1261C25.8472 15.0019 26.1685 14.938 26.4929 14.938C26.8174 14.938 27.1386 15.0019 27.4384 15.1261C27.7381 15.2503 28.0104 15.4323 28.2398 15.6617L39.5408 26.9627C39.7702 27.1921 39.9523 27.4644 40.0764 27.7642C40.2006 28.0639 40.2645 28.3851 40.2645 28.7096C40.2645 29.034 40.2006 29.3553 40.0764 29.655C39.9523 29.9547 39.7702 30.2271 39.5408 30.4565L26.3834 43.6131V43.6139Z" fill="white"/>
<path d="M17.9197 34.9484C19.9611 32.8446 19.5991 30.3331 19.5991 30.3331C23.8967 33.4598 20.281 37.309 20.281 37.309L17.9197 34.9484ZM8.95972 25.8107L26.5097 8.25999C26.5097 8.25999 28.1195 6.4072 30.002 8.25999C31.8846 10.1128 41.591 19.8497 41.591 19.8497C41.591 19.8497 42.6988 21.083 41.3154 22.2125L39.028 24.4991L28.8515 14.3218C28.8515 14.3218 26.5561 12.4291 24.3878 14.3218C22.2194 16.2145 13.7012 25.0084 13.7012 25.0084C13.7012 25.0084 11.6301 24.893 9.84259 26.7436L8.95972 25.8107Z" fill="white"/>
</g>
<defs>
<clipPath id="clip0_6516_2461">
<rect width="33.0513" height="36.1773" fill="white" transform="translate(8.95972 7.43652)"/>
</clipPath>
</defs>
</svg>
