<svg width="158" height="158" viewBox="0 0 158 158" fill="none" xmlns="http://www.w3.org/2000/svg">
<g clip-path="url(#clip0_1056_46)">
<path fill-rule="evenodd" clip-rule="evenodd" d="M154.269 35.8309V70.4929C154.256 70.924 154.139 71.3455 153.929 71.7213C153.719 72.097 153.421 72.4159 153.062 72.6507L124.842 88.7145V121.253C124.714 122.068 124.283 122.803 123.635 123.308L64.679 157.559C64.679 157.559 64.356 157.559 64.356 157.867H62.537C62.537 157.867 62.214 157.867 62.214 157.559L3.207 123.308C2.84663 123.087 2.54722 122.778 2.3363 122.41C2.12539 122.042 2.00974 121.626 2 121.202V18.4485C2 18.4485 2 18.1231 2.306 18.1231L2.629 17.8148C2.629 17.8148 2.629 17.4895 2.935 17.4895C2.935 17.4895 3.258 17.4895 3.258 17.1812L3.564 16.8729L32.685 0.244066C33.469 -0.0813554 34.349 -0.0813554 35.133 0.244066L64.628 17.2497C64.7092 17.2497 64.787 17.2822 64.8444 17.34C64.9018 17.3978 64.934 17.4762 64.934 17.558C65.0197 17.558 65.1018 17.5922 65.1624 17.6533C65.223 17.7143 65.257 17.797 65.257 17.8833C65.257 17.9651 65.2892 18.0435 65.3466 18.1013C65.404 18.1591 65.4818 18.1916 65.563 18.1916L65.869 18.517C65.8689 18.559 65.8774 18.6005 65.8938 18.639C65.9102 18.6776 65.9343 18.7124 65.9646 18.7412C65.9948 18.7701 66.0306 18.7924 66.0697 18.8069C66.1088 18.8213 66.1504 18.8276 66.192 18.8252V83.4912L90.757 69.277V35.5226C90.757 35.4409 90.7892 35.3625 90.8466 35.3047C90.904 35.2468 90.9818 35.2144 91.063 35.2144L91.386 34.889C91.386 34.8072 91.4182 34.7288 91.4756 34.671C91.533 34.6132 91.6108 34.5807 91.692 34.5807C91.7409 34.5942 91.7922 34.5959 91.8418 34.5857C91.8914 34.5755 91.938 34.5536 91.9777 34.522C92.0174 34.4903 92.0492 34.4497 92.0704 34.4034C92.0917 34.357 92.1018 34.3063 92.1 34.2553L92.406 33.9471L121.799 16.9414C122.589 16.6169 123.474 16.6169 124.264 16.9414L153.742 33.9471C153.742 33.9471 154.065 33.9471 154.065 34.2553C154.107 34.2553 154.148 34.2638 154.186 34.2803C154.224 34.2969 154.259 34.3211 154.288 34.3516C154.316 34.3821 154.338 34.4181 154.353 34.4575C154.367 34.4969 154.373 34.5388 154.371 34.5807C154.371 34.6227 154.379 34.6642 154.396 34.7028C154.412 34.7413 154.436 34.7761 154.467 34.805C154.497 34.8338 154.533 34.8562 154.572 34.8706C154.611 34.8851 154.652 34.8913 154.694 34.889L155 35.2144C154.269 35.2144 154.269 35.5226 154.269 35.8309ZM149.662 68.9003V40.7802L139.207 46.6885L124.791 55.0628V83.2343L149.662 68.9003ZM119.878 119.986V91.8142L105.7 99.8632L65.818 122.726V151.154L119.878 119.986ZM6.862 23.7745V119.986L60.905 151.205V122.777L32.685 106.713C32.685 106.713 32.362 106.713 32.362 106.405C32.3203 106.405 32.2791 106.397 32.2408 106.38C32.2026 106.364 32.168 106.339 32.1394 106.309C32.1107 106.278 32.0886 106.242 32.0742 106.203C32.0599 106.164 32.0537 106.122 32.056 106.08C32.056 105.998 32.0238 105.92 31.9664 105.862C31.909 105.804 31.8312 105.771 31.75 105.771L31.427 105.446V104.812V104.196V37.9887L17.3 29.9397L6.845 23.7745H6.862ZM33.892 5.14196L9.31 19.4075L33.892 33.6217L58.457 19.4075L33.892 5.14196ZM46.795 94.1946L60.905 85.8374V23.7745L50.45 29.6828L36.34 38.0572V100.24L46.795 94.2803V94.1946ZM122.326 22.2675L97.761 36.4817L122.326 50.6958L146.891 36.4817L122.326 22.2675ZM119.878 55.0115L105.7 46.6371L95.245 40.7288V68.9003L109.355 77.2746L119.81 83.1829V55.0115H119.878ZM63.37 118.376L99.274 97.6197L117.413 87.0876L92.848 72.8734L64.628 89.5708L38.856 104.47L63.37 118.41V118.376Z" fill="#FF2D20"/>
</g>
<defs>
<clipPath id="clip0_1056_46">
<rect width="158" height="158" fill="white"/>
</clipPath>
</defs>
</svg>
