<svg width="158" height="158" viewBox="0 0 158 158" fill="none" xmlns="http://www.w3.org/2000/svg">
<path d="M93 78.9997C93 71.2685 86.7324 65 79 65C71.2686 65 65 71.2685 65 78.9997C65 86.7321 71.2686 93 79 93C86.7324 93 93 86.7321 93 78.9997Z" fill="#53C1DE"/>
<path fill-rule="evenodd" clip-rule="evenodd" d="M124.822 53.6501C127.801 41.9912 131.547 20.3708 118.344 13.0408C105.203 5.74281 88.1029 19.7272 79.0732 28.1212C70.0698 19.8108 52.4892 5.88624 39.2979 13.2395C26.1622 20.562 30.213 41.8239 33.2585 53.556C21.0051 56.9073 0 64.1258 0 78.8739C0 93.5802 20.9832 101.434 33.1641 104.782C30.1073 116.579 26.2594 137.537 39.4119 144.843C52.6524 152.195 70.1783 138.602 79.2918 130.116C88.3794 138.56 105.315 152.242 118.459 144.915C131.644 137.565 128.21 116.235 125.164 104.435C136.972 101.079 158 93.3966 158 78.8739C158 64.2675 136.882 56.9905 124.822 53.6501ZM123.325 98.1812C121.326 92.0853 118.626 85.6028 115.325 78.9064C118.476 72.3679 121.071 65.9691 123.015 59.9124C131.856 62.3808 151.251 68.0222 151.251 78.8739C151.251 89.8277 132.639 95.5224 123.325 98.1812ZM115.077 139.29C105.27 144.756 90.7031 131.672 83.9917 125.454C88.4442 120.765 92.8935 115.313 97.2358 109.259C104.875 108.607 112.09 107.54 118.635 106.083C120.778 114.43 124.926 133.799 115.077 139.29ZM42.7844 139.212C32.9769 133.766 37.4596 115.064 39.7084 106.374C46.1799 107.753 53.344 108.745 61.0006 109.343C65.3715 115.266 69.9498 120.711 74.5634 125.479C68.8633 130.789 52.6377 144.683 42.7844 139.212ZM6.74918 78.8739C6.74918 67.8794 26.0282 62.2788 35.0709 59.8167C37.0484 66.0094 39.6419 72.4846 42.7718 79.0324C39.6014 85.6776 36.9708 92.2553 34.9751 98.5212C26.3528 96.1444 6.74918 89.8753 6.74918 78.8739ZM42.6795 18.8647C52.5271 13.3756 67.8068 26.7437 74.3437 32.7607C69.7538 37.5071 65.2177 42.9108 60.8842 48.8001C53.4535 49.4634 46.3401 50.5284 39.8007 51.9553C37.3473 42.4929 32.8425 24.3478 42.6795 18.8647ZM102.064 55.8648C107.106 56.4773 111.936 57.2923 116.471 58.2893C115.109 62.4917 113.412 66.8861 111.414 71.3908C108.517 66.0973 105.407 60.9099 102.064 55.8648ZM79.0753 37.4054C82.1884 40.6531 85.3063 44.2797 88.3736 48.2143C82.1521 47.9308 75.9206 47.9297 69.6991 48.2101C72.769 44.312 75.9137 40.6908 79.0753 37.4054ZM46.6442 71.3861C44.6787 66.897 42.997 62.4833 41.6236 58.2208C46.1317 57.2494 50.9392 56.4554 55.9478 55.8528C52.5961 60.8869 49.4914 66.0721 46.6442 71.3861ZM56.0916 102.359C50.9176 101.803 46.0373 101.049 41.5306 100.105C42.9257 95.7672 44.6444 91.2583 46.6519 86.6725C49.5383 92.0419 52.6904 97.2773 56.0916 102.359ZM79.2623 120.802C76.0633 117.478 72.8722 113.801 69.756 109.846C76.0127 110.083 82.2817 110.083 88.5379 109.814C85.4612 113.841 82.3543 117.523 79.2623 120.802ZM111.478 86.4392C113.59 91.0747 115.37 95.559 116.784 99.8232C112.203 100.83 107.257 101.641 102.045 102.243C105.412 97.1021 108.572 91.8342 111.478 86.4392ZM93.4691 103.031C83.8985 103.689 74.2684 103.682 64.6947 103.085C59.2547 95.4325 54.412 87.3849 50.2319 79.0303C54.392 70.693 59.1994 62.6612 64.6136 55.0211C74.1942 54.3238 83.8338 54.3218 93.4143 55.0253C98.7821 62.6648 103.582 70.6757 107.839 78.9378C103.633 87.2709 98.8 95.3189 93.4691 103.031ZM114.973 18.6714C124.823 24.1425 120.439 43.5734 118.287 52.0228C111.732 50.5661 104.613 49.4822 97.161 48.8085C92.8192 42.8556 88.3209 37.4425 83.8053 32.7573C90.426 26.6108 105.218 13.2539 114.973 18.6714Z" fill="#53C1DE"/>
</svg>
