<?xml version="1.0" encoding="UTF-8"?>
<svg width="440px" height="440px" viewBox="0 0 440 440" version="1.1" xmlns="http://www.w3.org/2000/svg" xmlns:xlink="http://www.w3.org/1999/xlink">
    <!-- Generator: Sketch 61.2 (89653) - https://sketch.com -->
    <title>img-design-quote-artwork</title>
    <desc>Created with Sketch.</desc>
    <defs>
        <circle id="path-1" cx="220" cy="220" r="220"></circle>
        <polygon id="path-3" points="188 0 376 333.028571 0 333.028571"></polygon>
        <polygon id="path-5" points="187 157 276 333 99 333"></polygon>
        <filter x="-50.8%" y="-51.1%" width="201.7%" height="202.3%" filterUnits="objectBoundingBox" id="filter-6">
            <feOffset dx="0" dy="0" in="SourceAlpha" result="shadowOffsetOuter1"></feOffset>
            <feGaussianBlur stdDeviation="30" in="shadowOffsetOuter1" result="shadowBlurOuter1"></feGaussianBlur>
            <feColorMatrix values="0 0 0 0 0   0 0 0 0 0   0 0 0 0 0  0 0 0 0.150185752 0" type="matrix" in="shadowBlurOuter1"></feColorMatrix>
        </filter>
    </defs>
    <g id="Page-1" stroke="none" stroke-width="1" fill="none" fill-rule="evenodd">
        <g id="Design-Discovery-6" transform="translate(-1050.000000, -8202.000000)">
            <g id="img-design-quote-artwork" transform="translate(1050.000000, 8202.000000)">
                <g id="Mask">
                    <mask id="mask-2" fill="white">
                        <use xlink:href="#path-1"></use>
                    </mask>
                    <use fill="#232A33" fill-rule="nonzero" xlink:href="#path-1"></use>
                    <g id="Triangle" mask="url(#mask-2)">
                        <g transform="translate(32.000000, 0.000000)">
                            <mask id="mask-4" fill="white">
                                <use xlink:href="#path-3"></use>
                            </mask>
                            <use id="Mask" stroke="none" fill="#323A45" fill-rule="nonzero" xlink:href="#path-3"></use>
                            <g id="Triangle" stroke="none" fill="none" fill-rule="nonzero" mask="url(#mask-4)" transform="translate(187.500000, 245.000000) scale(1, -1) translate(-187.500000, -245.000000) ">
                                <use fill="black" fill-opacity="1" filter="url(#filter-6)" xlink:href="#path-5"></use>
                                <use fill="#F13C31" xlink:href="#path-5"></use>
                            </g>
                        </g>
                    </g>
                </g>
                <path d="M183.351,385.28 L183.351,377.02 L185.997,377.02 L185.997,375.508 L178.759,375.508 L178.759,377.02 L181.391,377.02 L181.391,385.28 L183.351,385.28 Z M190.785,385.392 C191.699667,385.392 192.479,385.158667 193.123,384.692 C193.767,384.225334 194.201,383.623334 194.425,382.886 L194.425,382.886 L192.297,382.886 C191.970333,383.446 191.466333,383.726 190.785,383.726 C190.281,383.726 189.865667,383.572 189.539,383.264 C189.212333,382.956 189.025667,382.55 188.979,382.046 L188.979,382.046 L194.635,382.046 C194.672333,381.812667 194.691,381.560667 194.691,381.29 C194.691,380.114 194.327,379.173667 193.599,378.469 C192.871,377.764334 191.94,377.412 190.806,377.412 C189.672,377.412 188.748,377.773667 188.034,378.497 C187.32,379.220334 186.963,380.184 186.963,381.388 C186.963,382.592 187.317667,383.560334 188.027,384.293 C188.736333,385.025667 189.655667,385.392 190.785,385.392 Z M192.647,380.772 L188.979,380.772 C189.044333,380.258667 189.242667,379.848 189.574,379.54 C189.905333,379.232 190.318333,379.078 190.813,379.078 C191.307667,379.078 191.73,379.232 192.08,379.54 C192.43,379.848 192.619,380.258667 192.647,380.772 L192.647,380.772 Z M199.521,385.392 C200.445,385.392 201.226667,385.154 201.866,384.678 C202.505333,384.202 202.937,383.558 203.161,382.746 L203.161,382.746 L201.033,382.746 C200.771667,383.399334 200.267667,383.726 199.521,383.726 C198.951667,383.726 198.506,383.518334 198.184,383.103 C197.862,382.687667 197.701,382.120667 197.701,381.402 C197.701,380.683334 197.862,380.116334 198.184,379.701 C198.506,379.285667 198.951667,379.078 199.521,379.078 C200.277,379.078 200.781,379.4 201.033,380.044 L201.033,380.044 L203.161,380.044 C202.946333,379.204 202.521667,378.555334 201.887,378.098 C201.252333,377.640667 200.463667,377.412 199.521,377.412 C198.391667,377.412 197.472333,377.776 196.763,378.504 C196.053667,379.232 195.699,380.198 195.699,381.402 C195.699,382.606 196.053667,383.572 196.763,384.3 C197.472333,385.028 198.391667,385.392 199.521,385.392 Z M206.619,385.28 L206.619,380.996 C206.619,380.389334 206.775333,379.925 207.088,379.603 C207.400667,379.281 207.823,379.12 208.355,379.12 C208.887,379.12 209.307,379.281 209.615,379.603 C209.923,379.925 210.077,380.389334 210.077,380.996 L210.077,380.996 L210.077,385.28 L212.037,385.28 L212.037,380.716 C212.037,379.68 211.757,378.870334 211.197,378.287 C210.637,377.703667 209.913667,377.412 209.027,377.412 C207.916333,377.412 207.113667,377.836667 206.619,378.686 L206.619,378.686 L206.619,374.92 L204.645,374.92 L204.645,385.28 L206.619,385.28 Z M216.041,385.28 L216.041,380.996 C216.041,380.389334 216.197333,379.925 216.51,379.603 C216.822667,379.281 217.245,379.12 217.777,379.12 C218.309,379.12 218.729,379.281 219.037,379.603 C219.345,379.925 219.499,380.389334 219.499,380.996 L219.499,380.996 L219.499,385.28 L221.459,385.28 L221.459,380.716 C221.459,379.68 221.179,378.870334 220.619,378.287 C220.059,377.703667 219.335667,377.412 218.449,377.412 C217.338333,377.412 216.535667,377.836667 216.041,378.686 L216.041,378.686 L216.041,377.524 L214.067,377.524 L214.067,385.28 L216.041,385.28 Z M226.933,385.392 C228.071667,385.392 229.026,385.023334 229.796,384.286 C230.566,383.548667 230.951,382.582667 230.951,381.388 C230.951,380.193334 230.568333,379.232 229.803,378.504 C229.037667,377.776 228.088,377.412 226.954,377.412 C225.82,377.412 224.870333,377.776 224.105,378.504 C223.339667,379.232 222.957,380.193334 222.957,381.388 C222.957,382.582667 223.335,383.548667 224.091,384.286 C224.847,385.023334 225.794333,385.392 226.933,385.392 Z M226.933,383.726 C226.382333,383.726 225.915667,383.525334 225.533,383.124 C225.150333,382.722667 224.959,382.148667 224.959,381.402 C224.959,380.655334 225.150333,380.081334 225.533,379.68 C225.915667,379.278667 226.384667,379.078 226.94,379.078 C227.495333,379.078 227.969,379.278667 228.361,379.68 C228.753,380.081334 228.949,380.653 228.949,381.395 C228.949,382.137 228.750667,382.711 228.354,383.117 C227.957333,383.523 227.483667,383.726 226.933,383.726 Z M234.493,385.28 L234.493,374.92 L232.519,374.92 L232.519,385.28 L234.493,385.28 Z M240.037,385.392 C241.175667,385.392 242.13,385.023334 242.9,384.286 C243.67,383.548667 244.055,382.582667 244.055,381.388 C244.055,380.193334 243.672333,379.232 242.907,378.504 C242.141667,377.776 241.192,377.412 240.058,377.412 C238.924,377.412 237.974333,377.776 237.209,378.504 C236.443667,379.232 236.061,380.193334 236.061,381.388 C236.061,382.582667 236.439,383.548667 237.195,384.286 C237.951,385.023334 238.898333,385.392 240.037,385.392 Z M240.037,383.726 C239.486333,383.726 239.019667,383.525334 238.637,383.124 C238.254333,382.722667 238.063,382.148667 238.063,381.402 C238.063,380.655334 238.254333,380.081334 238.637,379.68 C239.019667,379.278667 239.488667,379.078 240.044,379.078 C240.599333,379.078 241.073,379.278667 241.465,379.68 C241.857,380.081334 242.053,380.653 242.053,381.395 C242.053,382.137 241.854667,382.711 241.458,383.117 C241.061333,383.523 240.587667,383.726 240.037,383.726 Z M249.41,389.116 C250.590667,389.116 251.507667,388.763667 252.161,388.059 C252.814333,387.354334 253.141,386.446667 253.141,385.336 L253.141,385.336 L253.141,377.524 L251.181,377.524 L251.181,378.728 C250.621,377.850667 249.809,377.412 248.745,377.412 C247.681,377.412 246.803667,377.783 246.113,378.525 C245.422333,379.267 245.077,380.221334 245.077,381.388 C245.077,382.554667 245.422333,383.516 246.113,384.272 C246.813,385.018667 247.685667,385.392 248.731,385.392 C249.776333,385.392 250.593,384.920667 251.181,383.978 L251.181,383.978 L251.181,385.336 C251.181,386.026667 251.006,386.544667 250.656,386.89 C250.306,387.235334 249.869667,387.408 249.347,387.408 C248.824333,387.408 248.390333,387.307667 248.045,387.107 C247.699667,386.906334 247.466333,386.633334 247.345,386.288 L247.345,386.288 L245.413,386.288 C245.506333,387.193334 245.900667,387.891 246.596,388.381 C247.291333,388.871 248.229333,389.116 249.41,389.116 Z M249.13,383.684 C248.584,383.684 248.105667,383.478667 247.695,383.068 C247.284333,382.657334 247.079,382.097334 247.079,381.388 C247.079,380.678667 247.282,380.123334 247.688,379.722 C248.094,379.320667 248.572333,379.12 249.123,379.12 C249.673667,379.12 250.154333,379.323 250.565,379.729 C250.975667,380.135 251.181,380.692667 251.181,381.402 C251.181,382.111334 250.975667,382.671334 250.565,383.082 C250.154333,383.483334 249.676,383.684 249.13,383.684 Z M257.775,388.948 L262.619,377.524 L260.561,377.524 L258.475,383.04 L256.501,377.524 L254.289,377.524 L257.327,385.14 L255.717,388.948 L257.775,388.948 Z" id="Technology" fill="#657181" fill-rule="nonzero"></path>
                <path d="M66.16,153.378 C67.2706667,153.378 68.2133333,153.044334 68.988,152.377 C69.7626667,151.709667 70.15,150.76 70.15,149.528 L70.15,149.528 L70.15,143.508 L68.19,143.508 L68.19,149.528 C68.19,150.2 68.0173333,150.708667 67.672,151.054 C67.3266667,151.399334 66.8366667,151.572 66.202,151.572 C65.5673333,151.572 65.0796667,151.399334 64.739,151.054 C64.3983333,150.708667 64.228,150.2 64.228,149.528 L64.228,149.528 L64.228,143.508 L62.254,143.508 L62.254,149.528 C62.254,150.769334 62.6273333,151.721334 63.374,152.384 C64.1206667,153.046667 65.0493333,153.378 66.16,153.378 Z M74.987,153.392 C75.9063333,153.392 76.6623333,153.172667 77.255,152.734 C77.8476667,152.295334 78.144,151.726 78.144,151.026 C78.144,150.494 77.99,150.067 77.682,149.745 C77.374,149.423 77.003,149.199 76.569,149.073 C76.135,148.947 75.6986667,148.842 75.26,148.758 C74.8213333,148.674 74.448,148.557334 74.14,148.408 C73.832,148.258667 73.678,148.053334 73.678,147.792 C73.678,147.530667 73.7806667,147.325334 73.986,147.176 C74.1913333,147.026667 74.4806667,146.952 74.854,146.952 C75.6006667,146.952 76.002,147.278667 76.058,147.932 L76.058,147.932 L78.074,147.932 C78.0366667,147.157334 77.7333333,146.543667 77.164,146.091 C76.5946667,145.638334 75.8386667,145.412 74.896,145.412 C73.9533333,145.412 73.1973333,145.640667 72.628,146.098 C72.0586667,146.555334 71.774,147.12 71.774,147.792 C71.774,148.296 71.928,148.704334 72.236,149.017 C72.544,149.329667 72.915,149.546667 73.349,149.668 C73.783,149.789334 74.2193333,149.892 74.658,149.976 C75.0966667,150.06 75.47,150.179 75.778,150.333 C76.086,150.487 76.24,150.697 76.24,150.963 C76.24,151.229 76.128,151.443667 75.904,151.607 C75.68,151.770334 75.386,151.852 75.022,151.852 C74.266,151.852 73.8506667,151.525334 73.776,150.872 L73.776,150.872 L71.76,150.872 C71.816,151.684 72.138,152.307 72.726,152.741 C73.314,153.175 74.0676667,153.392 74.987,153.392 Z M83.1,153.392 C84.0146667,153.392 84.794,153.158667 85.438,152.692 C86.082,152.225334 86.516,151.623334 86.74,150.886 L86.74,150.886 L84.612,150.886 C84.2853333,151.446 83.7813333,151.726 83.1,151.726 C82.596,151.726 82.1806667,151.572 81.854,151.264 C81.5273333,150.956 81.3406667,150.55 81.294,150.046 L81.294,150.046 L86.95,150.046 C86.9873333,149.812667 87.006,149.560667 87.006,149.29 C87.006,148.114 86.642,147.173667 85.914,146.469 C85.186,145.764334 84.255,145.412 83.121,145.412 C81.987,145.412 81.063,145.773667 80.349,146.497 C79.635,147.220334 79.278,148.184 79.278,149.388 C79.278,150.592 79.6326667,151.560334 80.342,152.293 C81.0513333,153.025667 81.9706667,153.392 83.1,153.392 Z M84.962,148.772 L81.294,148.772 C81.3593333,148.258667 81.5576667,147.848 81.889,147.54 C82.2203333,147.232 82.6333333,147.078 83.128,147.078 C83.6226667,147.078 84.045,147.232 84.395,147.54 C84.745,147.848 84.934,148.258667 84.962,148.772 L84.962,148.772 Z M90.534,153.28 L90.534,149.388 C90.534,148.669334 90.6833333,148.163 90.982,147.869 C91.2806667,147.575 91.724,147.428 92.312,147.428 L92.312,147.428 L92.802,147.428 L92.802,145.412 C91.8126667,145.412 91.0566667,145.906667 90.534,146.896 L90.534,146.896 L90.534,145.524 L88.56,145.524 L88.56,153.28 L90.534,153.28 Z M96.981,153.392 C97.9003333,153.392 98.6563333,153.172667 99.249,152.734 C99.8416667,152.295334 100.138,151.726 100.138,151.026 C100.138,150.494 99.984,150.067 99.676,149.745 C99.368,149.423 98.997,149.199 98.563,149.073 C98.129,148.947 97.6926667,148.842 97.254,148.758 C96.8153333,148.674 96.442,148.557334 96.134,148.408 C95.826,148.258667 95.672,148.053334 95.672,147.792 C95.672,147.530667 95.7746667,147.325334 95.98,147.176 C96.1853333,147.026667 96.4746667,146.952 96.848,146.952 C97.5946667,146.952 97.996,147.278667 98.052,147.932 L98.052,147.932 L100.068,147.932 C100.030667,147.157334 99.7273333,146.543667 99.158,146.091 C98.5886667,145.638334 97.8326667,145.412 96.89,145.412 C95.9473333,145.412 95.1913333,145.640667 94.622,146.098 C94.0526667,146.555334 93.768,147.12 93.768,147.792 C93.768,148.296 93.922,148.704334 94.23,149.017 C94.538,149.329667 94.909,149.546667 95.343,149.668 C95.777,149.789334 96.2133333,149.892 96.652,149.976 C97.0906667,150.06 97.464,150.179 97.772,150.333 C98.08,150.487 98.234,150.697 98.234,150.963 C98.234,151.229 98.122,151.443667 97.898,151.607 C97.674,151.770334 97.38,151.852 97.016,151.852 C96.26,151.852 95.8446667,151.525334 95.77,150.872 L95.77,150.872 L93.754,150.872 C93.81,151.684 94.132,152.307 94.72,152.741 C95.308,153.175 96.0616667,153.392 96.981,153.392 Z" id="Users" fill="#657181" fill-rule="nonzero"></path>
                <path d="M344.435,153.28 C345.424333,153.28 346.208333,153.044334 346.787,152.573 C347.365667,152.101667 347.655,151.483334 347.655,150.718 C347.655,150.111334 347.461333,149.577 347.074,149.115 C346.686667,148.653 346.171,148.375334 345.527,148.282 C346.796333,147.908667 347.431,147.176 347.431,146.084 C347.431,145.337334 347.144,144.721334 346.57,144.236 C345.996,143.750667 345.209667,143.508 344.211,143.508 L344.211,143.508 L340.249,143.508 L340.249,153.28 L344.435,153.28 Z M344.001,147.554 L342.223,147.554 L342.223,145.02 L344.001,145.02 C344.439667,145.02 344.787333,145.132 345.044,145.356 C345.300667,145.58 345.429,145.892667 345.429,146.294 C345.429,146.695334 345.300667,147.005667 345.044,147.225 C344.787333,147.444334 344.439667,147.554 344.001,147.554 L344.001,147.554 Z M344.211,151.768 L342.223,151.768 L342.223,149.066 L344.197,149.066 C344.635667,149.066 344.990333,149.187334 345.261,149.43 C345.531667,149.672667 345.667,150.004 345.667,150.424 C345.667,150.844 345.534,151.173 345.268,151.411 C345.002,151.649 344.649667,151.768 344.211,151.768 L344.211,151.768 Z M352.275,153.378 C353.395,153.378 354.202333,152.953334 354.697,152.104 L354.697,152.104 L354.697,153.28 L356.671,153.28 L356.671,145.524 L354.697,145.524 L354.697,149.794 C354.697,150.400667 354.540667,150.867334 354.228,151.194 C353.915333,151.520667 353.493,151.684 352.961,151.684 C352.429,151.684 352.009,151.520667 351.701,151.194 C351.393,150.867334 351.239,150.400667 351.239,149.794 L351.239,149.794 L351.239,145.524 L349.279,145.524 L349.279,150.074 C349.279,151.11 349.559,151.919667 350.119,152.503 C350.679,153.086334 351.397667,153.378 352.275,153.378 Z M361.55,153.392 C362.469333,153.392 363.225333,153.172667 363.818,152.734 C364.410667,152.295334 364.707,151.726 364.707,151.026 C364.707,150.494 364.553,150.067 364.245,149.745 C363.937,149.423 363.566,149.199 363.132,149.073 C362.698,148.947 362.261667,148.842 361.823,148.758 C361.384333,148.674 361.011,148.557334 360.703,148.408 C360.395,148.258667 360.241,148.053334 360.241,147.792 C360.241,147.530667 360.343667,147.325334 360.549,147.176 C360.754333,147.026667 361.043667,146.952 361.417,146.952 C362.163667,146.952 362.565,147.278667 362.621,147.932 L362.621,147.932 L364.637,147.932 C364.599667,147.157334 364.296333,146.543667 363.727,146.091 C363.157667,145.638334 362.401667,145.412 361.459,145.412 C360.516333,145.412 359.760333,145.640667 359.191,146.098 C358.621667,146.555334 358.337,147.12 358.337,147.792 C358.337,148.296 358.491,148.704334 358.799,149.017 C359.107,149.329667 359.478,149.546667 359.912,149.668 C360.346,149.789334 360.782333,149.892 361.221,149.976 C361.659667,150.06 362.033,150.179 362.341,150.333 C362.649,150.487 362.803,150.697 362.803,150.963 C362.803,151.229 362.691,151.443667 362.467,151.607 C362.243,151.770334 361.949,151.852 361.585,151.852 C360.829,151.852 360.413667,151.525334 360.339,150.872 L360.339,150.872 L358.323,150.872 C358.379,151.684 358.701,152.307 359.289,152.741 C359.877,153.175 360.630667,153.392 361.55,153.392 Z M367.374,144.754 C367.705333,144.754 367.987667,144.637334 368.221,144.404 C368.454333,144.170667 368.571,143.886 368.571,143.55 C368.571,143.214 368.454333,142.929334 368.221,142.696 C367.987667,142.462667 367.705333,142.346 367.374,142.346 C367.042667,142.346 366.760333,142.462667 366.527,142.696 C366.293667,142.929334 366.177,143.214 366.177,143.55 C366.177,143.886 366.293667,144.170667 366.527,144.404 C366.760333,144.637334 367.042667,144.754 367.374,144.754 Z M368.361,153.28 L368.361,145.524 L366.387,145.524 L366.387,153.28 L368.361,153.28 Z M372.435,153.28 L372.435,148.996 C372.435,148.389334 372.591333,147.925 372.904,147.603 C373.216667,147.281 373.639,147.12 374.171,147.12 C374.703,147.12 375.123,147.281 375.431,147.603 C375.739,147.925 375.893,148.389334 375.893,148.996 L375.893,148.996 L375.893,153.28 L377.853,153.28 L377.853,148.716 C377.853,147.68 377.573,146.870334 377.013,146.287 C376.453,145.703667 375.729667,145.412 374.843,145.412 C373.732333,145.412 372.929667,145.836667 372.435,146.686 L372.435,146.686 L372.435,145.524 L370.461,145.524 L370.461,153.28 L372.435,153.28 Z M383.159,153.392 C384.073667,153.392 384.853,153.158667 385.497,152.692 C386.141,152.225334 386.575,151.623334 386.799,150.886 L386.799,150.886 L384.671,150.886 C384.344333,151.446 383.840333,151.726 383.159,151.726 C382.655,151.726 382.239667,151.572 381.913,151.264 C381.586333,150.956 381.399667,150.55 381.353,150.046 L381.353,150.046 L387.009,150.046 C387.046333,149.812667 387.065,149.560667 387.065,149.29 C387.065,148.114 386.701,147.173667 385.973,146.469 C385.245,145.764334 384.314,145.412 383.18,145.412 C382.046,145.412 381.122,145.773667 380.408,146.497 C379.694,147.220334 379.337,148.184 379.337,149.388 C379.337,150.592 379.691667,151.560334 380.401,152.293 C381.110333,153.025667 382.029667,153.392 383.159,153.392 Z M385.021,148.772 L381.353,148.772 C381.418333,148.258667 381.616667,147.848 381.948,147.54 C382.279333,147.232 382.692333,147.078 383.187,147.078 C383.681667,147.078 384.104,147.232 384.454,147.54 C384.804,147.848 384.993,148.258667 385.021,148.772 L385.021,148.772 Z M391.398,153.392 C392.317333,153.392 393.073333,153.172667 393.666,152.734 C394.258667,152.295334 394.555,151.726 394.555,151.026 C394.555,150.494 394.401,150.067 394.093,149.745 C393.785,149.423 393.414,149.199 392.98,149.073 C392.546,148.947 392.109667,148.842 391.671,148.758 C391.232333,148.674 390.859,148.557334 390.551,148.408 C390.243,148.258667 390.089,148.053334 390.089,147.792 C390.089,147.530667 390.191667,147.325334 390.397,147.176 C390.602333,147.026667 390.891667,146.952 391.265,146.952 C392.011667,146.952 392.413,147.278667 392.469,147.932 L392.469,147.932 L394.485,147.932 C394.447667,147.157334 394.144333,146.543667 393.575,146.091 C393.005667,145.638334 392.249667,145.412 391.307,145.412 C390.364333,145.412 389.608333,145.640667 389.039,146.098 C388.469667,146.555334 388.185,147.12 388.185,147.792 C388.185,148.296 388.339,148.704334 388.647,149.017 C388.955,149.329667 389.326,149.546667 389.76,149.668 C390.194,149.789334 390.630333,149.892 391.069,149.976 C391.507667,150.06 391.881,150.179 392.189,150.333 C392.497,150.487 392.651,150.697 392.651,150.963 C392.651,151.229 392.539,151.443667 392.315,151.607 C392.091,151.770334 391.797,151.852 391.433,151.852 C390.677,151.852 390.261667,151.525334 390.187,150.872 L390.187,150.872 L388.171,150.872 C388.227,151.684 388.549,152.307 389.137,152.741 C389.725,153.175 390.478667,153.392 391.398,153.392 Z M399.014,153.392 C399.933333,153.392 400.689333,153.172667 401.282,152.734 C401.874667,152.295334 402.171,151.726 402.171,151.026 C402.171,150.494 402.017,150.067 401.709,149.745 C401.401,149.423 401.03,149.199 400.596,149.073 C400.162,148.947 399.725667,148.842 399.287,148.758 C398.848333,148.674 398.475,148.557334 398.167,148.408 C397.859,148.258667 397.705,148.053334 397.705,147.792 C397.705,147.530667 397.807667,147.325334 398.013,147.176 C398.218333,147.026667 398.507667,146.952 398.881,146.952 C399.627667,146.952 400.029,147.278667 400.085,147.932 L400.085,147.932 L402.101,147.932 C402.063667,147.157334 401.760333,146.543667 401.191,146.091 C400.621667,145.638334 399.865667,145.412 398.923,145.412 C397.980333,145.412 397.224333,145.640667 396.655,146.098 C396.085667,146.555334 395.801,147.12 395.801,147.792 C395.801,148.296 395.955,148.704334 396.263,149.017 C396.571,149.329667 396.942,149.546667 397.376,149.668 C397.81,149.789334 398.246333,149.892 398.685,149.976 C399.123667,150.06 399.497,150.179 399.805,150.333 C400.113,150.487 400.267,150.697 400.267,150.963 C400.267,151.229 400.155,151.443667 399.931,151.607 C399.707,151.770334 399.413,151.852 399.049,151.852 C398.293,151.852 397.877667,151.525334 397.803,150.872 L397.803,150.872 L395.787,150.872 C395.843,151.684 396.165,152.307 396.753,152.741 C397.341,153.175 398.094667,153.392 399.014,153.392 Z" id="Business" fill="#657181" fill-rule="nonzero"></path>
                <path d="M195.51328,220.16128 C197.34112,220.16128 198.89248,219.61216 200.16736,218.51392 C201.44224,217.41568 202.07968,215.8528 202.07968,213.82528 L202.07968,213.82528 L202.07968,203.91808 L198.85408,203.91808 L198.85408,213.82528 C198.85408,214.9312 198.56992,215.76832 198.0016,216.33664 C197.43328,216.90496 196.62688,217.18912 195.5824,217.18912 C194.53792,217.18912 193.73536,216.90496 193.17472,216.33664 C192.61408,215.76832 192.33376,214.9312 192.33376,213.82528 L192.33376,213.82528 L192.33376,203.91808 L189.085119,203.91808 L189.085119,213.82528 C189.085119,215.86816 189.69952,217.43488 190.92832,218.52544 C192.15712,219.616 193.68544,220.16128 195.51328,220.16128 Z M208.7152,220 L208.7152,203.91808 L205.46656,203.91808 L205.46656,220 L208.7152,220 Z M219.86656,217.67296 L219.86656,213.27232 L224.19808,213.27232 L224.19808,210.34624 L219.86656,210.34624 L219.86656,205.92256 L216.7792,205.92256 L216.7792,210.34624 L212.44768,210.34624 L212.44768,213.27232 L216.7792,213.27232 L216.7792,217.67296 L219.86656,217.67296 Z M234.33568,220.16128 C236.16352,220.16128 237.71488,219.61216 238.98976,218.51392 C240.26464,217.41568 240.90208,215.8528 240.90208,213.82528 L240.90208,213.82528 L240.90208,203.91808 L237.67648,203.91808 L237.67648,213.82528 C237.67648,214.9312 237.39232,215.76832 236.824,216.33664 C236.25568,216.90496 235.44928,217.18912 234.4048,217.18912 C233.36032,217.18912 232.55776,216.90496 231.99712,216.33664 C231.43648,215.76832 231.15616,214.9312 231.15616,213.82528 L231.15616,213.82528 L231.15616,203.91808 L227.90752,203.91808 L227.90752,213.82528 C227.90752,215.86816 228.52192,217.43488 229.75072,218.52544 C230.97952,219.616 232.50784,220.16128 234.33568,220.16128 Z M247.37632,220 L250.46368,214.7008 L253.78144,220 L257.444801,220 L252.42208,211.95904 L257.444801,203.91808 L253.80448,203.91808 L250.69408,209.21728 L247.37632,203.91808 L243.71296,203.91808 L248.75872,211.95904 L243.71296,220 L247.37632,220 Z" id="UI+UX" fill="#FFFFFF" fill-rule="nonzero"></path>
                <path d="M184.366,109.28 L184.366,99.5080003 L182.392,99.5080003 L182.392,109.28 L184.366,109.28 Z M188.44,109.28 L188.44,104.996 C188.44,104.389334 188.596333,103.925 188.909,103.603 C189.221667,103.281 189.644,103.12 190.176,103.12 C190.708,103.12 191.128,103.281 191.436,103.603 C191.744,103.925 191.898,104.389334 191.898,104.996 L191.898,104.996 L191.898,109.28 L193.858,109.28 L193.858,104.716 C193.858,103.68 193.578,102.870334 193.018,102.287 C192.458,101.703667 191.734667,101.412 190.848,101.412 C189.737333,101.412 188.934667,101.836667 188.44,102.686 L188.44,102.686 L188.44,101.524 L186.466,101.524 L186.466,109.28 L188.44,109.28 Z M197.974,109.28 L197.974,103.134 L199.206,103.134 L199.206,101.524 L197.974,101.524 L197.974,101.09 C197.974,100.716667 198.058,100.450667 198.226,100.292 C198.394,100.133334 198.683333,100.054 199.094,100.054 L199.094,100.054 L199.094,98.4020003 C198.03,98.4020003 197.250667,98.6166669 196.756,99.0460003 C196.261333,99.4753336 196.014,100.156667 196.014,101.09 L196.014,101.09 L196.014,101.524 L195.174,101.524 L195.174,103.134 L196.014,103.134 L196.014,109.28 L197.974,109.28 Z M204.008,109.392 C205.146667,109.392 206.101,109.023334 206.871,108.286 C207.641,107.548667 208.026,106.582667 208.026,105.388 C208.026,104.193334 207.643333,103.232 206.878,102.504 C206.112667,101.776 205.163,101.412 204.029,101.412 C202.895,101.412 201.945333,101.776 201.18,102.504 C200.414667,103.232 200.032,104.193334 200.032,105.388 C200.032,106.582667 200.41,107.548667 201.166,108.286 C201.922,109.023334 202.869333,109.392 204.008,109.392 Z M204.008,107.726 C203.457333,107.726 202.990667,107.525334 202.608,107.124 C202.225333,106.722667 202.034,106.148667 202.034,105.402 C202.034,104.655334 202.225333,104.081334 202.608,103.68 C202.990667,103.278667 203.459667,103.078 204.015,103.078 C204.570333,103.078 205.044,103.278667 205.436,103.68 C205.828,104.081334 206.024,104.653 206.024,105.395 C206.024,106.137 205.825667,106.711 205.429,107.117 C205.032333,107.523 204.558667,107.726 204.008,107.726 Z M211.568,109.28 L211.568,105.388 C211.568,104.669334 211.717333,104.163 212.016,103.869 C212.314667,103.575 212.758,103.428 213.346,103.428 L213.346,103.428 L213.836,103.428 L213.836,101.412 C212.846667,101.412 212.090667,101.906667 211.568,102.896 L211.568,102.896 L211.568,101.524 L209.594,101.524 L209.594,109.28 L211.568,109.28 Z M217.21,109.28 L217.21,104.996 C217.21,104.389334 217.366333,103.925 217.679,103.603 C217.991667,103.281 218.414,103.12 218.946,103.12 C219.478,103.12 219.898,103.281 220.206,103.603 C220.514,103.925 220.668,104.389334 220.668,104.996 L220.668,104.996 L220.668,109.28 L222.628,109.28 L222.628,104.996 C222.628,104.389334 222.784333,103.925 223.097,103.603 C223.409667,103.281 223.832,103.12 224.364,103.12 C224.896,103.12 225.316,103.281 225.624,103.603 C225.932,103.925 226.086,104.389334 226.086,104.996 L226.086,104.996 L226.086,109.28 L228.046,109.28 L228.046,104.716 C228.046,103.670667 227.763667,102.858667 227.199,102.28 C226.634333,101.701334 225.89,101.412 224.966,101.412 C224.378,101.412 223.848333,101.552 223.377,101.832 C222.905667,102.112 222.534667,102.494667 222.264,102.98 C222.012,102.476 221.655,102.088667 221.193,101.818 C220.731,101.547334 220.206,101.412 219.618,101.412 C218.507333,101.412 217.704667,101.836667 217.21,102.686 L217.21,102.686 L217.21,101.524 L215.236,101.524 L215.236,109.28 L217.21,109.28 Z M233.184,109.392 C234.229333,109.392 235.046,108.920667 235.634,107.978 L235.634,107.978 L235.634,109.28 L237.594,109.28 L237.594,101.524 L235.634,101.524 L235.634,102.728 C235.074,101.850667 234.262,101.412 233.198,101.412 C232.134,101.412 231.256667,101.783 230.566,102.525 C229.875333,103.267 229.53,104.221334 229.53,105.388 C229.53,106.554667 229.875333,107.516 230.566,108.272 C231.266,109.018667 232.138667,109.392 233.184,109.392 Z M233.583,107.684 C233.037,107.684 232.558667,107.478667 232.148,107.068 C231.737333,106.657334 231.532,106.097334 231.532,105.388 C231.532,104.678667 231.735,104.123334 232.141,103.722 C232.547,103.320667 233.025333,103.12 233.576,103.12 C234.126667,103.12 234.607333,103.323 235.018,103.729 C235.428667,104.135 235.634,104.692667 235.634,105.402 C235.634,106.111334 235.428667,106.671334 235.018,107.082 C234.607333,107.483334 234.129,107.684 233.583,107.684 Z M243.642,109.28 L243.642,107.628 L242.704,107.628 C242.405333,107.628 242.195333,107.574334 242.074,107.467 C241.952667,107.359667 241.892,107.18 241.892,106.928 L241.892,106.928 L241.892,103.134 L243.628,103.134 L243.628,101.524 L241.892,101.524 L241.892,99.6060003 L239.918,99.6060003 L239.918,101.524 L239.092,101.524 L239.092,103.134 L239.918,103.134 L239.918,106.928 C239.918,107.768 240.132667,108.37 240.562,108.734 C240.991333,109.098 241.602667,109.28 242.396,109.28 L242.396,109.28 L243.642,109.28 Z M246.169,100.754 C246.500333,100.754 246.782667,100.637334 247.016,100.404 C247.249333,100.170667 247.366,99.8860003 247.366,99.5500003 C247.366,99.2140003 247.249333,98.9293336 247.016,98.6960003 C246.782667,98.4626669 246.500333,98.3460003 246.169,98.3460003 C245.837667,98.3460003 245.555333,98.4626669 245.322,98.6960003 C245.088667,98.9293336 244.972,99.2140003 244.972,99.5500003 C244.972,99.8860003 245.088667,100.170667 245.322,100.404 C245.555333,100.637334 245.837667,100.754 246.169,100.754 Z M247.156,109.28 L247.156,101.524 L245.182,101.524 L245.182,109.28 L247.156,109.28 Z M252.7,109.392 C253.838667,109.392 254.793,109.023334 255.563,108.286 C256.333,107.548667 256.718,106.582667 256.718,105.388 C256.718,104.193334 256.335333,103.232 255.57,102.504 C254.804667,101.776 253.855,101.412 252.721,101.412 C251.587,101.412 250.637333,101.776 249.872,102.504 C249.106667,103.232 248.724,104.193334 248.724,105.388 C248.724,106.582667 249.102,107.548667 249.858,108.286 C250.614,109.023334 251.561333,109.392 252.7,109.392 Z M252.7,107.726 C252.149333,107.726 251.682667,107.525334 251.3,107.124 C250.917333,106.722667 250.726,106.148667 250.726,105.402 C250.726,104.655334 250.917333,104.081334 251.3,103.68 C251.682667,103.278667 252.151667,103.078 252.707,103.078 C253.262333,103.078 253.736,103.278667 254.128,103.68 C254.52,104.081334 254.716,104.653 254.716,105.395 C254.716,106.137 254.517667,106.711 254.121,107.117 C253.724333,107.523 253.250667,107.726 252.7,107.726 Z M260.26,109.28 L260.26,104.996 C260.26,104.389334 260.416333,103.925 260.729,103.603 C261.041667,103.281 261.464,103.12 261.996,103.12 C262.528,103.12 262.948,103.281 263.256,103.603 C263.564,103.925 263.718,104.389334 263.718,104.996 L263.718,104.996 L263.718,109.28 L265.678,109.28 L265.678,104.716 C265.678,103.68 265.398,102.870334 264.838,102.287 C264.278,101.703667 263.554667,101.412 262.668,101.412 C261.557333,101.412 260.754667,101.836667 260.26,102.686 L260.26,102.686 L260.26,101.524 L258.286,101.524 L258.286,109.28 L260.26,109.28 Z M181.734,126.560001 L182.364,124.726001 L186.172,124.726001 L186.802,126.560001 L188.888,126.560001 L185.444,116.760001 L183.106,116.760001 L179.648,126.560001 L181.734,126.560001 Z M185.668,123.214001 L182.882,123.214001 L184.268,119.140001 L185.668,123.214001 Z M192.234,126.560001 L192.234,122.668001 C192.234,121.949334 192.383333,121.443001 192.682,121.149001 C192.980667,120.855001 193.424,120.708001 194.012,120.708001 L194.012,120.708001 L194.502,120.708001 L194.502,118.692001 C193.512667,118.692001 192.756667,119.186667 192.234,120.176001 L192.234,120.176001 L192.234,118.804001 L190.26,118.804001 L190.26,126.560001 L192.234,126.560001 Z M199.178,126.672001 C200.102,126.672001 200.883667,126.434001 201.523,125.958001 C202.162333,125.482001 202.594,124.838001 202.818,124.026001 L202.818,124.026001 L200.69,124.026001 C200.428667,124.679334 199.924667,125.006001 199.178,125.006001 C198.608667,125.006001 198.163,124.798334 197.841,124.383001 C197.519,123.967667 197.358,123.400667 197.358,122.682001 C197.358,121.963334 197.519,121.396334 197.841,120.981001 C198.163,120.565667 198.608667,120.358001 199.178,120.358001 C199.934,120.358001 200.438,120.680001 200.69,121.324001 L200.69,121.324001 L202.818,121.324001 C202.603333,120.484001 202.178667,119.835334 201.544,119.378001 C200.909333,118.920667 200.120667,118.692001 199.178,118.692001 C198.048667,118.692001 197.129333,119.056001 196.42,119.784001 C195.710667,120.512001 195.356,121.478001 195.356,122.682001 C195.356,123.886001 195.710667,124.852001 196.42,125.580001 C197.129333,126.308001 198.048667,126.672001 199.178,126.672001 Z M206.276,126.560001 L206.276,122.276001 C206.276,121.669334 206.432333,121.205001 206.745,120.883001 C207.057667,120.561001 207.48,120.400001 208.012,120.400001 C208.544,120.400001 208.964,120.561001 209.272,120.883001 C209.58,121.205001 209.734,121.669334 209.734,122.276001 L209.734,122.276001 L209.734,126.560001 L211.694,126.560001 L211.694,121.996001 C211.694,120.960001 211.414,120.150334 210.854,119.567001 C210.294,118.983667 209.570667,118.692001 208.684,118.692001 C207.573333,118.692001 206.770667,119.116667 206.276,119.966001 L206.276,119.966001 L206.276,116.200001 L204.302,116.200001 L204.302,126.560001 L206.276,126.560001 Z M214.711,118.034001 C215.042333,118.034001 215.324667,117.917334 215.558,117.684001 C215.791333,117.450667 215.908,117.166001 215.908,116.830001 C215.908,116.494001 215.791333,116.209334 215.558,115.976001 C215.324667,115.742667 215.042333,115.626001 214.711,115.626001 C214.379667,115.626001 214.097333,115.742667 213.864,115.976001 C213.630667,116.209334 213.514,116.494001 213.514,116.830001 C213.514,117.166001 213.630667,117.450667 213.864,117.684001 C214.097333,117.917334 214.379667,118.034001 214.711,118.034001 Z M215.698,126.560001 L215.698,118.804001 L213.724,118.804001 L213.724,126.560001 L215.698,126.560001 Z M221.746,126.560001 L221.746,124.908001 L220.808,124.908001 C220.509333,124.908001 220.299333,124.854334 220.178,124.747001 C220.056667,124.639667 219.996,124.460001 219.996,124.208001 L219.996,124.208001 L219.996,120.414001 L221.732,120.414001 L221.732,118.804001 L219.996,118.804001 L219.996,116.886001 L218.022,116.886001 L218.022,118.804001 L217.196,118.804001 L217.196,120.414001 L218.022,120.414001 L218.022,124.208001 C218.022,125.048001 218.236667,125.650001 218.666,126.014001 C219.095333,126.378001 219.706667,126.560001 220.5,126.560001 L220.5,126.560001 L221.746,126.560001 Z M226.562,126.672001 C227.476667,126.672001 228.256,126.438667 228.9,125.972001 C229.544,125.505334 229.978,124.903334 230.202,124.166001 L230.202,124.166001 L228.074,124.166001 C227.747333,124.726001 227.243333,125.006001 226.562,125.006001 C226.058,125.006001 225.642667,124.852001 225.316,124.544001 C224.989333,124.236001 224.802667,123.830001 224.756,123.326001 L224.756,123.326001 L230.412,123.326001 C230.449333,123.092667 230.468,122.840667 230.468,122.570001 C230.468,121.394001 230.104,120.453667 229.376,119.749001 C228.648,119.044334 227.717,118.692001 226.583,118.692001 C225.449,118.692001 224.525,119.053667 223.811,119.777001 C223.097,120.500334 222.74,121.464001 222.74,122.668001 C222.74,123.872001 223.094667,124.840334 223.804,125.573001 C224.513333,126.305667 225.432667,126.672001 226.562,126.672001 Z M228.424,122.052001 L224.756,122.052001 C224.821333,121.538667 225.019667,121.128001 225.351,120.820001 C225.682333,120.512001 226.095333,120.358001 226.59,120.358001 C227.084667,120.358001 227.507,120.512001 227.857,120.820001 C228.207,121.128001 228.396,121.538667 228.424,122.052001 L228.424,122.052001 Z M235.298,126.672001 C236.222,126.672001 237.003667,126.434001 237.643,125.958001 C238.282333,125.482001 238.714,124.838001 238.938,124.026001 L238.938,124.026001 L236.81,124.026001 C236.548667,124.679334 236.044667,125.006001 235.298,125.006001 C234.728667,125.006001 234.283,124.798334 233.961,124.383001 C233.639,123.967667 233.478,123.400667 233.478,122.682001 C233.478,121.963334 233.639,121.396334 233.961,120.981001 C234.283,120.565667 234.728667,120.358001 235.298,120.358001 C236.054,120.358001 236.558,120.680001 236.81,121.324001 L236.81,121.324001 L238.938,121.324001 C238.723333,120.484001 238.298667,119.835334 237.664,119.378001 C237.029333,118.920667 236.240667,118.692001 235.298,118.692001 C234.168667,118.692001 233.249333,119.056001 232.54,119.784001 C231.830667,120.512001 231.476,121.478001 231.476,122.682001 C231.476,123.886001 231.830667,124.852001 232.54,125.580001 C233.249333,126.308001 234.168667,126.672001 235.298,126.672001 Z M244.37,126.560001 L244.37,124.908001 L243.432,124.908001 C243.133333,124.908001 242.923333,124.854334 242.802,124.747001 C242.680667,124.639667 242.62,124.460001 242.62,124.208001 L242.62,124.208001 L242.62,120.414001 L244.356,120.414001 L244.356,118.804001 L242.62,118.804001 L242.62,116.886001 L240.646,116.886001 L240.646,118.804001 L239.82,118.804001 L239.82,120.414001 L240.646,120.414001 L240.646,124.208001 C240.646,125.048001 240.860667,125.650001 241.29,126.014001 C241.719333,126.378001 242.330667,126.560001 243.124,126.560001 L243.124,126.560001 L244.37,126.560001 Z M248.836,126.658001 C249.956,126.658001 250.763333,126.233334 251.258,125.384001 L251.258,125.384001 L251.258,126.560001 L253.232,126.560001 L253.232,118.804001 L251.258,118.804001 L251.258,123.074001 C251.258,123.680667 251.101667,124.147334 250.789,124.474001 C250.476333,124.800667 250.054,124.964001 249.522,124.964001 C248.99,124.964001 248.57,124.800667 248.262,124.474001 C247.954,124.147334 247.8,123.680667 247.8,123.074001 L247.8,123.074001 L247.8,118.804001 L245.84,118.804001 L245.84,123.354001 C245.84,124.390001 246.12,125.199667 246.68,125.783001 C247.24,126.366334 247.958667,126.658001 248.836,126.658001 Z M257.306,126.560001 L257.306,122.668001 C257.306,121.949334 257.455333,121.443001 257.754,121.149001 C258.052667,120.855001 258.496,120.708001 259.084,120.708001 L259.084,120.708001 L259.574,120.708001 L259.574,118.692001 C258.584667,118.692001 257.828667,119.186667 257.306,120.176001 L257.306,120.176001 L257.306,118.804001 L255.332,118.804001 L255.332,126.560001 L257.306,126.560001 Z M264.25,126.672001 C265.164667,126.672001 265.944,126.438667 266.588,125.972001 C267.232,125.505334 267.666,124.903334 267.89,124.166001 L267.89,124.166001 L265.762,124.166001 C265.435333,124.726001 264.931333,125.006001 264.25,125.006001 C263.746,125.006001 263.330667,124.852001 263.004,124.544001 C262.677333,124.236001 262.490667,123.830001 262.444,123.326001 L262.444,123.326001 L268.1,123.326001 C268.137333,123.092667 268.156,122.840667 268.156,122.570001 C268.156,121.394001 267.792,120.453667 267.064,119.749001 C266.336,119.044334 265.405,118.692001 264.271,118.692001 C263.137,118.692001 262.213,119.053667 261.499,119.777001 C260.785,120.500334 260.428,121.464001 260.428,122.668001 C260.428,123.872001 260.782667,124.840334 261.492,125.573001 C262.201333,126.305667 263.120667,126.672001 264.25,126.672001 Z M266.112,122.052001 L262.444,122.052001 C262.509333,121.538667 262.707667,121.128001 263.039,120.820001 C263.370333,120.512001 263.783333,120.358001 264.278,120.358001 C264.772667,120.358001 265.195,120.512001 265.545,120.820001 C265.895,121.128001 266.084,121.538667 266.112,122.052001 L266.112,122.052001 Z" id="InformationArchitecture" fill="#FFFFFF" fill-rule="nonzero" opacity="0.800000012"></path>
                <path d="M108.128,284.28 L108.128,274.508 L106.154,274.508 L106.154,284.28 L108.128,284.28 Z M112.202,284.28 L112.202,279.996 C112.202,279.389334 112.358333,278.925 112.671,278.603 C112.983667,278.281 113.406,278.12 113.938,278.12 C114.47,278.12 114.89,278.281 115.198,278.603 C115.506,278.925 115.66,279.389334 115.66,279.996 L115.66,279.996 L115.66,284.28 L117.62,284.28 L117.62,279.716 C117.62,278.68 117.34,277.870334 116.78,277.287 C116.22,276.703667 115.496667,276.412 114.61,276.412 C113.499333,276.412 112.696667,276.836667 112.202,277.686 L112.202,277.686 L112.202,276.524 L110.228,276.524 L110.228,284.28 L112.202,284.28 Z M123.598,284.28 L123.598,282.628 L122.66,282.628 C122.361333,282.628 122.151333,282.574334 122.03,282.467 C121.908667,282.359667 121.848,282.18 121.848,281.928 L121.848,281.928 L121.848,278.134 L123.584,278.134 L123.584,276.524 L121.848,276.524 L121.848,274.606 L119.874,274.606 L119.874,276.524 L119.048,276.524 L119.048,278.134 L119.874,278.134 L119.874,281.928 C119.874,282.768 120.088667,283.37 120.518,283.734 C120.947333,284.098 121.558667,284.28 122.352,284.28 L122.352,284.28 L123.598,284.28 Z M128.414,284.392 C129.328667,284.392 130.108,284.158667 130.752,283.692 C131.396,283.225334 131.83,282.623334 132.054,281.886 L132.054,281.886 L129.926,281.886 C129.599333,282.446 129.095333,282.726 128.414,282.726 C127.91,282.726 127.494667,282.572 127.168,282.264 C126.841333,281.956 126.654667,281.55 126.608,281.046 L126.608,281.046 L132.264,281.046 C132.301333,280.812667 132.32,280.560667 132.32,280.29 C132.32,279.114 131.956,278.173667 131.228,277.469 C130.5,276.764334 129.569,276.412 128.435,276.412 C127.301,276.412 126.377,276.773667 125.663,277.497 C124.949,278.220334 124.592,279.184 124.592,280.388 C124.592,281.592 124.946667,282.560334 125.656,283.293 C126.365333,284.025667 127.284667,284.392 128.414,284.392 Z M130.276,279.772 L126.608,279.772 C126.673333,279.258667 126.871667,278.848 127.203,278.54 C127.534333,278.232 127.947333,278.078 128.442,278.078 C128.936667,278.078 129.359,278.232 129.709,278.54 C130.059,278.848 130.248,279.258667 130.276,279.772 L130.276,279.772 Z M135.848,284.28 L135.848,280.388 C135.848,279.669334 135.997333,279.163 136.296,278.869 C136.594667,278.575 137.038,278.428 137.626,278.428 L137.626,278.428 L138.116,278.428 L138.116,276.412 C137.126667,276.412 136.370667,276.906667 135.848,277.896 L135.848,277.896 L135.848,276.524 L133.874,276.524 L133.874,284.28 L135.848,284.28 Z M141.602,284.28 L141.602,278.134 L142.834,278.134 L142.834,276.524 L141.602,276.524 L141.602,276.09 C141.602,275.716667 141.686,275.450667 141.854,275.292 C142.022,275.133334 142.311333,275.054 142.722,275.054 L142.722,275.054 L142.722,273.402 C141.658,273.402 140.878667,273.616667 140.384,274.046 C139.889333,274.475334 139.642,275.156667 139.642,276.09 L139.642,276.09 L139.642,276.524 L138.802,276.524 L138.802,278.134 L139.642,278.134 L139.642,284.28 L141.602,284.28 Z M147.3,284.392 C148.345333,284.392 149.162,283.920667 149.75,282.978 L149.75,282.978 L149.75,284.28 L151.71,284.28 L151.71,276.524 L149.75,276.524 L149.75,277.728 C149.19,276.850667 148.378,276.412 147.314,276.412 C146.25,276.412 145.372667,276.783 144.682,277.525 C143.991333,278.267 143.646,279.221334 143.646,280.388 C143.646,281.554667 143.991333,282.516 144.682,283.272 C145.382,284.018667 146.254667,284.392 147.3,284.392 Z M147.699,282.684 C147.153,282.684 146.674667,282.478667 146.264,282.068 C145.853333,281.657334 145.648,281.097334 145.648,280.388 C145.648,279.678667 145.851,279.123334 146.257,278.722 C146.663,278.320667 147.141333,278.12 147.692,278.12 C148.242667,278.12 148.723333,278.323 149.134,278.729 C149.544667,279.135 149.75,279.692667 149.75,280.402 C149.75,281.111334 149.544667,281.671334 149.134,282.082 C148.723333,282.483334 148.245,282.684 147.699,282.684 Z M157.086,284.392 C158.01,284.392 158.791667,284.154 159.431,283.678 C160.070333,283.202 160.502,282.558 160.726,281.746 L160.726,281.746 L158.598,281.746 C158.336667,282.399334 157.832667,282.726 157.086,282.726 C156.516667,282.726 156.071,282.518334 155.749,282.103 C155.427,281.687667 155.266,281.120667 155.266,280.402 C155.266,279.683334 155.427,279.116334 155.749,278.701 C156.071,278.285667 156.516667,278.078 157.086,278.078 C157.842,278.078 158.346,278.4 158.598,279.044 L158.598,279.044 L160.726,279.044 C160.511333,278.204 160.086667,277.555334 159.452,277.098 C158.817333,276.640667 158.028667,276.412 157.086,276.412 C155.956667,276.412 155.037333,276.776 154.328,277.504 C153.618667,278.232 153.264,279.198 153.264,280.402 C153.264,281.606 153.618667,282.572 154.328,283.3 C155.037333,284.028 155.956667,284.392 157.086,284.392 Z M165.486,284.392 C166.400667,284.392 167.18,284.158667 167.824,283.692 C168.468,283.225334 168.902,282.623334 169.126,281.886 L169.126,281.886 L166.998,281.886 C166.671333,282.446 166.167333,282.726 165.486,282.726 C164.982,282.726 164.566667,282.572 164.24,282.264 C163.913333,281.956 163.726667,281.55 163.68,281.046 L163.68,281.046 L169.336,281.046 C169.373333,280.812667 169.392,280.560667 169.392,280.29 C169.392,279.114 169.028,278.173667 168.3,277.469 C167.572,276.764334 166.641,276.412 165.507,276.412 C164.373,276.412 163.449,276.773667 162.735,277.497 C162.021,278.220334 161.664,279.184 161.664,280.388 C161.664,281.592 162.018667,282.560334 162.728,283.293 C163.437333,284.025667 164.356667,284.392 165.486,284.392 Z M167.348,279.772 L163.68,279.772 C163.745333,279.258667 163.943667,278.848 164.275,278.54 C164.606333,278.232 165.019333,278.078 165.514,278.078 C166.008667,278.078 166.431,278.232 166.781,278.54 C167.131,278.848 167.32,279.258667 167.348,279.772 L167.348,279.772 Z" id="Interface" fill="#FFFFFF" fill-rule="nonzero" opacity="0.800000012"></path>
                <path d="M275.327,284.28 L275.327,274.508 L273.353,274.508 L273.353,284.28 L275.327,284.28 Z M279.401,284.28 L279.401,279.996 C279.401,279.389334 279.557333,278.925 279.87,278.603 C280.182667,278.281 280.605,278.12 281.137,278.12 C281.669,278.12 282.089,278.281 282.397,278.603 C282.705,278.925 282.859,279.389334 282.859,279.996 L282.859,279.996 L282.859,284.28 L284.819,284.28 L284.819,279.716 C284.819,278.68 284.539,277.870334 283.979,277.287 C283.419,276.703667 282.695667,276.412 281.809,276.412 C280.698333,276.412 279.895667,276.836667 279.401,277.686 L279.401,277.686 L279.401,276.524 L277.427,276.524 L277.427,284.28 L279.401,284.28 Z M290.797,284.28 L290.797,282.628 L289.859,282.628 C289.560333,282.628 289.350333,282.574334 289.229,282.467 C289.107667,282.359667 289.047,282.18 289.047,281.928 L289.047,281.928 L289.047,278.134 L290.783,278.134 L290.783,276.524 L289.047,276.524 L289.047,274.606 L287.073,274.606 L287.073,276.524 L286.247,276.524 L286.247,278.134 L287.073,278.134 L287.073,281.928 C287.073,282.768 287.287667,283.37 287.717,283.734 C288.146333,284.098 288.757667,284.28 289.551,284.28 L289.551,284.28 L290.797,284.28 Z M295.613,284.392 C296.527667,284.392 297.307,284.158667 297.951,283.692 C298.595,283.225334 299.029,282.623334 299.253,281.886 L299.253,281.886 L297.125,281.886 C296.798333,282.446 296.294333,282.726 295.613,282.726 C295.109,282.726 294.693667,282.572 294.367,282.264 C294.040333,281.956 293.853667,281.55 293.807,281.046 L293.807,281.046 L299.463,281.046 C299.500333,280.812667 299.519,280.560667 299.519,280.29 C299.519,279.114 299.155,278.173667 298.427,277.469 C297.699,276.764334 296.768,276.412 295.634,276.412 C294.5,276.412 293.576,276.773667 292.862,277.497 C292.148,278.220334 291.791,279.184 291.791,280.388 C291.791,281.592 292.145667,282.560334 292.855,283.293 C293.564333,284.025667 294.483667,284.392 295.613,284.392 Z M297.475,279.772 L293.807,279.772 C293.872333,279.258667 294.070667,278.848 294.402,278.54 C294.733333,278.232 295.146333,278.078 295.641,278.078 C296.135667,278.078 296.558,278.232 296.908,278.54 C297.258,278.848 297.447,279.258667 297.475,279.772 L297.475,279.772 Z M303.047,284.28 L303.047,280.388 C303.047,279.669334 303.196333,279.163 303.495,278.869 C303.793667,278.575 304.237,278.428 304.825,278.428 L304.825,278.428 L305.315,278.428 L305.315,276.412 C304.325667,276.412 303.569667,276.906667 303.047,277.896 L303.047,277.896 L303.047,276.524 L301.073,276.524 L301.073,284.28 L303.047,284.28 Z M309.823,284.392 C310.868333,284.392 311.685,283.920667 312.273,282.978 L312.273,282.978 L312.273,284.28 L314.233,284.28 L314.233,276.524 L312.273,276.524 L312.273,277.728 C311.713,276.850667 310.901,276.412 309.837,276.412 C308.773,276.412 307.895667,276.783 307.205,277.525 C306.514333,278.267 306.169,279.221334 306.169,280.388 C306.169,281.554667 306.514333,282.516 307.205,283.272 C307.905,284.018667 308.777667,284.392 309.823,284.392 Z M310.222,282.684 C309.676,282.684 309.197667,282.478667 308.787,282.068 C308.376333,281.657334 308.171,281.097334 308.171,280.388 C308.171,279.678667 308.374,279.123334 308.78,278.722 C309.186,278.320667 309.664333,278.12 310.215,278.12 C310.765667,278.12 311.246333,278.323 311.657,278.729 C312.067667,279.135 312.273,279.692667 312.273,280.402 C312.273,281.111334 312.067667,281.671334 311.657,282.082 C311.246333,282.483334 310.768,282.684 310.222,282.684 Z M319.609,284.392 C320.533,284.392 321.314667,284.154 321.954,283.678 C322.593333,283.202 323.025,282.558 323.249,281.746 L323.249,281.746 L321.121,281.746 C320.859667,282.399334 320.355667,282.726 319.609,282.726 C319.039667,282.726 318.594,282.518334 318.272,282.103 C317.95,281.687667 317.789,281.120667 317.789,280.402 C317.789,279.683334 317.95,279.116334 318.272,278.701 C318.594,278.285667 319.039667,278.078 319.609,278.078 C320.365,278.078 320.869,278.4 321.121,279.044 L321.121,279.044 L323.249,279.044 C323.034333,278.204 322.609667,277.555334 321.975,277.098 C321.340333,276.640667 320.551667,276.412 319.609,276.412 C318.479667,276.412 317.560333,276.776 316.851,277.504 C316.141667,278.232 315.787,279.198 315.787,280.402 C315.787,281.606 316.141667,282.572 316.851,283.3 C317.560333,284.028 318.479667,284.392 319.609,284.392 Z M328.681,284.28 L328.681,282.628 L327.743,282.628 C327.444333,282.628 327.234333,282.574334 327.113,282.467 C326.991667,282.359667 326.931,282.18 326.931,281.928 L326.931,281.928 L326.931,278.134 L328.667,278.134 L328.667,276.524 L326.931,276.524 L326.931,274.606 L324.957,274.606 L324.957,276.524 L324.131,276.524 L324.131,278.134 L324.957,278.134 L324.957,281.928 C324.957,282.768 325.171667,283.37 325.601,283.734 C326.030333,284.098 326.641667,284.28 327.435,284.28 L327.435,284.28 L328.681,284.28 Z M331.208,275.754 C331.539333,275.754 331.821667,275.637334 332.055,275.404 C332.288333,275.170667 332.405,274.886 332.405,274.55 C332.405,274.214 332.288333,273.929334 332.055,273.696 C331.821667,273.462667 331.539333,273.346 331.208,273.346 C330.876667,273.346 330.594333,273.462667 330.361,273.696 C330.127667,273.929334 330.011,274.214 330.011,274.55 C330.011,274.886 330.127667,275.170667 330.361,275.404 C330.594333,275.637334 330.876667,275.754 331.208,275.754 Z M332.195,284.28 L332.195,276.524 L330.221,276.524 L330.221,284.28 L332.195,284.28 Z M337.739,284.392 C338.877667,284.392 339.832,284.023334 340.602,283.286 C341.372,282.548667 341.757,281.582667 341.757,280.388 C341.757,279.193334 341.374333,278.232 340.609,277.504 C339.843667,276.776 338.894,276.412 337.76,276.412 C336.626,276.412 335.676333,276.776 334.911,277.504 C334.145667,278.232 333.763,279.193334 333.763,280.388 C333.763,281.582667 334.141,282.548667 334.897,283.286 C335.653,284.023334 336.600333,284.392 337.739,284.392 Z M337.739,282.726 C337.188333,282.726 336.721667,282.525334 336.339,282.124 C335.956333,281.722667 335.765,281.148667 335.765,280.402 C335.765,279.655334 335.956333,279.081334 336.339,278.68 C336.721667,278.278667 337.190667,278.078 337.746,278.078 C338.301333,278.078 338.775,278.278667 339.167,278.68 C339.559,279.081334 339.755,279.653 339.755,280.395 C339.755,281.137 339.556667,281.711 339.16,282.117 C338.763333,282.523 338.289667,282.726 337.739,282.726 Z M345.299,284.28 L345.299,279.996 C345.299,279.389334 345.455333,278.925 345.768,278.603 C346.080667,278.281 346.503,278.12 347.035,278.12 C347.567,278.12 347.987,278.281 348.295,278.603 C348.603,278.925 348.757,279.389334 348.757,279.996 L348.757,279.996 L348.757,284.28 L350.717,284.28 L350.717,279.716 C350.717,278.68 350.437,277.870334 349.877,277.287 C349.317,276.703667 348.593667,276.412 347.707,276.412 C346.596333,276.412 345.793667,276.836667 345.299,277.686 L345.299,277.686 L345.299,276.524 L343.325,276.524 L343.325,284.28 L345.299,284.28 Z" id="Interaction" fill="#FFFFFF" fill-rule="nonzero" opacity="0.800000012"></path>
            </g>
        </g>
    </g>
</svg>