<?xml version="1.0" encoding="UTF-8"?>
<svg width="90px" height="90px" viewBox="0 0 90 90" version="1.1" xmlns="http://www.w3.org/2000/svg" xmlns:xlink="http://www.w3.org/1999/xlink">
    <!-- Generator: Sketch 55.2 (78181) - https://sketchapp.com -->
    <title>ic-benefits-strategy</title>
    <desc>Created with Sketch.</desc>
    <defs>
        <linearGradient x1="100%" y1="0%" x2="0%" y2="100%" id="linearGradient-1">
            <stop stop-color="#FEA741" offset="0%"></stop>
            <stop stop-color="#FE7957" offset="100%"></stop>
        </linearGradient>
    </defs>
    <g id="Page-1" stroke="none" stroke-width="1" fill="none" fill-rule="evenodd">
        <g id="Design-Discovery-6" transform="translate(-467.000000, -3069.000000)">
            <g id="ic-benefits-strategy" transform="translate(467.000000, 3069.000000)">
                <circle id="Oval" fill="url(#linearGradient-1)" cx="45" cy="45" r="45"></circle>
                <path d="M54.9831351,45.7142857 C55.1751351,45.1594286 55.3584865,44.588 55.5331892,44 L58.3102703,44 C58.1078919,44.5888571 57.9003243,45.1597143 57.6944865,45.7142857 L54.9831351,45.7142857 Z M33.3243243,62 C33.3243243,61.5266131 33.7115375,61.1428571 34.1891892,61.1428571 L56.6756757,61.1428571 C57.1533273,61.1428571 57.5405405,61.5266131 57.5405405,62 L57.5405405,63.7142857 L33.3243243,63.7142857 L33.3243243,62 Z M55.9837838,42.2857143 C56.1161081,41.7294286 56.2311351,41.1585714 56.3297297,40.5714286 L59.3143784,40.5714286 C59.1748469,41.1588571 59.0226307,41.7302857 58.8577297,42.2857143 L55.9837838,42.2857143 Z M52.4257297,57.7142857 L55.4648649,57.7142857 C55.5098378,58.4 55.5738378,58.9845714 55.6378378,59.4285714 L52.5987027,59.4285714 C52.5381622,59.0265714 52.4672432,58.4462857 52.4257297,57.7142857 Z M52.7370811,52.49 C52.8389178,51.9376261 52.9761322,51.3922375 53.1478919,50.8571429 L55.9794595,50.8571429 C55.9241081,51.0971429 55.8618378,51.3397143 55.8229189,51.5728571 C55.764973,51.914 55.7165405,52.2457143 55.6724324,52.5714286 L52.724973,52.5714286 C52.7292973,52.544 52.7370811,52.5182857 52.7370811,52.49 Z M56.5891892,35.8117143 C56.5597838,35.3154286 56.5182703,34.8105714 56.4568649,34.2945714 L59.9094054,33.2857143 C59.9699459,34.0117143 59.9898378,34.7188571 59.9803243,35.4045714 L56.5891892,35.8117143 Z M54.12,48.086 C54.2012973,47.87 54.2834595,47.6497143 54.3656216,47.4285714 L57.0570811,47.4285714 C56.8408649,48.0105714 56.6341622,48.5857143 56.4516757,49.1428571 L53.7282162,49.1428571 C53.8536216,48.7991429 53.9842162,48.4502857 54.12,48.086 Z M52.3997838,56 C52.4118919,55.4694286 52.443027,54.8977143 52.5018378,54.2857143 L55.4968649,54.2857143 C55.4527568,54.8951429 55.4311351,55.4677143 55.4268108,56 L52.3997838,56 Z M59.8877838,37.1428571 C59.8324324,37.728 59.7580541,38.2997143 59.6646486,38.858 L56.5416216,38.858 C56.5788108,38.4251429 56.6056216,37.9845714 56.6177297,37.5354286 L59.8877838,37.1428571 Z M45.5111351,24.3397143 C44.3288985,24.2337544 43.1410513,24.2025484 41.9548108,24.2462857 C41.8944231,22.8181547 41.7121506,21.3976538 41.4099459,20 C43.9742703,20.5228571 45.0735135,22.9048571 45.5111351,24.3397143 Z M30.6743784,39.9268571 L29.3251892,38.144 C29.114883,37.8646647 29.0008661,37.5256682 29,37.1771429 L29,37.1428571 L30.7297297,37.1428571 C31.2073814,37.1428571 31.5945946,36.7591012 31.5945946,36.2857143 C31.5945946,35.8123274 31.2073814,35.4285714 30.7297297,35.4285714 L29.1245405,35.4285714 C29.2547204,35.0969878 29.4887301,34.815499 29.7922162,34.6254286 C33.0458378,32.6102857 36.6998919,28.9382857 37.556973,27.2402857 C37.9349189,26.4877143 39.380973,26.1474286 40.4309189,26.0402857 C40.5433514,26.0325714 40.6505946,26.024 40.7241081,26.0137143 L40.7656216,26.0137143 C40.8339459,26.006 40.8936216,26.006 40.955027,26.006 C41.0041107,26.0067294 41.0531971,26.0047262 41.1020541,26 L41.1081081,26 L41.1124324,26 C41.140973,25.9974286 41.1695135,25.9948571 41.2075676,25.9888571 C42.9333303,25.8783966 44.6658623,25.9358139 46.3803243,26.1602857 C46.3967568,26.1688571 46.4140541,26.1688571 46.4313514,26.1688571 C46.7651892,26.2162857 47.0952793,26.2734286 47.4216216,26.3402857 C47.4856078,26.3629248 47.5520991,26.3778885 47.6196757,26.3848571 C48.5378448,26.5766543 49.4307559,26.8723049 50.2808649,27.266 C50.3087893,27.2822659 50.3376696,27.2968634 50.3673514,27.3097143 C51.0948473,27.6513345 51.7656013,28.1007735 52.3565405,28.6425714 L52.3738378,28.6571429 C53.0656893,29.3105348 53.6049908,30.1059744 53.9539459,30.9877143 C53.9591351,30.9971429 53.9591351,31.0057143 53.9591351,31.0151429 L53.9660541,31.0254286 C54.0808773,31.3130611 54.1770726,31.6076591 54.2540541,31.9074286 C55.8972973,38.4285714 54.011027,43.4514286 52.4957838,47.4894286 C52.2207568,48.2325714 51.9543784,48.9534286 51.7174054,49.6562857 C51.7122162,49.6674286 51.7096216,49.6785714 51.7052973,49.6897143 C51.4161603,50.5105674 51.1909242,51.3521746 51.0315676,52.2071429 C50.6068088,54.5917512 50.5461673,57.0260949 50.8516757,59.4285714 L35.1829189,59.4285714 C35.6983784,56.1834286 37.8985946,45.3928571 44.9645405,39.9302857 C45.2578389,39.8256837 45.5414251,39.6960545 45.8121081,39.5428571 C46.9752512,38.8904741 47.7818194,37.7554427 48.0097297,36.4502857 C48.0853535,35.9944995 47.7829577,35.5612964 47.3259398,35.4707089 C46.8689219,35.3801214 46.4216697,35.6647337 46.3145946,36.1142857 C46.1806745,36.9386686 45.6751423,37.6576996 44.9411892,38.0677143 C42.9347027,39.2231429 39.4683243,38.5622857 37.9184865,38.048 C36.2683243,37.5011429 34.6051892,38.1851429 33.2412973,39.9714286 C32.9349992,40.3558929 32.4659106,40.5775756 31.9716757,40.5714286 C31.4613718,40.5692836 30.9814238,40.3308179 30.6743784,39.9268571 Z M38.5135135,29.4285714 C38.0358619,29.4285714 37.6486486,29.8123274 37.6486486,30.2857143 C37.6486486,30.7591012 38.0358619,31.1428571 38.5135135,31.1428571 L40.2432432,31.1428571 C40.7208949,31.1428571 41.1081081,30.7591012 41.1081081,30.2857143 C41.1081081,29.8123274 40.7208949,29.4285714 40.2432432,29.4285714 L38.5135135,29.4285714 Z M48.6108108,22.3142857 L47.3411892,24.4708571 C47.163818,23.722412 46.9063602,22.9948638 46.5731892,22.3005714 C47.1958919,22.2782857 47.88,22.2757143 48.6108108,22.3142857 Z M55.9318919,31.4925714 C55.9033514,31.3777143 55.8618378,31.2714286 55.828973,31.1565714 L59.3091892,29.6925714 C59.4683243,30.3294286 59.5876757,30.9491429 59.688,31.5602857 L56.1757838,32.5888571 C56.1048649,32.2271429 56.0252973,31.8637143 55.9318919,31.4925714 Z M32.4594595,65.4285714 L60.1351351,65.4285714 C60.6127868,65.4285714 61,65.8123274 61,66.2857143 L61,67.1428571 C61,67.616244 60.6127868,68 60.1351351,68 L30.7297297,68 C30.2520781,68 29.8648649,67.616244 29.8648649,67.1428571 L29.8648649,66.2857143 C29.8648649,65.8123274 30.2520781,65.4285714 30.7297297,65.4285714 L32.4594595,65.4285714 Z M55.1907027,29.5657143 C54.9422837,29.0970907 54.6479664,28.6538147 54.312,28.2422857 L57.6694054,26.24 C58.1024349,26.8037895 58.4640539,27.4180904 58.7461622,28.0691429 L55.1907027,29.5657143 Z M53.0432432,26.9968571 C52.7356782,26.7449943 52.4124465,26.5125362 52.0754595,26.3008571 L54.5835676,23.756 C55.2469063,24.0879651 55.8686677,24.4958949 56.4361081,24.9714286 L53.0432432,26.9968571 Z M52.8633514,23.0497143 L50.4538378,25.4925714 C49.9920852,25.299211 49.5200324,25.1309609 49.0397838,24.9885714 L50.4988108,22.5105714 C51.3002318,22.6275321 52.0909321,22.8078211 52.8633514,23.0497143 Z" id="Combined-Shape" fill="#FFFFFF" fill-rule="nonzero" transform="translate(45.000000, 44.000000) scale(-1, 1) translate(-45.000000, -44.000000) "></path>
            </g>
        </g>
    </g>
</svg>