<?xml version="1.0" encoding="UTF-8"?>
<svg width="90px" height="90px" viewBox="0 0 90 90" version="1.1" xmlns="http://www.w3.org/2000/svg" xmlns:xlink="http://www.w3.org/1999/xlink">
    <!-- Generator: Sketch 55.2 (78181) - https://sketchapp.com -->
    <title>ic-benefits-speed</title>
    <desc>Created with Sketch.</desc>
    <defs>
        <linearGradient x1="100%" y1="0%" x2="0%" y2="100%" id="linearGradient-1">
            <stop stop-color="#899FFC" offset="0%"></stop>
            <stop stop-color="#554FFC" offset="100%"></stop>
        </linearGradient>
    </defs>
    <g id="Page-1" stroke="none" stroke-width="1" fill="none" fill-rule="evenodd">
        <g id="Design-Discovery-6" transform="translate(-759.000000, -3069.000000)">
            <g id="ic-benefits-speed" transform="translate(759.000000, 3069.000000)">
                <circle id="Oval-Copy-2" fill="url(#linearGradient-1)" cx="45" cy="45" r="45"></circle>
                <path d="M34.7415237,37.7287371 C34.7317198,37.8849373 34.660975,38.0306552 34.54474,38.1337298 C33.1419995,39.3821397 31.9778465,40.8536925 31.0848298,42.5076509 C30.9790262,42.7036356 30.7792622,42.8146513 30.5732236,42.8146513 C30.4787141,42.8146513 30.3829497,42.791384 30.2942441,42.742229 L24.1605387,39.3475962 C24.0249313,39.2726328 23.9243826,39.1461322 23.8809318,38.9960466 C23.8374809,38.8460405 23.8548142,38.6845993 23.9288532,38.5472988 C25.279986,36.0449999 27.0401371,33.8192871 29.1606792,31.9320211 C29.2766788,31.8287877 29.4278156,31.7764563 29.582717,31.786462 C29.7369911,31.7965471 29.8809122,31.8681752 29.9828726,31.9856231 L34.5977595,37.3014301 C34.6997199,37.418878 34.7514845,37.5726958 34.7415237,37.7287371 Z M36.8008895,35.7600756 L33.5253708,29.5073855 C33.3747831,29.219523 33.4829396,28.862653 33.7670955,28.7100263 C36.2630089,27.3696593 38.9485688,26.4950339 41.7491871,26.1104497 C42.0671468,26.0670123 42.3614988,26.2929347 42.4047144,26.6156582 L43.3442407,33.6288611 C43.3874563,33.9516641 43.164006,34.2488176 42.8452619,34.2925727 C41.0011111,34.5458916 39.2324894,35.1219342 37.5884164,36.0047388 C37.5015147,36.0514321 37.4081032,36.0735876 37.3160251,36.0735876 C37.1073199,36.0735876 36.9055166,35.9597926 36.8008895,35.7600756 Z M29.2968356,45.2508808 C29.607266,45.3362469 29.7907164,45.6601617 29.7067166,45.9744678 C29.3409139,47.3397696 29.1554243,48.7574823 29.1554243,50.1884564 C29.1554243,50.4298639 29.1613067,50.6762741 29.1734635,50.941584 C29.1806791,51.0977842 29.1261695,51.250649 29.0220914,51.3661911 C28.9181702,51.4817331 28.7728373,51.5508201 28.6185633,51.557967 L21.6357626,51.8845817 C21.6266646,51.8850582 21.6174097,51.885217 21.6083117,51.885217 C21.2988226,51.885217 21.0413332,51.6388862 21.0268234,51.3227536 C21.0087059,50.9292754 21,50.5582704 21,50.1884564 C21,48.0273837 21.281254,45.882193 21.8356835,43.8124421 C21.8762324,43.661483 21.9741929,43.5329971 22.1082317,43.455175 C22.2422705,43.3773529 22.4013288,43.3567856 22.5504263,43.3976025 L29.2968356,45.2508808 Z M55.4101621,28.2888339 C55.7000435,28.4301843 55.8216901,28.7827662 55.6818474,29.076108 L52.6465632,35.4517253 C52.5795046,35.5925992 52.4598188,35.7008355 52.3140153,35.7523728 C52.2515841,35.7743695 52.1866432,35.7854075 52.1218591,35.7854075 C52.0350358,35.7854075 51.9485263,35.7657137 51.8689187,35.7268027 C50.195434,34.9100674 48.4063418,34.4035883 46.551289,34.2216592 C46.2310548,34.1902922 45.9965458,33.9019532 46.0276045,33.5778003 L46.7015631,26.5331509 C46.716465,26.3773478 46.7917589,26.2340916 46.9110526,26.1346699 C47.0303463,26.0353275 47.1829733,25.9872049 47.3376394,26.0029281 C50.15214,26.2791173 52.8681311,27.0480475 55.4101621,28.2888339 Z M65.6776579,38.182726 C65.6398541,38.3344792 65.5441682,38.4647915 65.411698,38.5450754 L59.4116392,42.176351 C59.3180709,42.23305 59.2150908,42.2600495 59.1133656,42.2600495 C58.9150918,42.2600495 58.7219159,42.1574513 58.6127398,41.9727429 C57.6566645,40.3532486 56.4374528,38.9273567 54.9888301,37.7346929 C54.8689089,37.6359065 54.7926739,37.4930473 54.7769092,37.3374824 C54.7609877,37.1819176 54.8069483,37.0263528 54.9043598,36.9049344 L59.3150905,31.4141864 C59.4125019,31.2928474 59.5535995,31.2157399 59.7072461,31.1996197 C59.8615201,31.1839758 60.0145392,31.2301926 60.1344603,31.3288203 C62.323865,33.131673 64.1670746,35.2875047 65.612717,37.7361223 C65.6920892,37.8704846 65.7153049,38.0309729 65.6776579,38.182726 Z M67.9052585,42.9157406 C68.6316875,45.262713 68.9998431,47.7095041 69,50.1882182 C69,50.5580321 68.9911373,50.9290372 68.9731766,51.3225154 C68.9585884,51.6385685 68.7010206,51.8849788 68.3916883,51.8849788 C68.3825903,51.8849788 68.3734922,51.8847405 68.3642374,51.8843435 L61.3814367,51.5577288 C61.2271627,51.5505819 61.0819867,51.4815743 60.9779086,51.3659528 C60.873752,51.2504108 60.8193209,51.0975459 60.8265365,50.9413458 C60.8386149,50.6761153 60.8445757,50.429705 60.8445757,50.1882182 C60.8445757,48.5479978 60.6018314,46.9317593 60.1230878,45.3843696 C60.0269313,45.073637 60.1977543,44.7427341 60.5048121,44.645377 L67.1752216,42.5292505 C67.4819657,42.4316552 67.8089451,42.6048492 67.9052585,42.9157406 Z M44.9792942,48.9363143 C46.438662,48.9363143 47.8108143,49.5117216 48.8427325,50.5565233 C49.8746507,51.6013251 50.4429626,52.99045 50.4429626,54.4681175 C50.4429626,55.9457849 49.8747292,57.3349099 48.8427325,58.3797116 C47.8108143,59.4244339 46.4388188,60 44.9793726,60 C43.5199264,60 42.1478525,59.4245927 41.1158558,58.3797116 C40.0839376,57.3349099 39.5156258,55.9457849 39.5156258,54.4681175 C39.5156258,54.2759445 39.5257434,54.0854391 39.5447237,53.8967601 L34.3827798,44.1010986 C34.256192,43.8611206 34.3027801,43.5650789 34.4969755,43.376797 C34.6910141,43.1883563 34.9850523,43.153654 35.2166594,43.292225 L44.6793736,48.9450495 C44.7789027,48.9396496 44.8788239,48.9363143 44.9792942,48.9363143 Z" id="Combined-Shape" fill="#FFFFFF" fill-rule="nonzero"></path>
            </g>
        </g>
    </g>
</svg>