<?xml version="1.0" encoding="UTF-8"?>
<svg width="90px" height="90px" viewBox="0 0 90 90" version="1.1" xmlns="http://www.w3.org/2000/svg" xmlns:xlink="http://www.w3.org/1999/xlink">
    <!-- Generator: Sketch 55.2 (78181) - https://sketchapp.com -->
    <title>ic-benefits-cost-effective</title>
    <desc>Created with Sketch.</desc>
    <defs>
        <linearGradient x1="100%" y1="0%" x2="0%" y2="100%" id="linearGradient-1">
            <stop stop-color="#05D8FF" offset="0%"></stop>
            <stop stop-color="#0E85E9" offset="100%"></stop>
        </linearGradient>
    </defs>
    <g id="Page-1" stroke="none" stroke-width="1" fill="none" fill-rule="evenodd">
        <g id="Design-Discovery-6" transform="translate(-1344.000000, -3069.000000)">
            <g id="ic-benefits-cost-effective" transform="translate(1344.000000, 3069.000000)">
                <circle id="Oval-Copy-4" fill="url(#linearGradient-1)" cx="45" cy="45" r="45"></circle>
                <path d="M36.0447471,45.17 C29.3942121,45.17 24,39.75 24,33.08 C24,26.41 29.3942121,21 36.0447471,21 C42.6952821,21 48.0894942,26.42 48.0894942,33.09 C48.0894942,39.76 42.6952821,45.17 36.0447471,45.17 Z M31.8370623,37.86 C31.6974708,38.39 31.7473249,38.52 32.2358949,38.75 C32.8839981,39.07 33.5719844,39.23 34.2799125,39.34 C34.8382782,39.43 34.848249,39.46 34.8582198,40.03 C34.8681907,40.29 34.8681907,40.55 34.8681907,40.81 C34.8681907,41.14 35.0277237,41.33 35.3667315,41.34 C35.7456226,41.35 36.1344844,41.35 36.5133755,41.34 C36.8324416,41.33 36.9919747,41.16 36.9919747,40.84 C36.9919747,40.48 37.0119163,40.13 36.9919747,39.77 C36.9720331,39.41 37.1315661,39.23 37.4805447,39.13 C38.2881809,38.91 38.9661965,38.48 39.4946498,37.84 C40.9503891,36.07 40.3920233,33.47 38.3280642,32.32 C37.6699903,31.96 36.9820039,31.68 36.3039883,31.4 C35.9051556,31.24 35.5262646,31.05 35.1972276,30.78 C34.5391537,30.25 34.6687743,29.4 35.4365272,29.06 C35.6558852,28.96 35.8752432,28.93 36.1145428,28.92 C37.0119163,28.87 37.8594358,29.04 38.667072,29.43 C39.0659047,29.62 39.1955253,29.56 39.3351167,29.14 C39.484679,28.7 39.6043288,28.25 39.7339494,27.8 C39.813716,27.5 39.7140078,27.3 39.4248541,27.17 C38.9063716,26.94 38.3779183,26.78 37.8195525,26.69 C37.0916829,26.58 37.0916829,26.57 37.0916829,25.84 C37.0916829,24.8 37.0916829,24.8 36.0547179,24.8 C35.9051556,24.8 35.7555934,24.8 35.6060311,24.8 C35.1274319,24.82 35.0376946,24.9 35.0277237,25.39 C35.0277237,25.61 35.0277237,25.83 35.0277237,26.05 C35.0177529,26.7 35.0177529,26.69 34.3995623,26.92 C32.9039397,27.46 31.9766537,28.49 31.8769455,30.13 C31.7872082,31.58 32.5449903,32.57 33.7315175,33.28 C34.469358,33.72 35.2769942,33.98 36.0547179,34.32 C36.3538424,34.45 36.6429961,34.61 36.9022374,34.82 C37.6500486,35.44 37.5104572,36.47 36.6230545,36.86 C36.1544261,37.07 35.6459144,37.12 35.1374027,37.06 C34.3397374,36.96 33.5819553,36.75 32.8640564,36.38 C32.4452821,36.16 32.3156615,36.21 32.17607,36.67 C32.0564202,37.07 31.9467412,37.46 31.8370623,37.86 Z M63.0656615,46.18 C64.1225681,46.18 64.9800584,47.04 65,48.1 L65,52.83 C65,53.89 64.1425097,54.75 63.0856031,54.75 L61.7594844,54.75 C60.9319066,57.45 59.3266051,59.87 57.1529669,61.81 C57.1330253,61.83 57.1130837,61.84 57.093142,61.86 C57.0233463,61.92 56.9535506,61.98 56.8837549,62.04 C54.9294747,63.81 54.75,65.88 54.7400292,66.4 L54.7400292,67.96 C54.7400292,68.54 54.2714008,69 53.7030642,69 L47.3815661,69 C46.8032588,69 46.3446012,68.53 46.3446012,67.96 L46.3446012,66.47 C45.6167315,66.55 44.8888619,66.59 44.1410506,66.59 C43.193823,66.59 42.2565661,66.52 41.339251,66.4 L41.339251,67.96 C41.339251,68.54 40.8706226,69 40.302286,69 L34.0007296,69 C33.4523346,69 33.0036479,68.57 32.9637646,68.03 C32.9637646,68.03 32.9637646,68.03 32.9637646,68.02 C32.9637646,68 32.9637646,67.98 32.9637646,67.96 L32.9637646,67.49 C32.9139105,66.39 32.5749027,63.85 30.5907101,61.8 C29.2147374,60.39 28.2176556,58.65 27.5296693,57.16 C27.0111868,56.15 26.6023833,55.08 26.3331712,53.97 C26.3232004,53.94 26.3232004,53.92 26.3232004,53.92 C26.0639591,52.85 25.9243677,51.74 25.9243677,50.6 C25.9243677,48.49 26.3830253,46.48 27.2305447,44.64 C29.6733949,46.52 32.724465,47.64 36.0447471,47.64 C42.8747568,47.64 48.6079767,42.89 50.1434825,36.51 C50.3628405,35.6 50.8613813,34.78 51.5593385,34.17 C52.5763619,33.28 54.0520428,32.49 56.1957685,32.22 C57.1529669,32.1 57.8110409,33.15 57.3025292,33.97 C56.5746595,35.14 55.9464981,36.77 56.4550097,38.56 C56.4749514,38.65 56.494893,38.75 56.494893,38.84 C58.9178016,40.8 60.7324903,43.33 61.6597763,46.18 L63.0656615,46.18 Z M55.1787451,46.52 C56.0462062,46.52 56.7441634,45.82 56.7441634,44.95 C56.7441634,44.08 56.0462062,43.38 55.1787451,43.38 C54.311284,43.38 53.6133268,44.08 53.6133268,44.95 C53.6133268,45.82 54.311284,46.52 55.1787451,46.52 Z" id="Combined-Shape" fill="#FFFFFF" fill-rule="nonzero"></path>
            </g>
        </g>
    </g>
</svg>