<?xml version="1.0" encoding="UTF-8"?>
<svg width="646px" height="201px" viewBox="0 0 646 201" version="1.1" xmlns="http://www.w3.org/2000/svg" xmlns:xlink="http://www.w3.org/1999/xlink">
    <!-- Generator: Sketch 55.2 (78181) - https://sketchapp.com -->
    <title>img-arrow-left-right</title>
    <desc>Created with Sketch.</desc>
    <g id="Page-1" stroke="none" stroke-width="1" fill="none" fill-rule="evenodd" opacity="0.400000006">
        <g id="Design-Discovery-6" transform="translate(-629.000000, -6488.000000)" fill="#8C8C90" fill-rule="nonzero">
            <path id="img-arrow-left-right" d="M1269.31132,6679.51248 C1269.31114,6679.50851 1269.31095,6679.50454 1269.31077,6679.50058 L1270.30974,6679.45508 C1270.31029,6679.46728 1270.31085,6679.47949 1270.3114,6679.49169 L1274.32241,6679.40833 L1270.01039,6688.49989 L1265.32435,6679.59534 L1269.31132,6679.51248 Z M629.5,6488 L630.5,6488 C630.5,6488.66767 630.503352,6489.33197 630.510055,6489.99291 L629.510106,6490.00305 C629.503369,6489.33872 629.5,6488.67104 629.5,6488 Z M629.541045,6492.01602 L630.540831,6491.99537 C630.554628,6492.66346 630.571921,6493.32804 630.59271,6493.98911 L629.593204,6494.02054 C629.572302,6493.35587 629.554915,6492.68769 629.541045,6492.01602 Z M629.666932,6496.01517 L630.666029,6495.97267 C630.694374,6496.63902 630.726348,6497.30173 630.761951,6497.9608 L629.763407,6498.01474 C629.727597,6497.35185 629.695439,6496.68533 629.666932,6496.01517 Z M629.883739,6500.02207 L630.881572,6499.95627 C630.925477,6500.62214 630.973172,6501.28419 631.024654,6501.94244 L630.027699,6502.02042 C629.975898,6501.3581 629.927911,6500.69198 629.883739,6500.02207 Z M630.197689,6504.03059 L631.193575,6503.93997 C631.254192,6504.60614 631.318782,6505.26831 631.387345,6505.9265 L630.392727,6506.03011 C630.323712,6505.36758 630.258699,6504.70108 630.197689,6504.03059 Z M630.613868,6508.02349 L631.607002,6507.90651 C631.685178,6508.5702 631.767492,6509.22972 631.853946,6509.88509 L630.862536,6510.01587 C630.775473,6509.3559 630.692584,6508.69177 630.613868,6508.02349 Z M631.139545,6512.00588 L632.128973,6511.86085 C632.225928,6512.52232 632.327211,6513.17944 632.43282,6513.83221 L631.445656,6513.99192 C631.339254,6513.33425 631.237217,6512.67224 631.139545,6512.00588 Z M631.781383,6515.9712 L632.765982,6515.79637 C632.882496,6516.45256 633.003501,6517.10423 633.128998,6517.75139 L632.147287,6517.94176 C632.020784,6517.28942 631.898816,6516.63257 631.781383,6515.9712 Z M632.5462,6519.91276 L633.52466,6519.70632 C633.662529,6520.35978 633.805109,6521.0085 633.952401,6521.65248 L632.977574,6521.87545 C632.829021,6521.22595 632.68523,6520.57172 632.5462,6519.91276 Z M633.445829,6523.84337 L634.416584,6523.6033 C634.576598,6524.25032 634.741512,6524.89242 634.911327,6525.52958 L633.945056,6525.78711 C633.77369,6525.14413 633.607281,6524.49621 633.445829,6523.84337 Z M634.483739,6527.73518 L635.445016,6527.4596 C635.629095,6528.10169 635.81831,6528.73862 636.012661,6529.37038 L635.056866,6529.66441 C634.860624,6529.0265 634.669581,6528.38343 634.483739,6527.73518 Z M635.658128,6531.5533 L636.607991,6531.24064 C636.816553,6531.87424 637.030453,6532.50247 637.249691,6533.12533 L636.306418,6533.45735 C636.084912,6532.82804 635.868815,6532.19336 635.658128,6531.5533 Z M636.993756,6535.34667 L637.929831,6534.99487 C638.164062,6535.61812 638.403828,6536.2358 638.649128,6536.84791 L637.72089,6537.21989 C637.472898,6536.60107 637.23052,6535.97666 636.993756,6535.34667 Z M638.493716,6539.08777 L639.413386,6538.69507 C639.67511,6539.30802 639.942594,6539.91518 640.215837,6540.51654 L639.305413,6540.93021 C639.029,6540.32188 638.758434,6539.70773 638.493716,6539.08777 Z M640.162744,6542.75961 L641.063145,6542.32455 C641.352315,6542.92302 641.647419,6543.51552 641.948456,6544.10205 L641.058793,6544.55867 C640.754082,6543.96498 640.455399,6543.3653 640.162744,6542.75961 Z M642.004415,6546.34637 L642.882477,6545.86782 C643.200519,6546.45138 643.524685,6547.02878 643.854975,6547.60003 L642.989264,6548.10057 C642.654757,6547.52203 642.326474,6546.93729 642.004415,6546.34637 Z M644.025747,6549.84093 L644.878193,6549.31812 C645.225397,6549.88423 645.578888,6550.44403 645.938665,6550.99751 L645.10023,6551.54251 C644.735679,6550.98168 644.377518,6550.41449 644.025747,6549.84093 Z M646.228828,6553.22881 L647.052299,6552.66145 C647.428595,6553.20761 647.811307,6553.74733 648.200436,6554.28062 L647.392627,6554.87006 C646.998172,6554.32948 646.610239,6553.78239 646.228828,6553.22881 Z M648.609068,6556.4898 L649.400297,6555.87828 C649.806197,6556.40346 650.218637,6556.92209 650.637617,6557.43416 L649.863669,6558.06741 C649.438823,6557.54817 649.020623,6557.0223 648.609068,6556.4898 Z M651.17624,6559.62613 L651.931957,6558.97124 C652.365591,6559.47163 652.805809,6559.96542 653.252614,6560.45263 L652.515612,6561.12852 C652.062468,6560.6344 651.61601,6560.13361 651.17624,6559.62613 Z M653.850695,6562.54502 L654.568975,6561.84927 C655.029951,6562.32517 655.497556,6562.79444 655.971792,6563.25708 L655.27349,6563.97288 C654.792501,6563.50365 654.318236,6563.0277 653.850695,6562.54502 Z M656.738077,6565.36173 L657.415835,6564.62645 C657.902393,6565.07494 658.395559,6565.51683 658.895333,6565.95212 L658.238549,6566.7062 C657.731698,6566.26474 657.23154,6565.81659 656.738077,6565.36173 Z M659.780107,6568.01122 L660.415467,6567.239 C660.926286,6567.65929 661.443662,6568.07304 661.967594,6568.48025 L661.353931,6569.26982 C660.822693,6568.85693 660.298084,6568.4374 659.780107,6568.01122 Z M662.961348,6570.48399 L663.553078,6569.67785 C664.085327,6570.06854 664.624021,6570.45281 665.16916,6570.83065 L664.599505,6571.65253 C664.046945,6571.26955 663.500893,6570.88003 662.961348,6570.48399 Z M666.278471,6572.78305 L666.825829,6571.94615 C667.378083,6572.30734 667.936652,6572.66224 668.501538,6573.01085 L667.976359,6573.86185 C667.40403,6573.50864 666.838067,6573.14904 666.278471,6572.78305 Z M669.71264,6574.9024 L670.215554,6574.03806 C670.785758,6574.36983 671.362121,6574.69548 671.944646,6575.01499 L671.46374,6575.89176 C670.87384,6575.5682 670.29014,6575.23842 669.71264,6574.9024 Z M673.250486,6576.84294 L673.709421,6575.95447 C674.295741,6576.25733 674.888048,6576.55424 675.486344,6576.84519 L675.049015,6577.74449 C674.443488,6577.45002 673.843979,6577.14951 673.250486,6576.84294 Z M676.877413,6578.60689 L677.293311,6577.69748 C677.893085,6577.97177 678.498645,6578.24031 679.109992,6578.5031 L678.715082,6579.42182 C678.096719,6579.15602 677.484162,6578.88438 676.877413,6578.60689 Z M680.586399,6580.20123 L680.960507,6579.27384 C681.572617,6579.52077 682.190315,6579.76214 682.813603,6579.99795 L682.459744,6580.93325 C681.829694,6580.69488 681.205246,6580.45087 680.586399,6580.20123 Z M684.361508,6581.62962 L684.695398,6580.68701 C685.317376,6580.90732 685.944726,6581.1223 686.57745,6581.33193 L686.262942,6582.28119 C685.623751,6582.06941 684.98994,6581.85222 684.361508,6581.62962 Z M688.18571,6582.8969 L688.481204,6581.94156 C689.11208,6582.13669 689.748121,6582.32669 690.389329,6582.51155 L690.112308,6583.47241 C689.464941,6583.28578 688.822741,6583.09394 688.18571,6582.8969 Z M692.060282,6584.01415 L692.319204,6583.04826 C692.95697,6583.21922 693.599687,6583.38526 694.247356,6583.54637 L694.005949,6584.5168 C693.352444,6584.35423 692.703889,6584.18668 692.060282,6584.01415 Z M695.967957,6584.9865 L696.192261,6584.01198 C696.835918,6584.16013 697.484319,6584.30356 698.137466,6584.44227 L697.929721,6585.42046 C697.271059,6585.28057 696.617138,6585.13592 695.967957,6584.9865 Z M699.910984,6585.82407 L700.102541,6584.84258 C700.750688,6584.96908 701.403374,6585.09107 702.060601,6585.20854 L701.884654,6586.19294 C701.222231,6586.07454 700.564341,6585.95158 699.910984,6585.82407 Z M703.871864,6586.53223 L704.032599,6585.54524 C704.684595,6585.65142 705.340939,6585.75327 706.00163,6585.8508 L705.855595,6586.84008 C705.190012,6586.74183 704.528768,6586.63921 703.871864,6586.53223 Z M707.864589,6587.12164 L707.996216,6586.13034 C708.651382,6586.21734 709.310712,6586.30019 709.974206,6586.3789 L709.856405,6587.37193 C709.188311,6587.29268 708.524372,6587.20925 707.864589,6587.12164 Z M711.861163,6587.59591 L711.96549,6586.60136 C712.622908,6586.67033 713.284314,6586.73532 713.949707,6586.79635 L713.858377,6587.79217 C713.18866,6587.73075 712.522922,6587.66533 711.861163,6587.59591 Z M715.865635,6587.96335 L715.944314,6586.96645 C716.603414,6587.01847 717.266334,6587.06668 717.933075,6587.11109 L717.866612,6588.10888 C717.195808,6588.0642 716.528815,6588.01569 715.865635,6587.96335 Z M719.883269,6588.23105 L719.937805,6587.23254 C720.59817,6587.26861 721.262199,6587.30103 721.92989,6587.3298 L721.886839,6588.32887 C721.215328,6588.29994 720.547471,6588.26733 719.883269,6588.23105 Z M723.718918,6588.39842 L723.751776,6587.39896 C724.41286,6587.42069 725.077463,6587.43892 725.745587,6587.45364 L725.723558,6588.4534 C725.051833,6588.4386 724.38362,6588.42027 723.718918,6588.39842 Z M727.730589,6588.48701 L727.742103,6587.48708 C728.403699,6587.49469 729.068675,6587.49894 729.737031,6587.49983 L729.735711,6588.49983 C729.063965,6588.49894 728.395591,6588.49467 727.730589,6588.48701 Z M731.741574,6588.5 L731.741574,6587.5 L733.743428,6587.5 L733.743428,6588.5 L731.741574,6588.5 Z M735.754254,6588.5 L735.754254,6587.5 L737.751972,6587.5 L737.751972,6588.5 L735.754254,6588.5 Z M739.740958,6588.5 L739.740958,6587.5 L741.734283,6587.5 L741.734283,6588.5 L739.740958,6588.5 Z M743.72923,6588.5 L743.72923,6587.5 L745.71771,6587.5 L745.71771,6588.5 L743.72923,6588.5 Z M747.745949,6588.5 L747.745949,6587.5 L749.754489,6587.5 L749.754489,6588.5 L747.745949,6588.5 Z M751.737771,6588.5 L751.737771,6587.5 L753.740216,6587.5 L753.740216,6588.5 L751.737771,6588.5 Z M755.731791,6588.5 L755.731791,6587.5 L757.727745,6587.5 L757.727745,6588.5 L755.731791,6588.5 Z M759.754485,6588.5 L759.754485,6587.5 L761.743359,6587.5 L761.743359,6588.5 L759.754485,6588.5 Z M763.753557,6588.5 L763.753557,6587.5 L765.759178,6587.5 L765.759178,6588.5 L763.753557,6588.5 Z M767.729777,6588.5 L767.729777,6587.5 L769.727639,6587.5 L769.727639,6588.5 L767.729777,6588.5 Z M771.73546,6588.5 L771.73546,6587.5 L773.725023,6587.5 L773.725023,6588.5 L771.73546,6588.5 Z M775.744911,6588.5 L775.744911,6587.5 L777.748731,6587.5 L777.748731,6588.5 L775.744911,6588.5 Z M779.73303,6588.5 L779.73303,6587.5 L781.727775,6587.5 L781.727775,6588.5 L779.73303,6588.5 Z M783.75137,6588.5 L783.75137,6587.5 L785.758704,6587.5 L785.758704,6588.5 L783.75137,6588.5 Z M787.74951,6588.5 L787.74951,6587.5 L789.74686,6587.5 L789.74686,6588.5 L787.74951,6588.5 Z M791.75342,6588.5 L791.75342,6587.5 L793.761987,6587.5 L793.761987,6588.5 L791.75342,6588.5 Z M795.738596,6588.5 L795.738596,6587.5 L797.736536,6587.5 L797.736536,6588.5 L795.738596,6588.5 Z M799.730797,6588.5 L799.730797,6587.5 L801.738663,6587.5 L801.738663,6588.5 L799.730797,6588.5 Z M803.730572,6588.5 L803.730572,6587.5 L805.727029,6587.5 L805.727029,6588.5 L803.730572,6588.5 Z M807.738501,6588.5 L807.738501,6587.5 L809.743472,6587.5 L809.743472,6588.5 L807.738501,6588.5 Z M811.7306,6588.5 L811.7306,6587.5 L813.723631,6587.5 L813.723631,6588.5 L811.7306,6588.5 Z M815.732288,6588.5 L815.732288,6587.5 L817.732691,6587.5 L817.732691,6588.5 L815.732288,6588.5 Z M819.744226,6588.5 L819.744226,6587.5 L821.7512,6587.5 L821.7512,6588.5 L819.744226,6588.5 Z M823.742765,6588.5 L823.742765,6587.5 L825.736839,6587.5 L825.736839,6588.5 L823.742765,6588.5 Z M827.753121,6588.5 L827.753121,6587.5 L829.752719,6587.5 L829.752719,6588.5 L827.753121,6588.5 Z M831.751838,6588.5 L831.751838,6587.5 L833.756404,6587.5 L833.756404,6588.5 L831.751838,6588.5 Z M835.739881,6588.5 L835.739881,6587.5 L837.748875,6587.5 L837.748875,6588.5 L835.739881,6588.5 Z M839.742297,6588.5 L839.742297,6587.5 L841.737277,6587.5 L841.737277,6588.5 L839.742297,6588.5 Z M843.735868,6588.5 L843.735868,6587.5 L845.734323,6587.5 L845.734323,6588.5 L843.735868,6588.5 Z M847.745564,6588.5 L847.745564,6587.5 L849.746796,6587.5 L849.746796,6588.5 L847.745564,6588.5 Z M851.748301,6588.5 L851.748301,6587.5 L853.751815,6587.5 L853.751815,6588.5 L851.748301,6588.5 Z M855.745081,6588.5 L855.745081,6587.5 L857.750387,6587.5 L857.750387,6588.5 L855.745081,6588.5 Z M859.736904,6588.5 L859.736904,6587.5 L861.743521,6587.5 L861.743521,6588.5 L859.736904,6588.5 Z M863.748638,6588.5 L863.748638,6587.5 L865.755902,6587.5 L865.755902,6588.5 L863.748638,6588.5 Z M867.73353,6588.5 L867.73353,6587.5 L869.74116,6587.5 L869.74116,6588.5 L867.73353,6588.5 Z M871.740318,6588.5 L871.740318,6587.5 L873.747654,6587.5 L873.747654,6588.5 L871.740318,6588.5 Z M875.746149,6588.5 L875.746149,6587.5 L877.752724,6587.5 L877.752724,6588.5 L875.746149,6588.5 Z M879.752043,6588.5 L879.752043,6587.5 L881.757388,6587.5 L881.757388,6588.5 L879.752043,6588.5 Z M883.73516,6588.5 L883.73516,6587.5 L885.738994,6587.5 L885.738994,6588.5 L883.73516,6588.5 Z M887.744217,6588.5 L887.744217,6587.5 L889.745876,6587.5 L889.745876,6588.5 L887.744217,6588.5 Z M891.732491,6588.5 L891.732491,6587.5 L893.731687,6587.5 L893.731687,6588.5 L891.732491,6588.5 Z M895.74876,6588.5 L895.74876,6587.5 L897.744817,6587.5 L897.744817,6588.5 L895.74876,6588.5 Z M899.746216,6588.5 L899.746216,6587.5 L901.75282,6587.5 L901.75282,6588.5 L899.746216,6588.5 Z M903.749752,6588.5 L903.749752,6587.5 L905.752193,6587.5 L905.752193,6588.5 L903.749752,6588.5 Z M907.73633,6588.5 L907.73633,6587.5 L909.734289,6587.5 L909.734289,6588.5 L907.73633,6588.5 Z M911.730886,6588.5 L911.730886,6587.5 L913.73718,6587.5 L913.73718,6588.5 L911.730886,6588.5 Z M915.734403,6588.5 L915.734403,6587.5 L917.734947,6587.5 L917.734947,6588.5 L915.734403,6588.5 Z M919.747863,6588.5 L919.747863,6587.5 L921.74211,6587.5 L921.74211,6588.5 L919.747863,6588.5 Z M923.747971,6588.5 L923.747971,6587.5 L925.748261,6587.5 L925.748261,6588.5 L923.747971,6588.5 Z M927.735486,6588.5 L927.735486,6587.5 L929.741029,6587.5 L929.741029,6588.5 L927.735486,6588.5 Z M931.735564,6588.5 L931.735564,6587.5 L933.733058,6587.5 L933.733058,6588.5 L931.735564,6588.5 Z M935.749154,6588.5 L935.749154,6587.5 L937.750085,6587.5 L937.750085,6588.5 L935.749154,6588.5 Z M939.752595,6588.5 L939.752595,6587.5 L941.756133,6587.5 L941.756133,6588.5 L939.752595,6588.5 Z M943.746547,6588.5 L943.746547,6587.5 L945.751849,6587.5 L945.751849,6588.5 L943.746547,6588.5 Z M947.731635,6588.5 L947.731635,6587.5 L949.726336,6587.5 L949.726336,6588.5 L947.731635,6588.5 Z M951.733363,6588.5 L951.733363,6587.5 L953.728083,6587.5 L953.728083,6588.5 L951.733363,6588.5 Z M955.752626,6588.5 L955.752626,6587.5 L957.757374,6587.5 L957.757374,6588.5 L955.752626,6588.5 Z M959.740048,6588.5 L959.740048,6587.5 L961.742817,6587.5 L961.742817,6588.5 L959.740048,6588.5 Z M963.746309,6588.5 L963.746309,6587.5 L965.745948,6587.5 L965.745948,6588.5 L963.746309,6588.5 Z M967.74689,6588.5 L967.74689,6587.5 L969.742448,6587.5 L969.742448,6588.5 L967.74689,6588.5 Z M971.742261,6588.5 L971.742261,6587.5 L973.743119,6587.5 L973.743119,6588.5 L971.742261,6588.5 Z M975.732861,6588.5 L975.732861,6587.5 L977.737651,6587.5 L977.737651,6588.5 L975.732861,6588.5 Z M979.744889,6588.5 L979.744889,6587.5 L981.742001,6587.5 L981.742001,6588.5 L979.744889,6588.5 Z M983.753228,6588.5 L983.753228,6587.5 L985.751406,6587.5 L985.751406,6588.5 L983.753228,6588.5 Z M987.732163,6588.5 L987.732163,6587.5 L989.730222,6587.5 L989.730222,6588.5 L987.732163,6588.5 Z M991.734043,6588.5 L991.734043,6587.5 L993.730267,6587.5 L993.730267,6588.5 L991.734043,6588.5 Z M995.733248,6588.5 L995.733248,6587.5 L997.735368,6587.5 L997.735368,6588.5 L995.733248,6588.5 Z M999.730062,6588.5 L999.730062,6587.5 L1001.72716,6587.5 L1001.72716,6588.5 L999.730062,6588.5 Z M1003.75146,6588.5 L1003.75146,6587.5 L1005.75055,6587.5 L1005.75055,6588.5 L1003.75146,6588.5 Z M1007.74441,6588.5 L1007.74441,6587.5 L1009.74383,6587.5 L1009.74383,6588.5 L1007.74441,6588.5 Z M1011.73567,6588.5 L1011.73567,6587.5 L1013.73346,6587.5 L1013.73346,6588.5 L1011.73567,6588.5 Z M1015.75265,6588.5 L1015.75265,6587.5 L1017.75476,6587.5 L1017.75476,6588.5 L1015.75265,6588.5 Z M1019.74123,6588.5 L1019.74123,6587.5 L1021.73749,6587.5 L1021.73749,6588.5 L1019.74123,6588.5 Z M1023.75618,6588.5 L1023.75618,6587.5 L1025.75999,6587.5 L1025.75999,6588.5 L1023.75618,6588.5 Z M1027.74263,6588.5 L1027.74263,6587.5 L1029.74375,6587.5 L1029.74375,6588.5 L1027.74263,6588.5 Z M1031.75603,6588.5 L1031.75603,6587.5 L1033.75911,6587.5 L1033.75911,6588.5 L1031.75603,6588.5 Z M1035.7407,6588.5 L1035.7407,6587.5 L1037.74317,6587.5 L1037.74317,6588.5 L1035.7407,6588.5 Z M1039.75282,6588.5 L1039.75282,6587.5 L1041.75134,6587.5 L1041.75134,6588.5 L1039.75282,6588.5 Z M1043.7359,6588.5 L1043.7359,6587.5 L1045.73477,6587.5 L1045.73477,6588.5 L1043.7359,6588.5 Z M1047.74685,6588.5 L1047.74685,6587.5 L1049.74895,6587.5 L1049.74895,6588.5 L1047.74685,6588.5 Z M1051.72834,6588.5 L1051.72834,6587.5 L1053.73022,6587.5 L1053.73022,6588.5 L1051.72834,6588.5 Z M1055.73804,6588.5 L1055.73804,6587.5 L1057.73535,6587.5 L1057.73535,6588.5 L1055.73804,6588.5 Z M1059.74715,6588.5 L1059.74715,6587.5 L1061.74815,6587.5 L1061.74815,6588.5 L1059.74715,6588.5 Z M1063.75559,6588.5 L1063.75559,6587.5 L1065.75544,6587.5 L1065.75544,6588.5 L1063.75559,6588.5 Z M1067.73348,6588.5 L1067.73348,6587.5 L1069.73354,6587.5 L1069.73354,6588.5 L1067.73348,6588.5 Z M1071.74006,6588.5 L1071.74006,6587.5 L1073.73999,6587.5 L1073.73999,6588.5 L1071.74006,6588.5 Z M1075.74564,6588.5 L1075.74564,6587.5 L1077.74492,6587.5 L1077.74492,6588.5 L1075.74564,6588.5 Z M1079.75006,6588.5 L1079.75006,6587.5 L1081.75259,6587.5 L1081.75259,6588.5 L1079.75006,6588.5 Z M1083.75316,6588.5 L1083.75316,6587.5 L1085.75174,6587.5 L1085.75174,6588.5 L1083.75316,6588.5 Z M1087.75474,6588.5 L1087.75474,6587.5 L1089.75613,6587.5 L1089.75613,6588.5 L1087.75474,6588.5 Z M1091.75461,6588.5 L1091.75461,6587.5 L1093.75467,6587.5 L1093.75467,6588.5 L1091.75461,6588.5 Z M1095.75255,6588.5 L1095.75255,6587.5 L1097.75065,6587.5 L1097.75065,6588.5 L1095.75255,6588.5 Z M1099.74833,6588.5 L1099.74833,6587.5 L1101.74651,6587.5 L1101.74651,6588.5 L1099.74833,6588.5 Z M1103.74169,6588.5 L1103.74169,6587.5 L1105.73996,6587.5 L1105.73996,6588.5 L1103.74169,6588.5 Z M1107.73238,6588.5 L1107.73238,6587.5 L1109.73228,6587.5 L1109.73228,6588.5 L1107.73238,6588.5 Z M1111.75239,6588.5 L1111.75239,6587.5 L1113.75165,6587.5 L1113.75165,6588.5 L1111.75239,6588.5 Z M1115.7371,6588.5 L1115.7371,6587.5 L1117.73589,6587.5 L1117.73589,6588.5 L1115.7371,6588.5 Z M1119.75101,6588.5 L1119.75101,6587.5 L1121.74966,6587.5 L1121.74966,6588.5 L1119.75101,6588.5 Z M1123.72854,6588.5 L1123.72854,6587.5 L1125.72761,6587.5 L1125.72761,6588.5 L1123.72854,6588.5 Z M1127.73508,6588.5 L1127.73508,6587.5 L1129.73439,6587.5 L1129.73439,6588.5 L1127.73508,6588.5 Z M1131.73754,6588.5 L1131.73754,6587.5 L1133.73721,6587.5 L1133.73721,6588.5 L1131.73754,6588.5 Z M1135.73558,6588.5 L1135.73558,6587.5 L1137.73596,6587.5 L1137.73596,6588.5 L1135.73558,6588.5 Z M1139.72882,6588.5 L1139.72882,6587.5 L1141.72944,6587.5 L1141.72944,6588.5 L1139.72882,6588.5 Z M1143.75108,6588.5 L1143.75108,6587.5 L1145.75086,6587.5 L1145.75086,6588.5 L1143.75108,6588.5 Z M1147.73381,6588.5 L1147.73381,6587.5 L1149.73388,6587.5 L1149.73388,6588.5 L1147.73381,6588.5 Z M1151.74527,6588.5 L1151.74527,6587.5 L1153.74563,6587.5 L1153.74563,6588.5 L1151.74527,6588.5 Z M1155.75084,6588.5 L1155.75084,6587.5 L1157.75059,6587.5 L1157.75059,6588.5 L1155.75084,6588.5 Z M1159.75009,6588.5 L1159.75009,6587.5 L1161.75017,6587.5 L1161.75017,6588.5 L1159.75009,6588.5 Z M1163.7426,6588.5 L1163.7426,6587.5 L1165.74262,6587.5 L1165.74262,6588.5 L1163.7426,6588.5 Z M1167.72791,6588.5 L1167.72791,6587.5 L1169.72792,6587.5 L1169.72792,6588.5 L1167.72791,6588.5 Z M1171.73856,6588.50764 L1171.74739,6587.50768 C1172.41813,6587.5136 1173.08545,6587.52295 1173.74937,6587.53573 L1173.73013,6588.53554 C1173.06969,6588.52283 1172.40584,6588.51353 1171.73856,6588.50764 Z M1175.72586,6588.58462 L1175.75585,6587.58507 C1176.4283,6587.60525 1177.09718,6587.62901 1177.76248,6587.65636 L1177.7214,6588.65552 C1177.05981,6588.62832 1176.39463,6588.60469 1175.72586,6588.58462 Z M1179.71847,6588.74903 L1179.77099,6587.75041 C1180.44258,6587.78574 1181.11044,6587.8248 1181.77458,6587.8676 L1181.71027,6588.86553 C1181.05006,6588.82299 1180.38613,6588.78415 1179.71847,6588.74903 Z M1183.69963,6589.00585 L1183.77609,6588.00878 C1184.44772,6588.06028 1185.11547,6588.1157 1185.77931,6588.17503 L1185.6903,6589.17106 C1185.03064,6589.1121 1184.36708,6589.05703 1183.69963,6589.00585 Z M1187.67467,6589.36133 L1187.7766,6588.36653 C1188.44549,6588.43508 1189.11033,6588.50769 1189.77113,6588.58436 L1189.65586,6589.5777 C1188.99952,6589.50154 1188.33912,6589.42941 1187.67467,6589.36133 Z M1191.63744,6589.8215 L1191.76648,6588.82986 C1192.43293,6588.91658 1193.09516,6589.00754 1193.75317,6589.10274 L1193.60998,6590.09244 C1192.9567,6589.99792 1192.29918,6589.90761 1191.63744,6589.8215 Z M1195.57163,6590.39093 L1195.72937,6589.40345 C1196.39339,6589.50952 1197.053,6589.62002 1197.7082,6589.73496 L1197.53541,6590.71992 C1196.88523,6590.60586 1196.23064,6590.4962 1195.57163,6590.39093 Z M1199.501,6591.08071 L1199.68935,6590.09861 C1200.35028,6590.22537 1201.0066,6590.35676 1201.6583,6590.4928 L1201.45397,6591.4717 C1200.80759,6591.33678 1200.1566,6591.20645 1199.501,6591.08071 Z M1203.40786,6591.89673 L1203.62872,6590.92142 C1204.28562,6591.07018 1204.93769,6591.22378 1205.58494,6591.38224 L1205.34715,6592.35355 C1204.70555,6592.19648 1204.05912,6592.0442 1203.40786,6591.89673 Z M1207.28471,6592.84637 L1207.53999,6591.8795 C1208.19157,6592.05154 1208.8381,6592.22864 1209.4796,6592.41081 L1209.20642,6593.37278 C1208.57089,6593.1923 1207.93032,6593.01683 1207.28471,6592.84637 Z M1211.12389,6593.93717 L1211.41551,6592.98064 C1212.06015,6593.17717 1212.69953,6593.37899 1213.33365,6593.58611 L1213.02318,6594.53669 C1212.39533,6594.33163 1211.76224,6594.13179 1211.12389,6593.93717 Z M1214.88303,6595.16477 L1215.21253,6594.22061 C1215.84872,6594.44263 1216.47944,6594.67016 1217.10469,6594.90319 L1216.75546,6595.84023 C1216.13678,6595.60964 1215.51263,6595.38449 1214.88303,6595.16477 Z M1218.61614,6596.55662 L1218.98557,6595.62736 C1219.61084,6595.87594 1220.23044,6596.13022 1220.84437,6596.39021 L1220.45441,6597.31105 C1219.84731,6597.05395 1219.23456,6596.80247 1218.61614,6596.55662 Z M1222.28837,6598.11256 L1222.69938,6597.20094 C1223.31315,6597.47766 1223.92103,6597.76031 1224.52302,6598.04888 L1224.09076,6598.95062 C1223.49583,6598.66544 1222.89503,6598.38608 1222.28837,6598.11256 Z M1225.87607,6599.83291 L1226.32992,6598.94183 C1226.92952,6599.24723 1227.52304,6599.55874 1228.11048,6599.87636 L1227.63485,6600.75601 C1227.05464,6600.44229 1226.46838,6600.13459 1225.87607,6599.83291 Z M1229.38023,6601.72836 L1229.87795,6600.86103 C1230.46204,6601.19621 1231.03985,6601.5377 1231.61137,6601.8855 L1231.09152,6602.73976 C1230.52732,6602.39642 1229.95689,6602.05929 1229.38023,6601.72836 Z M1232.78632,6603.80189 L1233.32851,6602.96163 C1233.89394,6603.32648 1234.45293,6603.69779 1235.00548,6604.07555 L1234.44111,6604.90107 C1233.89589,6604.52833 1233.3443,6604.16193 1232.78632,6603.80189 Z M1236.08105,6606.05533 L1236.66775,6605.24553 C1237.21275,6605.64039 1237.75118,6606.04183 1238.28304,6606.44986 L1237.67435,6607.24327 C1237.14975,6606.84081 1236.61865,6606.44483 1236.08105,6606.05533 Z M1239.24593,6608.48414 L1239.87654,6607.70804 C1240.39809,6608.13181 1240.91298,6608.56225 1241.42123,6608.99935 L1240.76919,6609.75753 C1240.26801,6609.32651 1239.76025,6608.90205 1239.24593,6608.48414 Z M1242.21029,6611.03141 L1242.88274,6610.29126 C1243.38024,6610.74326 1243.87102,6611.20198 1244.3551,6611.66741 L1243.66201,6612.38826 C1243.18472,6611.92936 1242.70082,6611.47707 1242.21029,6611.03141 Z M1245.07342,6613.78423 L1245.78661,6613.08326 C1246.25744,6613.5623 1246.72156,6614.04806 1247.17895,6614.54053 L1246.44623,6615.22106 C1245.99525,6614.73549 1245.53765,6614.25655 1245.07342,6613.78423 Z M1247.7832,6616.7021 L1248.53489,6616.04258 C1248.97728,6616.54679 1249.41299,6617.05768 1249.84202,6617.57523 L1249.07214,6618.21342 C1248.64907,6617.70306 1248.21942,6617.19929 1247.7832,6616.7021 Z M1250.32349,6619.76663 L1251.11087,6619.15017 C1251.52409,6619.67797 1251.93071,6620.21235 1252.33072,6620.75331 L1251.52666,6621.34786 C1251.1321,6620.81427 1250.73104,6620.28719 1250.32349,6619.76663 Z M1252.69159,6622.96925 L1253.51159,6622.39688 C1253.89482,6622.94591 1254.27157,6623.50141 1254.64184,6624.06336 L1253.8068,6624.61356 C1253.44145,6624.05905 1253.06971,6623.51095 1252.69159,6622.96925 Z M1254.88161,6626.29287 L1255.73091,6625.76495 C1256.08401,6626.333 1256.43077,6626.90736 1256.77121,6627.48802 L1255.90854,6627.99379 C1255.57246,6627.42056 1255.23015,6626.85359 1254.88161,6626.29287 Z M1256.89427,6629.72538 L1257.76952,6629.24171 C1258.09267,6629.82647 1258.40966,6630.41736 1258.7205,6631.01438 L1257.83352,6631.47619 C1257.52649,6630.88649 1257.21341,6630.30289 1256.89427,6629.72538 Z M1258.73528,6633.26119 L1259.63326,6632.82115 C1259.92709,6633.42077 1260.21496,6634.02632 1260.49687,6634.6378 L1259.58873,6635.05648 C1259.31012,6634.45214 1259.02563,6633.85372 1258.73528,6633.26119 Z M1260.40673,6636.88666 L1261.32435,6636.4892 C1261.58972,6637.10186 1261.84933,6637.72024 1262.10318,6638.34434 L1261.17687,6638.72111 C1260.92583,6638.10392 1260.66912,6637.49243 1260.40673,6636.88666 Z M1261.90864,6640.57851 L1262.84297,6640.22211 C1263.08081,6640.84564 1263.31311,6641.47467 1263.53986,6642.10922 L1262.59818,6642.44572 C1262.3738,6641.81782 1262.14395,6641.19541 1261.90864,6640.57851 Z M1263.25203,6644.33731 L1264.20047,6644.02036 C1264.41178,6644.65268 1264.61777,6645.29029 1264.81844,6645.93319 L1263.86386,6646.23115 C1263.66516,6645.59458 1263.46122,6644.9633 1263.25203,6644.33731 Z M1264.44134,6648.14689 L1265.40153,6647.86755 C1265.58771,6648.50754 1265.7688,6649.1526 1265.94478,6649.80273 L1264.97951,6650.06401 C1264.80516,6649.4199 1264.62577,6648.78086 1264.44134,6648.14689 Z M1265.48437,6651.99934 L1266.45424,6651.75571 C1266.61649,6652.40162 1266.77386,6653.05238 1266.92635,6653.708 L1265.95235,6653.93454 C1265.80118,6653.28462 1265.64519,6652.63955 1265.48437,6651.99934 Z M1266.39084,6655.89651 L1267.36859,6655.68674 C1267.50824,6656.33766 1267.64322,6656.99323 1267.77352,6657.65344 L1266.79245,6657.84708 C1266.6632,6657.19224 1266.52933,6656.54205 1266.39084,6655.89651 Z M1267.16382,6659.81185 L1268.14787,6659.63395 C1268.26627,6660.28887 1268.3802,6660.94824 1268.48966,6661.61205 L1267.50298,6661.77475 C1267.39436,6661.11599 1267.28131,6660.46169 1267.16382,6659.81185 Z M1267.81451,6663.75737 L1268.80353,6663.60953 C1268.90193,6664.26783 1268.99604,6664.93038 1269.08588,6665.59719 L1268.09483,6665.73071 C1268.00564,6665.06866 1267.9122,6664.41088 1267.81451,6663.75737 Z M1268.34805,6667.71613 L1269.34087,6667.59656 C1269.42043,6668.25708 1269.49589,6668.92168 1269.56725,6669.59036 L1268.5729,6669.69648 C1268.50201,6669.03228 1268.42706,6668.37217 1268.34805,6667.71613 Z M1268.77246,6671.69166 L1269.76813,6671.59867 C1269.82999,6672.26097 1269.88793,6672.92718 1269.94194,6673.59729 L1268.94518,6673.67764 C1268.8915,6673.01173 1268.83393,6672.34974 1268.77246,6671.69166 Z M1269.09463,6675.68864 L1270.09232,6675.6207 C1270.13752,6676.28434 1270.17895,6676.95172 1270.21663,6677.62285 L1269.2182,6677.6789 C1269.18075,6677.01173 1269.13956,6676.34831 1269.09463,6675.68864 Z"></path>
        </g>
    </g>
</svg>