<svg width="397" height="150" viewBox="0 0 397 150" fill="none" xmlns="http://www.w3.org/2000/svg">
<path d="M110.353 55.1319L86.903 124.173H79.2285L52 55.1313H60.3397L82.8074 112.105L102.155 55.1313L110.353 55.1319Z" fill="white"/>
<path d="M130.275 55.1319L106.824 124.173H99.1494L71.9209 55.1313H80.2606L102.728 112.105L122.076 55.1313L130.275 55.1319Z" fill="#0063B0"/>
<path d="M107.769 49.2173V44.1151H74.5777V49.2173H107.769Z" fill="white"/>
<path d="M85.5808 34.6136C85.6455 35.2351 85.8669 35.8298 86.224 36.3411C86.5812 36.8524 87.0623 37.2635 87.6216 37.5353C87.5602 37.3682 87.4852 37.2064 87.3973 37.0516C86.1973 35.4405 86.3624 33.8081 87.3864 32.2127C87.846 31.497 88.4416 30.8706 88.9656 30.1957C89.4895 29.5208 90.0462 28.8688 90.5042 28.1511C90.8128 27.6938 91.0044 27.1669 91.0622 26.6173C91.12 26.0676 91.0421 25.5121 90.8355 25C91.8169 25.2952 92.6441 26.5829 92.6695 27.8732C92.6476 29.0438 92.2583 30.1774 91.5573 31.112C91.1302 31.7605 90.8006 32.4688 90.5789 33.2141C90.488 33.5035 90.5115 33.817 90.6445 34.0894C90.7775 34.3618 91.0097 34.5722 91.2929 34.6768C91.4294 34.7194 91.5736 34.7307 91.7149 34.7099C91.8563 34.6891 91.9912 34.6368 92.1098 34.5566C92.3386 34.3643 92.5006 34.1037 92.5721 33.8124C92.6437 33.5212 92.621 33.2146 92.5075 32.9372C92.4499 32.7523 92.385 32.5716 92.3196 32.3757C93.6318 32.9404 93.9537 34.0572 93.5082 36.4451C93.8607 36.2017 94.1506 35.8773 94.3536 35.4987C94.5566 35.1201 94.667 34.6983 94.6756 34.2683C94.6364 33.5526 94.5237 32.8428 94.3391 32.1505C94.0914 31.0979 93.9236 30.0735 94.6548 29.1337C94.7081 29.0647 94.7665 28.9998 94.8293 28.9394C94.8881 28.9009 94.951 28.869 95.0167 28.8443C94.675 30.0233 95.186 30.9432 95.7681 31.8454C96.1721 32.4723 96.6104 33.0788 96.9666 33.7318C97.4219 34.5557 97.6706 35.4788 97.6913 36.4212C97.7119 37.3636 97.5039 38.2968 97.0852 39.1401C96.6665 39.9834 96.0498 40.7112 95.2884 41.2607C94.527 41.8101 93.644 42.1646 92.7158 42.2933C90.7191 42.5968 88.8316 42.3669 87.1678 41.1398C86.1999 40.3997 85.5141 39.3476 85.2252 38.1595C84.9363 36.9715 85.0618 35.7196 85.5808 34.6136V34.6136Z" fill="#0063B0"/>
<path d="M71.9229 55.1315H110.353L107.439 63.7118H75.4851L71.9229 55.1315Z" fill="#0063B0"/>
<path d="M99.2414 63.7117H107.439L105.906 68.2246H97.709L99.2414 63.7117Z" fill="url(#paint0_linear_854_59)"/>
<path d="M88.1664 96.3215L92.5694 107.487L90.0987 114.761L85.501 104.17L88.1664 96.3215Z" fill="url(#paint1_linear_854_59)"/>
<path d="M163.748 53.7208C163.787 53.5766 163.871 53.449 163.988 53.3567C164.105 53.2645 164.248 53.2126 164.396 53.2088H167.404C167.541 53.1916 167.681 53.2024 167.814 53.2404C167.947 53.2785 168.071 53.3431 168.179 53.4303C168.311 53.5806 168.382 53.776 168.376 53.9767V54.2797L163.079 67.1254L168.724 80.9484L179.525 54.0692C179.604 53.8084 179.768 53.5819 179.99 53.4258C180.212 53.2697 180.48 53.1931 180.751 53.2083H183.134C183.418 53.1772 183.703 53.2565 183.932 53.4298C184.003 53.5009 184.06 53.5861 184.098 53.6801C184.135 53.7741 184.154 53.8749 184.151 53.9762V54.1852L170.665 86.7893C170.651 86.849 170.632 86.9072 170.607 86.9632C170.558 87.0811 170.492 87.1909 170.411 87.2887C170.305 87.4168 170.18 87.527 170.04 87.6152C169.874 87.7194 169.681 87.7721 169.485 87.7667H167.911C167.754 87.7787 167.596 87.758 167.447 87.7058C167.297 87.6537 167.161 87.5713 167.045 87.4637C166.881 87.3215 166.777 87.1214 166.755 86.9047L160.787 72.5692L154.888 86.7888C154.813 87.0484 154.674 87.2847 154.484 87.4752C154.399 87.5663 154.297 87.6392 154.184 87.6892C154.07 87.7393 153.948 87.7654 153.824 87.7662H152.182C152.04 87.7736 151.898 87.7494 151.766 87.6952C151.634 87.641 151.515 87.5582 151.419 87.4527C151.26 87.2833 151.128 87.0913 151.025 86.8828L137.585 54.2792C137.563 54.2334 137.544 54.1865 137.527 54.1387C137.503 54.0717 137.491 54.0009 137.492 53.9297C137.492 53.4495 137.793 53.209 138.394 53.2083H140.985C141.221 53.2098 141.45 53.2918 141.634 53.4408C141.862 53.638 142.031 53.8962 142.12 54.1857L152.946 80.9484L163.748 53.7208Z" fill="white"/>
<path d="M212.815 53.2089C213.523 53.2089 213.878 53.5812 213.879 54.3257V56.6295C213.884 56.9091 213.79 57.1814 213.613 57.3974C213.506 57.5129 213.375 57.6023 213.228 57.6588C213.082 57.7152 212.925 57.7373 212.768 57.7234H194.123V67.2884H208.792C209.052 67.2828 209.306 67.3693 209.509 67.5329C209.618 67.6387 209.702 67.768 209.754 67.9111C209.806 68.0542 209.825 68.2072 209.81 68.3588V70.731C209.813 71.001 209.723 71.2638 209.555 71.4749C209.463 71.586 209.345 71.6735 209.213 71.7301C209.08 71.7867 208.936 71.8108 208.792 71.8003H194.126V83.2527H212.863C213.01 83.2334 213.159 83.2486 213.298 83.2972C213.438 83.3457 213.564 83.4263 213.667 83.5325C213.771 83.6386 213.848 83.7675 213.893 83.9089C213.938 84.0503 213.95 84.2003 213.928 84.3471V86.7439C213.947 86.883 213.935 87.0248 213.891 87.1581C213.847 87.2914 213.772 87.4126 213.674 87.512C213.575 87.6114 213.454 87.6863 213.322 87.7308C213.189 87.7753 213.049 87.7881 212.91 87.7683H190.656C189.978 87.7683 189.639 87.4425 189.639 86.7909V54.2798C189.639 53.5662 189.978 53.2092 190.656 53.2089H212.815Z" fill="white"/>
<path d="M243.905 62.5878C243.913 63.8854 243.648 65.1699 243.13 66.3579C242.632 67.5103 241.895 68.5419 240.967 69.3831C241.674 69.8007 242.323 70.3101 242.898 70.8981C243.472 71.4825 243.973 72.135 244.391 72.8414C245.243 74.2887 245.691 75.9413 245.686 77.6239C245.691 78.9486 245.439 80.2617 244.945 81.4896C244.471 82.6847 243.781 83.7812 242.91 84.7237C242.042 85.6583 241.001 86.4134 239.846 86.9465C238.646 87.502 237.339 87.7841 236.018 87.7729H220.911C220.635 87.7839 220.363 87.6929 220.148 87.517C220.044 87.4201 219.963 87.3007 219.911 87.1677C219.858 87.0347 219.837 86.8916 219.847 86.749V54.3278C219.847 53.5832 220.202 53.2109 220.911 53.2109H234.491C235.767 53.1986 237.034 53.4439 238.215 53.9323C239.326 54.3935 240.339 55.0651 241.199 55.9106C242.053 56.7562 242.729 57.7651 243.189 58.8778C243.673 60.0535 243.917 61.3153 243.905 62.5878V62.5878ZM239.371 62.5878C239.378 61.9115 239.256 61.24 239.012 60.6095C238.785 60.0206 238.438 59.4857 237.994 59.039C237.55 58.5922 237.019 58.2435 236.433 58.0148C235.799 57.7685 235.124 57.6461 234.444 57.6544H224.266V67.7533H234.399C235.078 67.7593 235.751 67.6244 236.376 67.3568C236.969 67.1045 237.504 66.7325 237.949 66.2639C238.396 65.7877 238.749 65.2311 238.99 64.6231C239.248 63.9761 239.377 63.2847 239.371 62.5878V62.5878ZM224.265 72.1999V83.3206H235.97C236.668 83.3231 237.356 83.1638 237.983 82.8551C238.608 82.5499 239.17 82.1272 239.637 81.6097C240.615 80.5135 241.155 79.0914 241.152 77.6181C241.155 76.9075 241.018 76.2033 240.747 75.5469C240.487 74.9102 240.115 74.3262 239.649 73.8229C239.182 73.3241 238.625 72.9209 238.006 72.6356C237.368 72.3398 236.673 72.1889 235.97 72.1936L224.265 72.1999Z" fill="white"/>
<path d="M251.654 54.2333C251.649 53.9677 251.744 53.7099 251.92 53.5119C252.015 53.4089 252.132 53.3283 252.262 53.2759C252.392 53.2235 252.532 53.2007 252.672 53.2089H255.078C255.35 53.2069 255.614 53.3065 255.818 53.4884C255.925 53.58 256.009 53.6945 256.065 53.8235C256.121 53.9526 256.147 54.0927 256.142 54.2333V86.7439C256.142 87.4269 255.787 87.7683 255.078 87.7683H252.672C252.534 87.7883 252.393 87.7755 252.26 87.731C252.127 87.6866 252.007 87.6117 251.908 87.5123C251.809 87.4129 251.735 87.2917 251.691 87.1583C251.647 87.025 251.634 86.8831 251.654 86.7439L251.654 54.2333Z" fill="white"/>
<path d="M286.424 53.209C286.695 53.2073 286.96 53.2974 287.175 53.465C287.29 53.5579 287.383 53.6745 287.449 53.8071C287.515 53.9396 287.552 54.0848 287.557 54.2329V56.5837C287.563 56.876 287.464 57.1607 287.279 57.3861C287.172 57.5042 287.039 57.5961 286.89 57.6547C286.742 57.7132 286.582 57.737 286.424 57.7241H276.8V86.697C276.802 86.9713 276.703 87.2367 276.523 87.4425C276.425 87.5527 276.303 87.6392 276.167 87.6955C276.03 87.7518 275.883 87.7766 275.736 87.7679H273.399C273.123 87.7681 272.857 87.6593 272.659 87.465C272.554 87.368 272.47 87.2492 272.414 87.1167C272.358 86.9842 272.331 86.841 272.335 86.697V57.7236H262.666C262.385 57.7337 262.111 57.6334 261.903 57.4441C261.795 57.33 261.712 57.1944 261.661 57.046C261.609 56.8976 261.589 56.7399 261.601 56.5832V54.2324C261.595 54.0938 261.619 53.9554 261.671 53.8268C261.723 53.6982 261.802 53.5825 261.903 53.4875C262.111 53.2979 262.385 53.1976 262.666 53.208L286.424 53.209Z" fill="white"/>
<path d="M307.729 52.7433C310.856 52.7325 313.929 53.5685 316.624 55.1635C317.925 55.9383 319.126 56.8723 320.198 57.9442C321.274 59.0185 322.203 60.2315 322.962 61.5513C323.732 62.8937 324.33 64.3284 324.743 65.8214C325.378 68.1069 325.548 70.4974 325.244 72.8505C324.94 75.2036 324.168 77.471 322.974 79.5175C322.206 80.8243 321.277 82.0285 320.21 83.1016C319.142 84.1759 317.941 85.1065 316.636 85.8703C314.587 87.0563 312.326 87.824 309.982 88.1296C307.638 88.4352 305.257 88.2726 302.976 87.6511C301.499 87.2439 300.083 86.6412 298.765 85.8588C297.466 85.0866 296.269 84.1523 295.203 83.0781C292.448 80.3004 290.684 76.683 290.188 72.7907C289.692 68.8984 290.491 64.9504 292.461 61.5633C293.229 60.2491 294.157 59.0371 295.225 57.9557C296.291 56.8761 297.493 55.9417 298.8 55.1766C300.126 54.4025 301.545 53.8004 303.021 53.3848C304.554 52.9539 306.138 52.738 307.729 52.7433V52.7433ZM294.497 70.4524C294.492 71.6442 294.652 72.8308 294.971 73.9785C295.28 75.0856 295.727 76.1489 296.301 77.1432C297.442 79.1143 299.072 80.7539 301.032 81.9022C302.02 82.4803 303.077 82.9302 304.178 83.2411C306.468 83.8762 308.886 83.8762 311.176 83.2411C313.372 82.6295 315.372 81.4548 316.982 79.832C317.78 79.029 318.472 78.1254 319.041 77.1437C319.615 76.1495 320.062 75.0861 320.37 73.9791C321.16 71.1042 320.96 68.0453 319.804 65.299C318.461 62.1326 315.954 59.6105 312.806 58.2592C310.076 57.0958 307.035 56.895 304.178 57.6893C303.077 57.9998 302.02 58.4493 301.032 59.0271C300.056 59.5985 299.158 60.2948 298.36 61.0984C296.746 62.7166 295.578 64.7295 294.971 66.9393C294.653 68.0831 294.494 69.2654 294.497 70.4529V70.4524Z" fill="white"/>
<path d="M144.108 109.611H141.846V93.3868H144.108V109.611Z" fill="#0063B0"/>
<path d="M147.993 98.0293H150.256V109.611H147.993V98.0293ZM154.981 102.592C155.025 101.901 154.798 101.22 154.349 100.696C154.116 100.465 153.838 100.287 153.532 100.171C153.226 100.056 152.9 100.007 152.574 100.026C152.264 100.007 151.953 100.049 151.659 100.15C151.365 100.252 151.093 100.41 150.861 100.618C150.652 100.838 150.49 101.1 150.386 101.386C150.282 101.672 150.238 101.976 150.257 102.28L150.024 100.048C150.338 99.395 150.819 98.8366 151.416 98.4289C151.979 98.0521 152.642 97.8538 153.318 97.8595C153.863 97.8285 154.408 97.9236 154.91 98.1373C155.413 98.351 155.86 98.6777 156.218 99.0923C156.959 100.096 157.323 101.331 157.245 102.579V109.609H154.98L154.981 102.592Z" fill="#0063B0"/>
<path d="M159.907 98.0284H165.663V99.9696H159.907V98.0284ZM161.128 96.455C161.064 95.6249 161.315 94.8013 161.832 94.1507C162.12 93.8774 162.462 93.6682 162.835 93.5365C163.209 93.4048 163.606 93.3537 164 93.3864H165.662V95.5512H164.043C163.948 95.5461 163.853 95.566 163.767 95.609C163.681 95.6519 163.608 95.7164 163.555 95.7962C163.436 95.9865 163.379 96.2084 163.389 96.4325V109.61H161.125L161.128 96.455Z" fill="#0063B0"/>
<path d="M169.627 109.186C168.92 108.796 168.352 108.193 168.002 107.462C167.607 106.609 167.416 105.675 167.442 104.735V102.849C167.416 101.919 167.608 100.996 168.002 100.154C168.354 99.4291 168.922 98.8324 169.627 98.4469C170.427 98.0614 171.302 97.8613 172.189 97.8613C173.076 97.8613 173.951 98.0614 174.751 98.4469C175.456 98.8324 176.024 99.4291 176.376 100.154C176.77 100.996 176.962 101.919 176.937 102.849V104.768C176.963 105.702 176.771 106.629 176.376 107.474C176.023 108.2 175.456 108.799 174.751 109.187C173.953 109.576 173.077 109.779 172.189 109.779C171.302 109.779 170.426 109.576 169.627 109.187V109.186ZM174.024 106.866C174.489 106.27 174.72 105.524 174.673 104.768V102.849C174.722 102.096 174.49 101.352 174.024 100.762C173.529 100.289 172.872 100.025 172.189 100.025C171.506 100.025 170.848 100.289 170.353 100.762C169.887 101.353 169.656 102.096 169.704 102.849V104.768C169.658 105.524 169.888 106.27 170.353 106.866C170.845 107.346 171.503 107.614 172.189 107.614C172.874 107.614 173.532 107.346 174.024 106.866V106.866Z" fill="#0063B0"/>
<path d="M179.379 98.0287H184.572V100.082H179.379V98.0287ZM181.215 108.89C180.737 108.227 180.507 107.415 180.565 106.597V94.6587H182.828V106.621C182.814 106.851 182.873 107.08 182.995 107.274C183.051 107.35 183.125 107.411 183.21 107.451C183.295 107.491 183.389 107.509 183.483 107.503H184.57V109.668H183.262C182.884 109.701 182.504 109.648 182.15 109.514C181.796 109.379 181.476 109.166 181.215 108.891V108.89Z" fill="#0063B0"/>
<path d="M189.775 109.175C189.03 108.783 188.426 108.164 188.05 107.407C187.632 106.529 187.429 105.563 187.457 104.589V103.283C187.429 102.275 187.624 101.273 188.028 100.349C188.377 99.5736 188.956 98.9261 189.686 98.496C190.487 98.0532 191.39 97.8338 192.304 97.8603C193.18 97.8349 194.042 98.0887 194.766 98.5854C195.48 99.1141 196.023 99.8442 196.324 100.683C196.706 101.737 196.889 102.853 196.862 103.974V104.733H189.1V102.905H194.708C194.694 102.113 194.441 101.345 193.981 100.702C193.783 100.447 193.527 100.242 193.235 100.105C192.943 99.9685 192.623 99.9032 192.301 99.9149C191.927 99.8936 191.553 99.9589 191.208 100.106C190.862 100.253 190.555 100.478 190.31 100.763C189.801 101.454 189.552 102.304 189.606 103.162V104.635C189.579 105.035 189.632 105.436 189.762 105.816C189.891 106.195 190.095 106.545 190.36 106.844C190.646 107.112 190.983 107.319 191.352 107.451C191.72 107.584 192.111 107.639 192.501 107.614C192.969 107.612 193.433 107.517 193.865 107.335C194.312 107.151 194.722 106.887 195.075 106.554L196.56 108.05C196.004 108.591 195.354 109.024 194.641 109.327C193.965 109.621 193.237 109.775 192.5 109.779C191.557 109.805 190.621 109.598 189.775 109.175V109.175Z" fill="#0063B0"/>
<path d="M202.039 109.186C201.308 108.805 200.713 108.204 200.336 107.468C199.923 106.622 199.721 105.688 199.749 104.746V102.84C199.722 101.909 199.924 100.985 200.336 100.15C200.716 99.42 201.31 98.8257 202.039 98.449C202.875 98.0377 203.798 97.8368 204.729 97.8634C205.3 97.8596 205.869 97.9329 206.42 98.0813C206.925 98.2155 207.406 98.4278 207.845 98.7108C208.256 98.9762 208.614 99.3169 208.899 99.7153L207.269 101.188C206.953 100.824 206.563 100.531 206.126 100.329C205.699 100.13 205.233 100.027 204.762 100.028C204.392 100.005 204.021 100.058 203.672 100.185C203.323 100.311 203.003 100.508 202.732 100.764C202.481 101.044 202.287 101.372 202.164 101.728C202.04 102.085 201.988 102.462 202.012 102.839V104.747C201.962 105.521 202.219 106.283 202.727 106.867C202.996 107.127 203.316 107.327 203.666 107.456C204.017 107.585 204.39 107.639 204.762 107.615C205.239 107.616 205.71 107.505 206.138 107.291C206.577 107.073 206.963 106.76 207.269 106.375L208.9 107.96C208.606 108.351 208.245 108.685 207.834 108.948C207.394 109.228 206.914 109.437 206.409 109.567C205.861 109.711 205.296 109.782 204.729 109.78C203.798 109.806 202.874 109.602 202.039 109.186V109.186Z" fill="#0063B0"/>
<path d="M211.509 93.3871H213.772V109.611H211.509V93.3871ZM218.497 102.592C218.541 101.901 218.314 101.22 217.864 100.695C217.632 100.465 217.353 100.287 217.048 100.171C216.742 100.056 216.416 100.007 216.09 100.026C215.465 99.9861 214.85 100.194 214.376 100.606C214.167 100.822 214.006 101.08 213.902 101.362C213.798 101.645 213.754 101.946 213.772 102.247L213.539 100.015C213.858 99.3718 214.338 98.8238 214.931 98.425C215.496 98.0518 216.158 97.8556 216.834 97.8614C217.378 97.8304 217.923 97.9255 218.426 98.1392C218.929 98.3529 219.376 98.6796 219.734 99.0942C220.475 100.098 220.838 101.333 220.759 102.581V109.611H218.497L218.497 102.592Z" fill="#0063B0"/>
<path d="M147.482 120.381C147.482 122.28 146.409 123.96 144.24 123.96C142.2 123.96 141.072 122.393 141.072 120.418C141.072 118.443 142.239 116.875 144.32 116.875C146.264 116.875 147.482 118.323 147.482 120.381ZM142.134 120.388C142.134 121.85 142.861 123.099 144.282 123.099C145.819 123.099 146.421 121.821 146.421 120.396C146.421 118.946 145.738 117.736 144.279 117.736C142.788 117.736 142.135 118.942 142.135 120.388H142.134Z" fill="white"/>
<path d="M150.361 116.974V121.111C150.361 122.679 151.208 123.112 152.058 123.112C153.05 123.112 153.737 122.641 153.737 121.111V116.974H154.758V121.059C154.758 123.317 153.503 123.95 152.038 123.95C150.588 123.95 149.334 123.27 149.334 121.117V116.974H150.361Z" fill="white"/>
<path d="M158.002 120.879V123.861H156.998V116.974H159.737C161.16 116.974 161.918 117.752 161.918 118.825C161.941 119.185 161.841 119.542 161.635 119.837C161.429 120.132 161.129 120.347 160.784 120.447C161.303 120.593 161.793 121.001 161.793 122.203V122.507C161.762 122.96 161.793 123.416 161.886 123.861H160.904C160.786 123.373 160.745 122.869 160.783 122.368V122.23C160.783 121.289 160.523 120.879 159.32 120.879H158.002ZM158.002 120.032H159.444C160.446 120.032 160.877 119.652 160.877 118.916C160.877 118.216 160.424 117.819 159.533 117.819H158.002V120.032Z" fill="white"/>
<path d="M166.82 116.974H169.464C170.82 116.974 171.746 117.736 171.746 119.002C171.746 120.373 170.754 121.08 169.414 121.08H167.842V123.861H166.82V116.974ZM167.842 120.233H169.341C170.231 120.233 170.704 119.809 170.704 119.026C170.704 118.212 170.146 117.822 169.376 117.822H167.841L167.842 120.233Z" fill="white"/>
<path d="M173.843 121.885L173.145 123.861H172.137L174.553 116.974H175.811L178.332 123.861H177.254L176.531 121.885H173.843ZM176.283 121.019C175.66 119.277 175.312 118.321 175.161 117.781H175.151C174.984 118.383 174.593 119.532 174.094 121.019H176.283Z" fill="white"/>
<path d="M180.472 121.925C180.653 122.725 181.199 123.145 182.156 123.145C183.171 123.145 183.578 122.674 183.578 122.053C183.578 121.387 183.242 121.027 181.907 120.705C180.245 120.302 179.705 119.722 179.705 118.761C179.705 117.705 180.484 116.875 182.028 116.875C183.694 116.875 184.375 117.83 184.468 118.755H183.436C183.323 118.181 182.969 117.684 181.994 117.684C181.204 117.684 180.756 118.038 180.756 118.662C180.756 119.277 181.124 119.52 182.307 119.806C184.266 120.282 184.628 121.044 184.628 121.944C184.628 123.082 183.786 123.951 182.084 123.951C180.358 123.951 179.584 123.021 179.438 121.927L180.472 121.925Z" fill="white"/>
<path d="M187.052 121.925C187.233 122.725 187.779 123.145 188.736 123.145C189.751 123.145 190.158 122.674 190.158 122.053C190.158 121.387 189.822 121.027 188.487 120.705C186.826 120.302 186.285 119.722 186.285 118.761C186.285 117.705 187.064 116.875 188.608 116.875C190.274 116.875 190.954 117.83 191.048 118.755H190.016C189.903 118.181 189.549 117.684 188.574 117.684C187.784 117.684 187.336 118.038 187.336 118.662C187.336 119.277 187.704 119.52 188.887 119.806C190.846 120.282 191.208 121.044 191.208 121.944C191.208 123.082 190.366 123.951 188.664 123.951C186.938 123.951 186.164 123.021 186.019 121.927L187.052 121.925Z" fill="white"/>
<path d="M194.007 116.974V123.861H192.988V116.974H194.007Z" fill="white"/>
<path d="M202.305 120.381C202.305 122.28 201.232 123.96 199.063 123.96C197.023 123.96 195.898 122.393 195.898 120.418C195.898 118.443 197.064 116.875 199.146 116.875C201.089 116.875 202.305 118.323 202.305 120.381ZM196.957 120.388C196.957 121.85 197.684 123.099 199.104 123.099C200.642 123.099 201.243 121.821 201.243 120.396C201.243 118.946 200.561 117.736 199.101 117.736C197.609 117.736 196.958 118.942 196.958 120.388H196.957Z" fill="white"/>
<path d="M204.194 123.861V116.974H205.516C206.474 118.572 208.505 121.877 208.876 122.626H208.89C208.821 121.773 208.827 120.666 208.827 119.54V116.974H209.779V123.861H208.532C207.659 122.394 205.521 118.799 205.11 118.023H205.096C205.145 118.773 205.148 119.988 205.148 121.229V123.861H204.194Z" fill="white"/>
<path d="M214.154 125C214.554 124.169 214.795 123.269 214.863 122.348H215.85C215.768 123.295 215.454 124.206 214.936 125H214.154Z" fill="white"/>
<path d="M222.148 123.861V121.354C222.15 121.287 222.133 121.221 222.1 121.163L219.698 116.975H220.857C221.462 118.078 222.396 119.78 222.714 120.413C223.01 119.793 223.98 118.067 224.602 116.975H225.682L223.213 121.172C223.179 121.227 223.164 121.292 223.17 121.356V123.864L222.148 123.861Z" fill="white"/>
<path d="M232.81 120.381C232.81 122.28 231.738 123.96 229.568 123.96C227.527 123.96 226.4 122.393 226.4 120.418C226.4 118.443 227.566 116.875 229.648 116.875C231.592 116.875 232.81 118.323 232.81 120.381ZM227.462 120.388C227.462 121.85 228.189 123.099 229.611 123.099C231.148 123.099 231.75 121.821 231.75 120.396C231.75 118.946 231.067 117.736 229.607 117.736C228.117 117.736 227.463 118.942 227.463 120.388H227.462Z" fill="white"/>
<path d="M235.688 116.974V121.111C235.688 122.679 236.535 123.112 237.386 123.112C238.377 123.112 239.065 122.641 239.065 121.111V116.974H240.086V121.059C240.086 123.317 238.831 123.95 237.366 123.95C235.916 123.95 234.661 123.27 234.661 121.117V116.974H235.688Z" fill="white"/>
<path d="M243.325 120.879V123.861H242.321V116.974H245.059C246.482 116.974 247.24 117.752 247.24 118.825C247.263 119.185 247.163 119.542 246.957 119.837C246.751 120.132 246.45 120.348 246.106 120.447C246.625 120.593 247.114 121.001 247.114 122.203V122.507C247.084 122.96 247.115 123.416 247.207 123.861H246.226C246.107 123.373 246.066 122.869 246.105 122.368V122.23C246.105 121.289 245.845 120.879 244.641 120.879H243.325ZM243.325 120.032H244.767C245.769 120.032 246.2 119.652 246.2 118.916C246.2 118.216 245.747 117.819 244.857 117.819H243.325V120.032Z" fill="white"/>
<path d="M252.148 116.974H254.845C256.331 116.974 256.996 117.758 256.996 118.702C257.014 119.022 256.93 119.339 256.757 119.608C256.585 119.878 256.332 120.085 256.035 120.201C256.381 120.309 256.683 120.527 256.895 120.821C257.108 121.115 257.221 121.471 257.216 121.835C257.216 123.111 256.244 123.861 254.916 123.861H252.149L252.148 116.974ZM254.672 119.81C255.609 119.81 255.977 119.431 255.977 118.795C255.977 118.205 255.553 117.803 254.793 117.803H253.145V119.81H254.672ZM253.146 123.032H254.769C255.618 123.032 256.171 122.639 256.171 121.825C256.171 121.113 255.716 120.64 254.628 120.64H253.145L253.146 123.032Z" fill="white"/>
<path d="M259.996 116.974V121.111C259.996 122.679 260.843 123.112 261.693 123.112C262.685 123.112 263.372 122.641 263.372 121.111V116.974H264.394V121.059C264.394 123.317 263.139 123.95 261.673 123.95C260.223 123.95 258.969 123.27 258.969 121.117V116.974H259.996Z" fill="white"/>
<path d="M267.002 121.925C267.182 122.725 267.729 123.145 268.685 123.145C269.7 123.145 270.107 122.674 270.107 122.053C270.107 121.387 269.771 121.027 268.437 120.705C266.775 120.302 266.235 119.722 266.235 118.761C266.235 117.705 267.014 116.875 268.558 116.875C270.223 116.875 270.904 117.83 270.999 118.755H269.967C269.853 118.181 269.499 117.684 268.524 117.684C267.735 117.684 267.286 118.038 267.286 118.662C267.286 119.277 267.654 119.52 268.837 119.806C270.796 120.282 271.158 121.044 271.158 121.944C271.158 123.082 270.316 123.951 268.614 123.951C266.889 123.951 266.115 123.021 265.969 121.927L267.002 121.925Z" fill="white"/>
<path d="M273.955 116.974V123.861H272.938V116.974H273.955Z" fill="white"/>
<path d="M276.269 123.861V116.974H277.59C278.548 118.572 280.579 121.877 280.949 122.626H280.964C280.896 121.773 280.901 120.666 280.901 119.54V116.974H281.851V123.861H280.605C279.732 122.394 277.593 118.799 277.182 118.023H277.168C277.217 118.773 277.22 119.988 277.22 121.229V123.861H276.269Z" fill="white"/>
<path d="M288.535 120.689H285.155V122.996H288.869L288.741 123.861H284.16V116.974H288.693V117.839H285.154V119.824H288.534L288.535 120.689Z" fill="white"/>
<path d="M291.182 121.925C291.362 122.725 291.909 123.145 292.865 123.145C293.88 123.145 294.287 122.674 294.287 122.053C294.287 121.387 293.951 121.027 292.617 120.705C290.955 120.302 290.415 119.722 290.415 118.761C290.415 117.705 291.194 116.875 292.738 116.875C294.403 116.875 295.084 117.83 295.178 118.755H294.145C294.033 118.181 293.678 117.684 292.703 117.684C291.914 117.684 291.466 118.038 291.466 118.662C291.466 119.277 291.834 119.52 293.015 119.806C294.975 120.282 295.337 121.044 295.337 121.944C295.337 123.082 294.495 123.951 292.793 123.951C291.068 123.951 290.293 123.021 290.147 121.927L291.182 121.925Z" fill="white"/>
<path d="M297.763 121.925C297.943 122.725 298.49 123.145 299.446 123.145C300.461 123.145 300.868 122.674 300.868 122.053C300.868 121.387 300.532 121.027 299.198 120.705C297.536 120.302 296.996 119.722 296.996 118.761C296.996 117.705 297.775 116.875 299.319 116.875C300.984 116.875 301.666 117.83 301.759 118.755H300.727C300.615 118.181 300.26 117.684 299.285 117.684C298.496 117.684 298.048 118.038 298.048 118.662C298.048 119.277 298.416 119.52 299.598 119.806C301.557 120.282 301.919 121.044 301.919 121.944C301.919 123.082 301.077 123.951 299.375 123.951C297.65 123.951 296.875 123.021 296.729 121.927L297.763 121.925Z" fill="white"/>
<path d="M344 51.8176C344.01 53.0631 343.781 54.2981 343.327 55.4499C342.873 56.6017 342.203 57.6469 341.356 58.5241C340.509 59.4013 339.503 60.0927 338.397 60.5575C337.29 61.0224 336.106 61.2513 334.913 61.2309C333.688 61.3127 332.46 61.1314 331.305 60.6983C330.15 60.2651 329.093 59.5893 328.198 58.7125C327.303 57.8357 326.589 56.7766 326.102 55.6005C325.614 54.4245 325.362 53.1566 325.362 51.875C325.362 50.5934 325.614 49.3255 326.102 48.1494C326.589 46.9734 327.303 45.9143 328.198 45.0375C329.093 44.1607 330.15 43.4849 331.305 43.0517C332.46 42.6186 333.688 42.4373 334.913 42.5191C336.096 42.4989 337.272 42.7241 338.371 43.1819C339.47 43.6396 340.472 44.3207 341.317 45.1857C342.162 46.0506 342.835 47.0822 343.295 48.2207C343.756 49.3591 343.996 50.5817 344 51.8176ZM327.988 51.8176C327.958 52.7879 328.116 53.7545 328.454 54.6591C328.791 55.5637 329.301 56.3876 329.951 57.0812C330.602 57.7748 331.38 58.3237 332.239 58.6949C333.098 59.0661 334.02 59.2519 334.95 59.2411C335.86 59.2364 336.761 59.0413 337.598 58.667C338.436 58.2928 339.192 57.7471 339.824 57.0622C340.456 56.3773 340.95 55.5671 341.277 54.6795C341.604 53.7918 341.758 52.8447 341.728 51.8941C341.797 50.9079 341.671 49.9173 341.357 48.9844C341.043 48.0515 340.548 47.1961 339.903 46.4719C339.259 45.7476 338.478 45.1699 337.61 44.7748C336.742 44.3798 335.805 44.1759 334.858 44.1759C333.911 44.1759 332.974 44.3798 332.106 44.7748C331.238 45.1699 330.457 45.7476 329.813 46.4719C329.168 47.1961 328.673 48.0515 328.359 48.9844C328.045 49.9173 327.919 50.9079 327.988 51.8941V51.8176ZM333.484 56.5625H331.432V47.4171C332.554 47.1886 333.697 47.086 334.84 47.111C335.919 47.03 336.999 47.2688 337.954 47.7997C338.227 48.0541 338.443 48.3671 338.589 48.7172C338.734 49.0673 338.805 49.4462 338.797 49.8278C338.766 50.3518 338.569 50.8502 338.237 51.2449C337.906 51.6396 337.458 51.9083 336.965 52.0089C337.41 52.188 337.798 52.495 338.083 52.8945C338.369 53.294 338.54 53.7697 338.577 54.2666C338.676 55.0764 338.899 55.8644 339.237 56.6008H336.892C336.567 55.8696 336.333 55.098 336.195 54.3048C336.195 53.3099 335.499 52.8508 334.363 52.8508H333.374L333.484 56.5625ZM333.484 51.2819H334.437C335.573 51.2819 336.525 50.8992 336.525 49.9043C336.525 48.9094 335.902 48.4885 334.62 48.4885C334.242 48.4491 333.862 48.4491 333.484 48.4885V51.2819Z" fill="white"/>
<defs>
<linearGradient id="paint0_linear_854_59" x1="102.554" y1="67.647" x2="102.63" y2="28.3748" gradientUnits="userSpaceOnUse">
<stop offset="0.006" stop-color="white"/>
<stop offset="0.023" stop-color="#E5E6E7"/>
<stop offset="0.032" stop-color="#DCDCDD"/>
<stop offset="0.076" stop-color="#B3B4B4"/>
<stop offset="0.126" stop-color="#8E8E8F"/>
<stop offset="0.18" stop-color="#6E6E6E"/>
<stop offset="0.24" stop-color="#545353"/>
<stop offset="0.307" stop-color="#3E3D3D"/>
<stop offset="0.386" stop-color="#2E2C2C"/>
<stop offset="0.484" stop-color="#222020"/>
<stop offset="0.62" stop-color="#1B1919"/>
<stop offset="1" stop-color="#1A1818"/>
</linearGradient>
<linearGradient id="paint1_linear_854_59" x1="88.2223" y1="106.205" x2="107.28" y2="104.187" gradientUnits="userSpaceOnUse">
<stop offset="0.006" stop-color="white"/>
<stop offset="0.053" stop-color="#E3E3E3"/>
<stop offset="0.142" stop-color="#B4B4B4"/>
<stop offset="0.238" stop-color="#8B8A8A"/>
<stop offset="0.337" stop-color="#686666"/>
<stop offset="0.441" stop-color="#4B4A4A"/>
<stop offset="0.551" stop-color="#353333"/>
<stop offset="0.672" stop-color="#262424"/>
<stop offset="0.809" stop-color="#1C1A1A"/>
<stop offset="1" stop-color="#1A1818"/>
</linearGradient>
</defs>
</svg>
