<?xml version="1.0" encoding="UTF-8"?>
<svg width="48px" height="42px" viewBox="0 0 48 42" version="1.1" xmlns="http://www.w3.org/2000/svg" xmlns:xlink="http://www.w3.org/1999/xlink">
    <!-- Generator: Sketch 61.2 (89653) - https://sketch.com -->
    <title>ic-devops-engeneers</title>
    <desc>Created with Sketch.</desc>
    <g id="Page-1" stroke="none" stroke-width="1" fill="none" fill-rule="evenodd">
        <g id="DevOps" transform="translate(-770.000000, -10684.000000)" fill="#4BD965" fill-rule="nonzero">
            <path d="M797.963533,10700.0551 C800.282065,10700.0551 802.496158,10701.054 804.038064,10702.7956 C804.176533,10702.9521 804.306189,10703.1148 804.431533,10703.2804 C805.14272,10702.9885 805.909783,10702.8317 806.693814,10702.8317 L806.693814,10702.8317 L812.008126,10702.8317 C813.71597,10702.8317 815.347032,10703.5675 816.482907,10704.8504 C817.618688,10706.1334 818.157188,10707.848 817.960032,10709.5545 L817.960032,10709.5545 L816.77072,10719.8542 C816.675001,10720.6837 815.976657,10721.3092 815.146689,10721.3092 L815.146689,10721.3092 L804.642939,10721.3092 L804.269252,10724.545 C804.173533,10725.3745 803.475189,10726 802.645221,10726 L802.645221,10726 L785.354909,10726 C784.524847,10726 783.826503,10725.3744 783.730784,10724.545 L783.730784,10724.545 L783.357097,10721.3092 L772.853348,10721.3092 C772.023285,10721.3092 771.324942,10720.6836 771.229223,10719.8542 L771.229223,10719.8542 L770.03991,10709.5545 C769.842942,10707.848 770.381254,10706.1334 771.517223,10704.8506 C772.653004,10703.5676 774.284066,10702.8317 775.99191,10702.8317 L775.99191,10702.8317 L781.305941,10702.8317 C782.090066,10702.8317 782.857222,10702.9885 783.568316,10703.2804 C783.693659,10703.1149 783.823316,10702.9521 783.961878,10702.7956 C785.503878,10701.054 787.717878,10700.0551 790.036409,10700.0551 L790.036409,10700.0551 Z M797.963721,10703.3444 L790.036597,10703.3444 C788.650128,10703.3444 787.32619,10703.9418 786.404159,10704.9833 C785.482128,10706.0247 785.044972,10707.4164 785.204909,10708.8018 L785.204909,10708.8018 L786.81094,10722.7106 L801.18919,10722.7106 L802.795221,10708.8018 C802.955064,10707.4164 802.518096,10706.0247 801.596158,10704.9833 C800.674033,10703.9417 799.350096,10703.3444 797.963721,10703.3444 L797.963721,10703.3444 Z M781.306128,10706.121 L775.99191,10706.121 C775.204691,10706.121 774.482723,10706.4468 773.959223,10707.038 C773.435629,10707.6294 773.197316,10708.3884 773.28816,10709.175 L773.28816,10709.175 L774.309379,10718.0197 L782.977222,10718.0197 L781.95666,10709.1812 C781.842285,10708.1913 781.911847,10707.1998 782.147535,10706.2524 C781.880441,10706.166 781.597785,10706.121 781.306128,10706.121 L781.306128,10706.121 Z M812.008126,10706.121 L806.693814,10706.121 C806.402064,10706.121 806.119408,10706.166 805.852502,10706.2524 C806.088283,10707.1998 806.157752,10708.1913 806.043283,10709.1812 L806.043283,10709.1812 L805.022721,10718.0197 L813.69047,10718.0197 L814.711782,10709.175 C814.802626,10708.3884 814.564314,10707.6295 814.040814,10707.038 C813.517314,10706.4468 812.795439,10706.121 812.008126,10706.121 L812.008126,10706.121 Z M778.649066,10692.0684 C781.383378,10692.0684 783.607972,10694.3062 783.607972,10697.0565 C783.607972,10699.8068 781.383378,10702.0445 778.649066,10702.0445 C775.914754,10702.0445 773.690348,10699.8068 773.690348,10697.0565 C773.690348,10694.3061 775.914847,10692.0684 778.649066,10692.0684 Z M809.35097,10692.0684 C812.085283,10692.0684 814.309876,10694.3062 814.309876,10697.0565 C814.309876,10699.8068 812.085283,10702.0445 809.35097,10702.0445 C806.616658,10702.0445 804.392252,10699.8068 804.392252,10697.0565 C804.392252,10694.3061 806.616658,10692.0684 809.35097,10692.0684 Z M778.649066,10695.3579 C777.717941,10695.3579 776.960441,10696.1198 776.960441,10697.0565 C776.960441,10697.9931 777.717847,10698.7552 778.649066,10698.7552 C779.580191,10698.7552 780.337785,10697.9931 780.337878,10697.0565 C780.337878,10696.1199 779.580191,10695.3579 778.649066,10695.3579 Z M809.35097,10695.3579 C808.419939,10695.3579 807.662345,10696.1198 807.662345,10697.0565 C807.662345,10697.9931 808.419845,10698.7552 809.35097,10698.7552 C810.282189,10698.7552 811.039689,10697.9931 811.039783,10697.0565 C811.039783,10696.1199 810.282189,10695.3579 809.35097,10695.3579 Z M793.999971,10684 C797.635315,10684 800.592846,10686.9751 800.592846,10690.6319 C800.592846,10694.2887 797.635409,10697.2637 793.999971,10697.2637 C790.364534,10697.2637 787.407003,10694.2887 787.407003,10690.6319 C787.407003,10686.975 790.364628,10684 793.999971,10684 Z M793.999971,10687.2892 C792.167721,10687.2892 790.677096,10688.7887 790.677096,10690.6317 C790.677096,10692.4748 792.167721,10693.9742 793.999971,10693.9742 C795.832221,10693.9742 797.322846,10692.4748 797.322846,10690.6317 C797.322846,10688.7887 795.832315,10687.2892 793.999971,10687.2892 Z" id="ic-devops-engeneers"></path>
        </g>
    </g>
</svg>