<?xml version="1.0" encoding="UTF-8"?>
<svg width="48px" height="48px" viewBox="0 0 48 48" version="1.1" xmlns="http://www.w3.org/2000/svg" xmlns:xlink="http://www.w3.org/1999/xlink">
    <!-- Generator: Sketch 61.2 (89653) - https://sketch.com -->
    <title>ic-devops-enterprise</title>
    <desc>Created with Sketch.</desc>
    <g id="Page-1" stroke="none" stroke-width="1" fill="none" fill-rule="evenodd">
        <g id="DevOps" transform="translate(-1160.000000, -10681.000000)" fill="#007AFE" fill-rule="nonzero">
            <path d="M1178.46926,10681.872 C1178.76479,10681.1539 1179.58658,10680.8107 1180.30472,10681.1059 L1180.30472,10681.1059 L1204.33457,10690.9829 C1205.05308,10691.2781 1205.39622,10692.0999 1205.10069,10692.818 C1204.8773,10693.3615 1204.35288,10693.69 1203.79953,10693.69 C1203.62155,10693.69 1203.44027,10693.6559 1203.26559,10693.5841 L1203.26559,10693.5841 L1201.80952,10692.9858 L1201.80952,10694.8256 L1204.33493,10695.8634 C1205.05308,10696.1586 1205.39622,10696.9804 1205.10105,10697.6985 C1204.87766,10698.242 1204.35288,10698.5708 1203.79953,10698.5708 C1203.62155,10698.5708 1203.44064,10698.5368 1203.26559,10698.4646 L1203.26559,10698.4646 L1201.80952,10697.8662 L1201.80952,10726.1875 L1206.59374,10726.1875 C1207.37048,10726.1875 1208,10726.817 1208,10727.5938 C1208,10728.3705 1207.37048,10729 1206.59374,10729 L1206.59374,10729 L1161.40626,10729 C1160.62952,10729 1160,10728.3705 1160,10727.5938 C1160,10726.817 1160.62952,10726.1875 1161.40626,10726.1875 L1161.40626,10726.1875 L1166.21025,10726.1875 L1166.21025,10702.4054 C1166.21025,10700.6201 1167.19464,10699.0019 1168.77961,10698.1823 L1168.77961,10698.1823 L1180.7288,10692.0025 L1180.7288,10689.2017 L1179.23574,10688.5879 C1178.51723,10688.2928 1178.17409,10687.471 1178.46962,10686.7525 C1178.76479,10686.0343 1179.58658,10685.6916 1180.30472,10685.9864 L1180.30472,10685.9864 L1180.7288,10686.1607 L1180.7288,10684.3212 L1179.23538,10683.7074 C1178.51723,10683.4119 1178.17409,10682.5905 1178.46926,10681.872 Z M1180.7288,10695.1687 L1170.07161,10700.6802 C1169.42451,10701.0149 1169.02277,10701.6759 1169.02277,10702.4054 L1169.02277,10702.4054 L1169.02277,10704.2742 L1174.8756,10704.2742 C1175.65234,10704.2742 1176.28186,10704.9037 1176.28186,10705.6804 C1176.28186,10706.4572 1175.65234,10707.0867 1174.8756,10707.0867 L1174.8756,10707.0867 L1169.02277,10707.0867 L1169.02277,10709.5099 L1174.8756,10709.5099 C1175.65234,10709.5099 1176.28186,10710.1398 1176.28186,10710.9162 C1176.28186,10711.6929 1175.65234,10712.3224 1174.8756,10712.3224 L1174.8756,10712.3224 L1169.02277,10712.3224 L1169.02277,10714.6724 L1174.8756,10714.6724 C1175.65234,10714.6724 1176.28186,10715.3019 1176.28186,10716.0786 C1176.28186,10716.855 1175.65234,10717.4849 1174.8756,10717.4849 L1174.8756,10717.4849 L1169.02277,10717.4849 L1169.02277,10726.1875 L1173.46934,10726.1875 L1173.46934,10721.7142 C1173.46934,10720.9379 1174.09923,10720.308 1174.8756,10720.308 C1175.65234,10720.308 1176.28186,10720.9379 1176.28186,10721.7142 L1176.28186,10721.7142 L1176.28186,10726.1875 L1180.7288,10726.1875 L1180.7288,10695.1687 Z M1183.54132,10690.3575 L1183.54132,10726.1875 L1187.05038,10726.1875 L1187.05038,10721.7142 C1187.05038,10720.9379 1187.6799,10720.308 1188.45664,10720.308 C1189.23338,10720.308 1189.8629,10720.9379 1189.8629,10721.7142 L1189.8629,10721.7142 L1189.8629,10726.1875 L1192.67542,10726.1875 L1192.67542,10721.7142 C1192.67542,10720.9379 1193.30494,10720.308 1194.08168,10720.308 C1194.85842,10720.308 1195.48794,10720.9379 1195.48794,10721.7142 L1195.48794,10721.7142 L1195.48794,10726.1875 L1198.997,10726.1875 L1198.997,10696.7101 L1183.54132,10690.3575 Z M1188.45371,10711.8211 C1189.23045,10711.8211 1189.85997,10712.4506 1189.85997,10713.2273 L1189.85997,10713.2273 L1189.85997,10716.0779 C1189.85997,10716.8546 1189.23045,10717.4841 1188.45371,10717.4841 C1187.67697,10717.4841 1187.04745,10716.8546 1187.04745,10716.0779 L1187.04745,10716.0779 L1187.04745,10713.2273 C1187.04745,10712.4506 1187.67697,10711.8211 1188.45371,10711.8211 Z M1194.10329,10711.8211 C1194.88003,10711.8211 1195.50955,10712.4506 1195.50955,10713.2273 L1195.50955,10713.2273 L1195.50955,10716.0779 C1195.50955,10716.8546 1194.88003,10717.4841 1194.10329,10717.4841 C1193.32691,10717.4841 1192.69703,10716.8546 1192.69703,10716.0779 L1192.69703,10716.0779 L1192.69703,10713.2273 C1192.69703,10712.4506 1193.32691,10711.8211 1194.10329,10711.8211 Z M1188.43467,10704.2742 C1189.2114,10704.2742 1189.84093,10704.9037 1189.84093,10705.6804 L1189.84093,10705.6804 L1189.84093,10708.531 C1189.84093,10709.3078 1189.2114,10709.9373 1188.43467,10709.9373 C1187.65793,10709.9373 1187.0284,10709.3078 1187.0284,10708.531 L1187.0284,10708.531 L1187.0284,10705.6804 C1187.0284,10704.9037 1187.65829,10704.2742 1188.43467,10704.2742 Z M1194.08461,10704.2742 C1194.86135,10704.2742 1195.49087,10704.9037 1195.49087,10705.6804 L1195.49087,10705.6804 L1195.49087,10708.531 C1195.49087,10709.3078 1194.86135,10709.9373 1194.08461,10709.9373 C1193.30787,10709.9373 1192.67835,10709.3078 1192.67835,10708.531 L1192.67835,10708.531 L1192.67835,10705.6804 C1192.67835,10704.9037 1193.30787,10704.2742 1194.08461,10704.2742 Z M1188.44419,10696.7526 C1189.22093,10696.7526 1189.85045,10697.3821 1189.85045,10698.1588 L1189.85045,10698.1588 L1189.85045,10701.0094 C1189.85045,10701.7858 1189.22093,10702.4157 1188.44419,10702.4157 C1187.66745,10702.4157 1187.03793,10701.7858 1187.03793,10701.0094 L1187.03793,10701.0094 L1187.03793,10698.1588 C1187.03793,10697.3821 1187.66745,10696.7526 1188.44419,10696.7526 Z M1194.09413,10696.7526 C1194.87051,10696.7526 1195.50039,10697.3821 1195.50039,10698.1588 L1195.50039,10698.1588 L1195.50039,10701.0094 C1195.50039,10701.7858 1194.87051,10702.4157 1194.09413,10702.4157 C1193.31739,10702.4157 1192.68787,10701.7858 1192.68787,10701.0094 L1192.68787,10701.0094 L1192.68787,10698.1588 C1192.68787,10697.3821 1193.31739,10696.7526 1194.09413,10696.7526 Z M1183.54132,10685.477 L1183.54132,10687.3168 L1198.997,10693.6695 L1198.997,10691.8296 L1183.54132,10685.477 Z" id="ic-devops-enterprise"></path>
        </g>
    </g>
</svg>