<?xml version="1.0" encoding="UTF-8"?>
<svg width="47px" height="48px" viewBox="0 0 47 48" version="1.1" xmlns="http://www.w3.org/2000/svg" xmlns:xlink="http://www.w3.org/1999/xlink">
    <!-- Generator: Sketch 61.2 (89653) - https://sketch.com -->
    <title>ic-devops-experience</title>
    <desc>Created with Sketch.</desc>
    <g id="Page-1" stroke="none" stroke-width="1" fill="none" fill-rule="evenodd">
        <g id="DevOps" transform="translate(-380.000000, -10681.000000)" fill="#FF9400" fill-rule="nonzero">
            <path d="M418.231938,10681 C419.012913,10681 419.646244,10681.6346 419.646244,10682.4172 L419.646244,10682.4172 L419.646244,10684.0179 L422.225982,10684.0179 C424.747977,10684.0179 426.8,10686.0742 426.8,10688.6018 L426.8,10688.6018 L426.8,10724.4165 C426.8,10726.9437 424.748343,10729 422.225982,10729 L422.225982,10729 L384.574018,10729 C382.052023,10729 380,10726.9437 380,10724.4165 L380,10724.4165 L380,10688.6018 C380,10686.0742 382.052023,10684.0179 384.574018,10684.0179 L384.574018,10684.0179 L387.154122,10684.0179 L387.154122,10682.4172 C387.154122,10681.6346 387.787453,10681 388.568427,10681 C389.349767,10681 389.983099,10681.6346 389.983099,10682.4172 L389.983099,10682.4172 L389.983099,10684.0179 L392.762374,10684.0179 L392.762374,10682.4172 C392.762374,10681.6346 393.395705,10681 394.17668,10681 C394.95802,10681 395.591351,10681.6346 395.591351,10682.4172 L395.591351,10682.4172 L395.591351,10684.0179 L411.20938,10684.0179 L411.20938,10682.4172 C411.20938,10681.6346 411.842711,10681 412.623686,10681 C413.405026,10681 414.038357,10681.6346 414.038357,10682.4172 L414.038357,10682.4172 L414.038357,10684.0179 L416.817632,10684.0179 L416.817632,10682.4172 C416.817632,10681.6346 417.450964,10681 418.231938,10681 Z M423.971023,10695.803 L382.828612,10695.803 L382.828612,10724.4165 C382.828612,10725.3807 383.611779,10726.1655 384.574018,10726.1655 L384.574018,10726.1655 L422.225982,10726.1655 C423.188221,10726.1655 423.971023,10725.3807 423.971023,10724.4165 L423.971023,10724.4165 L423.971023,10695.803 Z M403.400365,10699.7328 C409.591516,10699.7328 414.628199,10704.7799 414.628199,10710.9839 C414.628199,10717.1879 409.591516,10722.2354 403.400365,10722.2354 C397.209214,10722.2354 392.172166,10717.1879 392.172166,10710.9839 C392.172166,10704.7799 397.208849,10699.7328 403.400365,10699.7328 Z M403.400365,10702.5673 C398.768971,10702.5673 395.000778,10706.3429 395.000778,10710.9839 C395.000778,10715.6249 398.768971,10719.4009 403.400365,10719.4009 C408.03176,10719.4009 411.799588,10715.6249 411.799588,10710.9839 C411.799588,10706.3429 408.03176,10702.5673 403.400365,10702.5673 Z M406.348115,10707.4518 C406.900315,10706.8984 407.796043,10706.8984 408.348243,10707.4518 C408.900809,10708.0055 408.900809,10708.9027 408.348243,10709.4564 L408.348243,10709.4564 L403.298769,10714.5164 C403.03345,10714.7822 402.673844,10714.9313 402.298888,10714.9313 C401.923567,10714.9313 401.563961,10714.7819 401.298641,10714.5164 L401.298641,10714.5164 L398.452122,10711.6639 C397.899922,10711.1102 397.899922,10710.2126 398.452122,10709.6593 C399.004688,10709.106 399.90005,10709.106 400.452616,10709.6593 L400.452616,10709.6593 L402.298888,10711.5094 Z M387.154122,10686.8528 L384.574018,10686.8528 C383.611779,10686.8528 382.828612,10687.6372 382.828612,10688.6018 L382.828612,10688.6018 L382.828612,10692.9681 L423.971388,10692.9681 L423.971388,10688.6018 C423.971388,10687.6372 423.188221,10686.8528 422.225982,10686.8528 L422.225982,10686.8528 L419.646609,10686.8528 L419.646609,10688.4535 C419.646609,10689.2361 419.013278,10689.8707 418.231938,10689.8707 C417.450964,10689.8707 416.817632,10689.2361 416.817632,10688.4535 L416.817632,10688.4535 L416.817632,10686.8528 L414.038357,10686.8528 L414.038357,10688.4535 C414.038357,10689.2361 413.405026,10689.8707 412.624051,10689.8707 C411.842711,10689.8707 411.20938,10689.2361 411.20938,10688.4535 L411.20938,10688.4535 L411.20938,10686.8528 L395.591351,10686.8528 L395.591351,10688.4535 C395.591351,10689.2361 394.95802,10689.8707 394.177045,10689.8707 C393.395705,10689.8707 392.762374,10689.2361 392.762374,10688.4535 L392.762374,10688.4535 L392.762374,10686.8528 L389.983099,10686.8528 L389.983099,10688.4535 C389.983099,10689.2361 389.349767,10689.8707 388.568793,10689.8707 C387.787453,10689.8707 387.154122,10689.2361 387.154122,10688.4535 L387.154122,10688.4535 L387.154122,10686.8528 Z" id="ic-devops-experience"></path>
        </g>
    </g>
</svg>