<?xml version="1.0" encoding="UTF-8"?>
<svg width="47px" height="48px" viewBox="0 0 47 48" version="1.1" xmlns="http://www.w3.org/2000/svg" xmlns:xlink="http://www.w3.org/1999/xlink">
    <!-- Generator: Sketch 51.3 (57544) - http://www.bohemiancoding.com/sketch -->
    <title>icon-recreational-activities1</title>
    <desc>Created with Sketch.</desc>
    <defs></defs>
    <g id="Page-1" stroke="none" stroke-width="1" fill="none" fill-rule="evenodd">
        <g id="icon-recreational-activities1" fill="#0F75BC" fill-rule="nonzero">
            <path d="M42.14,4.85 C41.19,4.85 40.27,5.13 39.49,5.66 C35.04,0.65 28.01,-1.19 21.68,1.01 C21.22,0.87 20.76,0.74 20.29,0.64 C11.35,-1.35 2.49,4.28 0.5,13.23 C-0.38,17.17 0.21,21.29 2.16,24.82 C2.21,24.9 2.27,24.98 2.35,25.04 L2.34,25.05 L4.81,27.18 C6.9,29.02 8.23,31.57 8.55,34.34 L5.69,45.32 C5.58,45.74 5.83,46.18 6.26,46.29 C6.27,46.29 6.28,46.3 6.29,46.3 L14.04,47.99 C14.1,47.99 14.15,48 14.21,48 C14.59,48 14.92,47.72 14.99,47.34 L16.96,36.16 C17.95,34.53 19.33,33.18 20.98,32.23 C21.75,33.22 22.36,34.33 22.76,35.52 L22.3,46.86 C22.28,47.3 22.62,47.67 23.06,47.68 C23.07,47.68 23.08,47.68 23.09,47.68 L31.02,47.68 C31.46,47.68 31.81,47.33 31.81,46.89 C31.81,46.88 31.81,46.87 31.81,46.86 L31.36,35.51 C32.26,32.88 34.1,30.67 36.53,29.32 L39.41,27.76 L39.41,27.75 C39.5,27.71 39.57,27.65 39.64,27.58 C42.25,24.57 43.69,20.73 43.72,16.75 C43.71,15.89 43.64,15.02 43.5,14.17 C46.02,13.41 47.44,10.76 46.69,8.24 C46.09,6.23 44.24,4.85 42.14,4.85 Z M2.02,13.71 C3.74,5.87 11.3,0.75 19.22,2.06 C11.16,6.31 8.07,16.28 12.32,24.34 C12.6,24.87 12.91,25.39 13.24,25.88 L3.39,23.74 C1.79,20.66 1.3,17.11 2.02,13.71 Z M5.85,25.97 L5.74,25.88 L10.47,26.91 L9.38,31.11 C8.65,29.13 7.44,27.37 5.85,25.97 Z M7.44,44.92 L7.92,43.09 L13.9,44.42 L13.57,46.25 L7.44,44.92 Z M14.17,42.86 L8.31,41.56 L12.03,27.25 L14.96,27.89 L16.64,28.8 L14.17,42.86 Z M17.54,32.88 L18.11,29.63 C18.75,30.03 19.35,30.5 19.9,31.02 C19.04,31.55 18.25,32.17 17.54,32.88 Z M18.36,27.92 L18.23,27.85 L23.07,27.85 L22.9,32.19 C21.76,30.41 20.2,28.95 18.36,27.92 Z M29.48,27.85 L30.08,42.92 L24.05,42.92 L24.65,27.85 L29.48,27.85 Z M23.93,46.1 L23.99,44.51 L30.14,44.51 L30.2,46.1 L23.93,46.1 Z M31.24,32.19 L31.07,27.85 L35.91,27.85 L35.78,27.92 C33.94,28.95 32.38,30.41 31.24,32.19 Z M38.68,26.27 L15.47,26.27 C10.17,19.88 11.06,10.4 17.46,5.1 C23.72,-0.09 32.98,0.65 38.34,6.75 C36.76,8.84 37.18,11.82 39.27,13.4 C40.04,13.98 40.97,14.31 41.93,14.35 C42.06,15.14 42.13,15.94 42.14,16.74 C42.12,20.23 40.89,23.59 38.68,26.27 Z M42.14,12.78 C40.39,12.78 38.97,11.36 38.97,9.61 C38.97,7.86 40.39,6.44 42.14,6.44 C43.89,6.44 45.31,7.86 45.31,9.61 C45.31,11.36 43.89,12.78 42.14,12.78 Z" id="Shape"></path>
            <path d="M25.48,18.33 L27.07,18.33 C27.07,13.95 30.62,10.4 35,10.4 L35.79,10.4 L35.79,8.82 L35,8.82 C29.75,8.82 25.49,13.08 25.48,18.33 Z" id="Shape"></path>
            <polygon id="Shape" points="25.48 19.92 27.07 19.92 27.07 21.51 25.48 21.51"></polygon>
        </g>
    </g>
</svg>