<?xml version="1.0" encoding="UTF-8"?>
<svg width="44px" height="50px" viewBox="0 0 44 50" version="1.1" xmlns="http://www.w3.org/2000/svg" xmlns:xlink="http://www.w3.org/1999/xlink">
    <!-- Generator: Sketch 51.3 (57544) - http://www.bohemiancoding.com/sketch -->
    <title>icon-rewards</title>
    <desc>Created with Sketch.</desc>
    <defs></defs>
    <g id="Page-1" stroke="none" stroke-width="1" fill="none" fill-rule="evenodd">
        <g id="icon-rewards" fill="#0F75BC" fill-rule="nonzero">
            <path d="M43.01,37.18 C42.16,35.94 40.73,35.63 39.17,36.36 L28.32,41.14 L28.32,41.11 C28.32,41.08 28.32,41.06 28.32,41.03 C28.13,39.12 26.67,37.6 24.77,37.33 C24.76,37.33 24.76,37.33 24.75,37.33 L17.54,36.5 C16.02,36.28 15.27,35.77 13.85,34.95 C11.76,33.73 9.38,33.08 6.96,33.08 L6.51,33.08 L6.51,32.35 C6.51,31.28 5.64,30.4 4.56,30.4 L2.45,30.4 C1.38,30.4 0.5,31.27 0.5,32.35 L0.5,45.84 C0.5,46.91 1.37,47.79 2.45,47.79 L4.56,47.79 C5.6,47.79 6.44,46.98 6.5,45.95 L13.56,48.58 C14.44,48.91 15.37,49.08 16.31,49.08 L26.04,49.08 C27.53,49.08 28.99,48.66 30.25,47.86 L42.42,40.99 C43.28,40.51 44.02,38.67 43.01,37.18 Z M41.66,39.8 L29.55,46.63 C29.54,46.64 29.53,46.64 29.52,46.65 C28.48,47.31 27.28,47.66 26.05,47.66 L16.32,47.66 C15.55,47.66 14.79,47.52 14.06,47.25 L6.51,44.44 L6.51,39.32 C6.51,38.93 6.19,38.61 5.8,38.61 C5.41,38.61 5.1,38.94 5.1,39.33 L5.1,45.84 C5.1,46.14 4.86,46.38 4.56,46.38 L2.45,46.38 C2.15,46.38 1.91,46.14 1.91,45.84 L1.91,32.34 C1.91,32.04 2.15,31.8 2.45,31.8 L4.56,31.8 C4.86,31.8 5.1,32.04 5.1,32.34 L5.1,36.03 C5.1,36.42 5.42,36.74 5.81,36.74 C6.2,36.74 6.52,36.42 6.52,36.03 L6.52,34.48 L6.97,34.48 C9.14,34.48 11.28,35.06 13.15,36.16 C14.65,37.03 15.56,37.64 17.36,37.89 C17.37,37.89 17.37,37.89 17.38,37.89 L24.59,38.72 C25.83,38.9 26.78,39.88 26.92,41.12 L26.92,41.51 C22.73,41.46 21.13,41.65 18.45,41.26 L17.2,41.08 C16.81,41.02 16.46,41.29 16.4,41.68 C16.34,42.07 16.61,42.42 17,42.48 L18.25,42.66 C21.1,43.08 22.74,42.87 27.62,42.93 C27.72,42.93 27.82,42.91 27.9,42.87 L39.76,37.65 C39.77,37.65 39.77,37.64 39.78,37.64 C40.42,37.34 41.3,37.15 41.86,37.97 C42.24,38.55 42.15,39.32 41.66,39.8 Z" id="Shape"></path>
            <path d="M9.23,17.24 C9.8,17.7 10,18.46 9.74,19.15 C9.03,20.99 10.2,23.01 12.14,23.31 C12.62,23.38 13.02,23.65 13.27,24.03 L9.97,30.43 C9.77,30.81 9.81,31.27 10.08,31.61 C10.35,31.95 10.77,32.1 11.19,32 L14.79,31.15 L16.19,34.58 C16.35,34.98 16.72,35.24 17.16,35.26 C17.18,35.26 17.19,35.26 17.21,35.26 C17.62,35.26 17.99,35.04 18.18,34.67 L21.27,28.68 C21.75,28.8 22.24,28.8 22.72,28.68 L25.81,34.67 C26,35.04 26.37,35.26 26.78,35.26 C26.8,35.26 26.81,35.26 26.83,35.26 C27.26,35.24 27.63,34.98 27.8,34.58 L29.2,31.15 L32.8,32 C33.22,32.1 33.65,31.95 33.91,31.61 C34.18,31.27 34.22,30.82 34.02,30.43 L30.72,24.03 C30.97,23.65 31.38,23.38 31.85,23.31 C33.8,23.01 34.96,20.98 34.25,19.15 C33.99,18.47 34.19,17.7 34.76,17.24 C36.29,16.01 36.29,13.67 34.76,12.44 C34.19,11.98 33.99,11.22 34.25,10.54 C34.96,8.7 33.79,6.68 31.85,6.38 C31.13,6.27 30.57,5.71 30.46,4.99 C30.16,3.04 28.13,1.88 26.3,2.59 C25.62,2.85 24.85,2.65 24.39,2.08 C23.16,0.55 20.82,0.55 19.59,2.08 C19.13,2.65 18.37,2.85 17.69,2.59 C15.85,1.88 13.83,3.05 13.53,4.99 C13.42,5.71 12.86,6.27 12.14,6.38 C10.19,6.68 9.03,8.7 9.74,10.54 C10,11.22 9.8,11.99 9.23,12.44 C7.7,13.68 7.7,16.01 9.23,17.24 Z M17.25,33.41 L16.01,30.37 C15.81,29.87 15.27,29.59 14.74,29.72 L11.54,30.47 L13.94,25.82 C14.7,27.08 16.27,27.66 17.69,27.1 C18.37,26.84 19.14,27.04 19.6,27.61 C19.73,27.77 19.87,27.91 20.02,28.04 L17.25,33.41 Z M29.26,29.72 C28.73,29.6 28.2,29.87 27.99,30.37 L26.75,33.41 L23.98,28.03 C24.13,27.9 24.27,27.76 24.4,27.6 C24.86,27.03 25.62,26.83 26.3,27.09 C27.72,27.64 29.3,27.06 30.05,25.81 L32.45,30.46 L29.26,29.72 Z M10.12,13.54 C11.17,12.7 11.55,11.28 11.06,10.03 C10.67,9.03 11.31,7.94 12.36,7.78 C13.69,7.57 14.72,6.54 14.93,5.21 C15.09,4.16 16.19,3.52 17.18,3.91 C18.44,4.4 19.85,4.02 20.69,2.97 C21.36,2.14 22.63,2.14 23.29,2.97 C24.13,4.02 25.55,4.4 26.8,3.91 C27.8,3.52 28.89,4.16 29.05,5.21 C29.26,6.54 30.29,7.57 31.62,7.78 C32.68,7.94 33.31,9.04 32.92,10.03 C32.43,11.29 32.81,12.7 33.86,13.54 C34.69,14.21 34.69,15.48 33.86,16.14 C32.81,16.98 32.43,18.4 32.92,19.65 C33.31,20.65 32.67,21.74 31.62,21.9 C30.29,22.11 29.26,23.14 29.05,24.47 C28.89,25.52 27.79,26.16 26.8,25.77 C25.54,25.28 24.13,25.66 23.29,26.71 C22.62,27.54 21.35,27.54 20.69,26.71 C19.85,25.66 18.44,25.28 17.18,25.77 C16.18,26.16 15.09,25.52 14.93,24.47 C14.72,23.14 13.69,22.11 12.36,21.9 C11.3,21.74 10.67,20.64 11.06,19.65 C11.55,18.39 11.17,16.98 10.12,16.14 C9.29,15.48 9.29,14.21 10.12,13.54 Z" id="Shape"></path>
            <path d="M13.11,15.8 C12.73,15.87 12.47,16.24 12.55,16.62 C13.4,21.16 17.37,24.46 22,24.46 C27.3,24.46 31.62,20.15 31.62,14.84 C31.62,9.53 27.3,5.23 22,5.23 C17.37,5.23 13.4,8.53 12.55,13.07 C12.48,13.45 12.73,13.82 13.11,13.89 C13.49,13.96 13.86,13.71 13.93,13.33 C14.66,9.46 18.05,6.64 22,6.64 C26.52,6.64 30.21,10.32 30.21,14.85 C30.21,19.38 26.53,23.06 22,23.06 C18.05,23.06 14.66,20.25 13.93,16.37 C13.87,15.98 13.5,15.73 13.11,15.8 Z" id="Shape"></path>
            <path d="M27.2,12.22 L24.06,12.08 L22.96,9.14 C22.63,8.26 21.38,8.26 21.05,9.14 L19.95,12.08 L16.81,12.22 C15.87,12.26 15.48,13.45 16.22,14.04 L18.67,16 L17.83,19.03 C17.58,19.94 18.59,20.67 19.37,20.15 L22,18.41 L24.62,20.14 C25.4,20.66 26.42,19.93 26.16,19.02 L25.33,16 L27.79,14.04 C28.52,13.45 28.14,12.26 27.2,12.22 Z M24.25,15.05 C23.93,15.31 23.79,15.72 23.9,16.12 L24.53,18.39 L22.57,17.09 C22.57,17.09 22.57,17.09 22.57,17.09 C22.4,16.98 22.2,16.92 22.01,16.92 C21.81,16.92 21.62,16.98 21.45,17.09 L19.49,18.39 L20.12,16.12 C20.23,15.73 20.09,15.31 19.77,15.05 L17.93,13.58 L20.28,13.48 C20.69,13.46 21.05,13.2 21.19,12.82 L22,10.62 L22.83,12.83 C22.97,13.21 23.33,13.47 23.74,13.49 L26.09,13.59 L24.25,15.05 Z" id="Shape"></path>
        </g>
    </g>
</svg>