<?xml version="1.0" encoding="UTF-8"?>
<svg width="48px" height="48px" viewBox="0 0 48 48" version="1.1" xmlns="http://www.w3.org/2000/svg" xmlns:xlink="http://www.w3.org/1999/xlink">
    <!-- Generator: Sketch 51.3 (57544) - http://www.bohemiancoding.com/sketch -->
    <title>icon-tour-and-picnics</title>
    <desc>Created with Sketch.</desc>
    <defs></defs>
    <g id="Page-1" stroke="none" stroke-width="1" fill="none" fill-rule="evenodd">
        <g id="icon-tour-and-picnics" fill="#0F75BC" fill-rule="nonzero">
            <path d="M23.43,46.63 L21.1,45.85 L21.1,30.86 C21.97,29.97 22.51,28.76 22.51,27.42 L22.51,18.04 C22.51,16.62 21.35,15.46 19.93,15.46 L15.24,15.46 C13.82,15.46 12.66,16.62 12.66,18.04 L12.66,27.42 C12.66,28.76 13.2,29.97 14.07,30.86 L14.07,46.36 C14.07,46.66 14.26,46.93 14.55,47.03 L17.36,47.97 C17.43,47.99 17.5,48 17.58,48 C17.87,48 18.15,47.81 18.25,47.52 C18.37,47.15 18.17,46.75 17.81,46.63 L15.48,45.85 L15.48,31.87 C16.12,32.17 16.83,32.35 17.59,32.35 C18.34,32.35 19.06,32.18 19.7,31.87 L19.7,46.36 C19.7,46.66 19.89,46.93 20.18,47.03 L22.99,47.97 C23.05,47.99 23.13,48 23.2,48 C23.49,48 23.77,47.81 23.87,47.52 C23.99,47.15 23.79,46.75 23.43,46.63 Z M14.06,18.05 C14.06,17.4 14.59,16.88 15.23,16.88 L19.92,16.88 C20.57,16.88 21.09,17.41 21.09,18.05 L21.09,26.72 L14.06,26.72 L14.06,18.05 Z M17.58,30.94 C15.88,30.94 14.46,29.73 14.14,28.13 L21.03,28.13 C20.7,29.73 19.28,30.94 17.58,30.94 Z" id="Shape"></path>
            <path d="M17.58,4.22 C14.87,4.22 12.66,6.43 12.66,9.14 C12.66,11.85 14.87,14.06 17.58,14.06 C20.29,14.06 22.5,11.85 22.5,9.14 C22.5,6.43 20.29,4.22 17.58,4.22 Z M17.58,12.66 C15.64,12.66 14.06,11.08 14.06,9.14 C14.06,7.2 15.64,5.62 17.58,5.62 C19.52,5.62 21.1,7.2 21.1,9.14 C21.1,11.08 19.52,12.66 17.58,12.66 Z" id="Shape"></path>
            <path d="M8.42,4.69 C8.87,4.19 9.14,3.53 9.14,2.81 C9.14,1.26 7.88,0 6.33,0 C4.78,0 3.52,1.26 3.52,2.81 C3.52,3.53 3.79,4.19 4.24,4.69 C2.56,5.48 1.41,7.18 1.41,9.14 C1.41,11.85 3.62,14.06 6.33,14.06 C9.04,14.06 11.25,11.85 11.25,9.14 C11.25,7.18 10.09,5.48 8.42,4.69 Z M6.33,1.41 C7.11,1.41 7.74,2.04 7.74,2.82 C7.74,3.6 7.1,4.22 6.33,4.22 C5.56,4.22 4.92,3.59 4.92,2.81 C4.92,2.03 5.55,1.41 6.33,1.41 Z M6.33,5.63 C7.14,5.63 7.89,5.91 8.49,6.37 C7.19,7.25 5.47,7.25 4.17,6.37 C4.77,5.9 5.51,5.63 6.33,5.63 Z M6.33,12.66 C4.39,12.66 2.81,11.08 2.81,9.14 C2.81,8.52 2.97,7.95 3.25,7.44 C4.16,8.1 5.25,8.44 6.33,8.44 C7.41,8.44 8.49,8.11 9.41,7.44 C9.69,7.94 9.85,8.52 9.85,9.14 C9.84,11.08 8.27,12.66 6.33,12.66 Z" id="Shape"></path>
            <path d="M12.18,46.63 L9.85,45.85 L9.85,33.75 L10.55,33.75 C10.94,33.75 11.25,33.44 11.25,33.05 L11.25,18.05 C11.25,16.63 10.09,15.47 8.67,15.47 L3.98,15.47 C2.56,15.47 1.4,16.63 1.4,18.05 L1.4,24.36 C0.5,25.48 0,26.88 0,28.33 L0,33.05 C0,33.44 0.31,33.75 0.7,33.75 L2.81,33.75 L2.81,46.36 C2.81,46.66 3,46.93 3.29,47.03 L6.1,47.97 C6.18,47.99 6.25,48 6.33,48 C6.62,48 6.9,47.81 7,47.52 C7.12,47.15 6.92,46.75 6.56,46.63 L4.23,45.85 L4.23,33.75 L8.45,33.75 L8.45,46.36 C8.45,46.66 8.64,46.93 8.93,47.03 L11.74,47.97 C11.8,47.99 11.88,48 11.95,48 C12.24,48 12.52,47.81 12.62,47.52 C12.74,47.15 12.54,46.75 12.18,46.63 Z M2.81,18.05 C2.81,17.4 3.34,16.88 3.98,16.88 L8.67,16.88 C9.32,16.88 9.84,17.41 9.84,18.05 L9.84,23.91 L2.81,23.91 L2.81,18.05 Z M1.41,32.34 L1.41,28.32 C1.41,27.22 1.78,26.17 2.44,25.3 L9.84,25.3 L9.84,32.33 L1.41,32.33 L1.41,32.34 Z" id="Shape"></path>
            <path d="M31.67,2.89 L26.04,0.08 C25.82,-0.03 25.56,-0.02 25.36,0.11 C25.15,0.24 25.03,0.46 25.03,0.71 L25.03,6.32 C25.03,6.33 25.03,6.34 25.03,6.35 L25.03,9.62 C25.03,10.01 25.34,10.32 25.73,10.32 C26.12,10.32 26.43,10.01 26.43,9.62 L26.43,6.76 L31.67,4.14 C31.91,4.02 32.06,3.78 32.06,3.51 C32.06,3.24 31.91,3.01 31.67,2.89 Z M26.44,5.19 L26.44,1.84 L29.79,3.51 L26.44,5.19 Z" id="Shape"></path>
            <path d="M43.22,17.38 C43.01,16.58 42.41,15.93 41.64,15.64 C42.66,14.74 43.3,13.42 43.3,11.96 L43.3,9.14 C43.3,6.43 41.09,4.22 38.38,4.22 C35.67,4.22 33.46,6.43 33.46,9.14 L33.46,11.95 C33.46,13.41 34.1,14.73 35.12,15.63 C34.36,15.92 33.78,16.55 33.56,17.34 L31.35,17.34 C28.64,17.34 26.43,15.13 26.43,12.42 C26.43,12.03 26.12,11.72 25.73,11.72 C25.34,11.72 25.03,12.03 25.03,12.42 C25.03,15.91 27.87,18.75 31.36,18.75 L33.47,18.75 L33.47,27.42 C33.47,28.76 34.01,29.97 34.88,30.86 L34.88,45.85 L32.55,46.63 C32.18,46.75 31.98,47.15 32.11,47.52 C32.21,47.81 32.48,48 32.78,48 C32.85,48 32.93,47.99 33,47.96 L35.81,47.02 C36.1,46.92 36.29,46.66 36.29,46.35 L36.29,31.87 C36.93,32.17 37.64,32.35 38.4,32.35 C39.15,32.35 39.87,32.18 40.51,31.87 L40.51,45.85 L38.18,46.63 C37.81,46.75 37.61,47.15 37.74,47.52 C37.84,47.81 38.11,48 38.41,48 C38.48,48 38.56,47.99 38.63,47.96 L41.44,47.02 C41.73,46.92 41.92,46.66 41.92,46.35 L41.92,30.85 C42.64,30.11 43.14,29.15 43.28,28.07 C45.94,27.74 48.01,25.47 48.01,22.72 C48,19.97 45.91,17.69 43.22,17.38 Z M34.88,9.14 C34.88,7.2 36.46,5.62 38.4,5.62 C40.34,5.62 41.92,7.2 41.92,9.14 L41.92,9.37 L40.5,9.37 C39.97,8.78 39.21,8.43 38.4,8.43 C37.59,8.43 36.83,8.77 36.3,9.37 L34.88,9.37 L34.88,9.14 Z M34.88,11.95 L34.88,10.78 L36.64,10.78 C36.87,10.78 37.09,10.66 37.22,10.47 C37.48,10.08 37.92,9.84 38.39,9.84 C38.86,9.84 39.3,10.07 39.56,10.47 C39.69,10.66 39.91,10.78 40.14,10.78 L41.9,10.78 L41.9,11.95 C41.9,13.89 40.32,15.47 38.38,15.47 C36.45,15.47 34.88,13.89 34.88,11.95 Z M39.54,16.88 L38.39,18.95 L37.24,16.88 L39.54,16.88 Z M38.39,30.94 C36.69,30.94 35.27,29.73 34.95,28.13 L41.84,28.13 C41.51,29.73 40.09,30.94 38.39,30.94 Z M41.91,26.72 L39.1,26.72 L39.1,23.2 C39.1,22.81 38.79,22.5 38.4,22.5 C38.01,22.5 37.7,22.81 37.7,23.2 L37.7,26.72 L34.89,26.72 L34.89,18.05 C34.89,17.54 35.22,17.1 35.68,16.94 L37.79,20.73 C37.91,20.95 38.15,21.09 38.4,21.09 C38.65,21.09 38.89,20.95 39.01,20.73 L41.12,16.94 C41.58,17.1 41.91,17.53 41.91,18.05 L41.91,26.72 Z M43.31,26.66 L43.31,18.82 C45.17,19.15 46.59,20.78 46.59,22.74 C46.59,24.69 45.18,26.32 43.31,26.66 Z" id="Shape"></path>
        </g>
    </g>
</svg>