<?xml version="1.0" encoding="UTF-8"?>
<svg width="42px" height="48px" viewBox="0 0 42 48" version="1.1" xmlns="http://www.w3.org/2000/svg" xmlns:xlink="http://www.w3.org/1999/xlink">
    <!-- Generator: Sketch 51.3 (57544) - http://www.bohemiancoding.com/sketch -->
    <title>icon-flexible-hours</title>
    <desc>Created with Sketch.</desc>
    <defs></defs>
    <g id="Page-1" stroke="none" stroke-width="1" fill="none" fill-rule="evenodd">
        <g id="icon-flexible-hours" fill="#0F75BC" fill-rule="nonzero">
            <path d="M33.74,3.28 L38.89,7.21 C39.33,7.55 39.67,7.99 39.87,8.5 C40.01,8.86 40.42,9.04 40.78,8.89 C41.14,8.75 41.31,8.34 41.17,7.98 C40.88,7.23 40.38,6.58 39.74,6.09 L39.04,5.55 L39.72,4.66 C40.51,3.63 40.31,2.15 39.28,1.36 C38.78,0.98 38.16,0.81 37.54,0.9 C36.92,0.98 36.36,1.31 35.98,1.81 L35.3,2.7 L34.6,2.16 C33.22,1.11 31.42,1 29.96,1.71 L29.79,1.53 C28.91,0.61 27.68,0.08 26.4,0.08 L15.87,0.08 C14.6,0.08 13.36,0.61 12.48,1.53 L12.31,1.71 C10.85,0.99 9.05,1.11 7.67,2.16 L6.97,2.7 L6.29,1.81 C5.5,0.78 4.02,0.58 2.99,1.37 C2.49,1.75 2.16,2.3 2.08,2.93 C2,3.55 2.16,4.17 2.54,4.67 L3.22,5.56 L2.52,6.1 C0.58,7.58 0.21,10.36 1.69,12.3 L2.58,13.47 C2.77,13.72 3.04,13.88 3.35,13.92 C3.65,13.96 3.96,13.88 4.21,13.69 L8.82,10.17 L9.83,11.49 C5,14.99 1.86,20.68 1.86,27.09 C1.86,32.47 4.08,37.35 7.65,40.85 L6.43,44.38 C6.01,45.61 6.52,46.95 7.66,47.58 C8.07,47.81 8.51,47.91 8.95,47.91 C9.73,47.91 10.5,47.56 11.02,46.92 L12.94,44.54 C15.42,45.71 18.2,46.36 21.12,46.36 C24,46.36 26.79,45.72 29.3,44.54 L31.22,46.92 C31.74,47.57 32.51,47.91 33.29,47.91 C33.73,47.91 34.17,47.8 34.58,47.58 C35.72,46.95 36.23,45.61 35.81,44.38 L34.6,40.85 C35.98,39.5 37.17,37.93 38.11,36.17 C38.29,35.83 38.16,35.41 37.83,35.22 C37.49,35.04 37.07,35.17 36.88,35.5 C33.75,41.33 27.71,44.95 21.12,44.95 C11.26,44.95 3.24,36.93 3.24,27.07 C3.24,17.21 11.27,9.21 21.13,9.21 C30.99,9.21 39.01,17.23 39.01,27.09 C39.01,29.02 38.7,30.91 38.1,32.73 C37.98,33.1 38.18,33.49 38.54,33.61 C38.91,33.73 39.3,33.53 39.42,33.17 C40.07,31.21 40.4,29.17 40.4,27.09 C40.4,20.68 37.26,15 32.43,11.49 L33.44,10.17 L38.05,13.69 C38.54,14.08 39.31,13.98 39.68,13.47 L40.57,12.3 C40.7,12.13 40.81,11.96 40.91,11.78 C41.1,11.44 40.98,11.02 40.64,10.83 C40.3,10.64 39.88,10.76 39.69,11.1 C39.62,11.22 39.54,11.35 39.45,11.46 L38.7,12.44 L28.74,4.84 L29.49,3.86 C30.51,2.52 32.41,2.27 33.74,3.28 Z M37.08,2.66 C37.4,2.24 38,2.16 38.43,2.48 C38.85,2.8 38.93,3.4 38.61,3.83 L37.93,4.72 L36.4,3.55 L37.08,2.66 Z M34.51,44.83 C34.71,45.41 34.46,46.05 33.92,46.35 C33.38,46.65 32.71,46.52 32.32,46.04 L30.58,43.88 C31.61,43.3 32.58,42.63 33.49,41.87 L34.51,44.83 Z M9.94,46.04 C9.55,46.52 8.88,46.65 8.34,46.35 C7.8,46.05 7.55,45.41 7.75,44.83 L8.77,41.86 C9.67,42.62 10.65,43.29 11.68,43.88 L9.94,46.04 Z M3.65,3.82 C3.5,3.62 3.43,3.37 3.46,3.11 C3.49,2.85 3.63,2.63 3.83,2.47 C4.25,2.15 4.85,2.23 5.18,2.65 L5.86,3.54 L4.33,4.72 L3.65,3.82 Z M3.54,12.43 L2.8,11.45 C1.79,10.12 2.04,8.22 3.37,7.21 L8.52,3.28 C9.07,2.86 9.71,2.66 10.35,2.66 C11.26,2.66 12.16,3.07 12.76,3.85 L13.51,4.83 L3.54,12.43 Z M27.27,5.03 C27.31,5.34 27.47,5.61 27.72,5.8 L32.33,9.32 L31.27,10.71 C28.51,8.99 25.28,7.96 21.83,7.83 L21.83,6.15 L24.25,6.15 C24.64,6.15 24.95,5.84 24.95,5.45 C24.95,5.06 24.64,4.75 24.25,4.75 L18,4.75 C17.61,4.75 17.3,5.06 17.3,5.45 C17.3,5.84 17.61,6.15 18,6.15 L20.42,6.15 L20.42,7.83 C16.96,7.95 13.74,8.99 10.98,10.71 L9.92,9.32 L14.53,5.8 C14.78,5.61 14.94,5.34 14.98,5.03 C15.02,4.72 14.94,4.42 14.75,4.17 L13.87,3 C13.74,2.83 13.6,2.68 13.46,2.53 L13.5,2.5 C14.11,1.85 14.98,1.48 15.87,1.48 L26.39,1.48 C27.28,1.48 28.15,1.85 28.76,2.5 L28.8,2.54 C28.65,2.68 28.52,2.84 28.39,3.01 L27.5,4.17 C27.31,4.42 27.23,4.72 27.27,5.03 Z" id="Shape"></path>
            <path d="M9.65,16.38 C9.36,16.13 8.92,16.16 8.67,16.46 C6.14,19.42 4.75,23.2 4.75,27.09 C4.75,36.13 12.1,43.48 21.14,43.48 C30.18,43.48 37.53,36.13 37.53,27.09 C37.53,18.05 30.17,10.7 21.13,10.7 C17.48,10.7 14.02,11.88 11.13,14.11 C10.82,14.35 10.77,14.78 11,15.09 C11.24,15.39 11.67,15.45 11.98,15.22 C14.62,13.18 17.79,12.1 21.13,12.1 C29.4,12.1 36.12,18.82 36.12,27.09 C36.12,35.36 29.4,42.08 21.13,42.08 C12.86,42.08 6.14,35.35 6.14,27.09 C6.14,23.53 7.41,20.08 9.73,17.37 C9.98,17.07 9.94,16.63 9.65,16.38 Z" id="Shape"></path>
            <path d="M21.13,15.42 C20.74,15.42 20.43,15.73 20.43,16.12 L20.43,23.83 C19.15,24.1 18.14,25.11 17.87,26.39 L14.3,26.39 C13.91,26.39 13.6,26.7 13.6,27.09 C13.6,27.48 13.91,27.79 14.3,27.79 L17.87,27.79 C18.19,29.3 19.53,30.43 21.13,30.43 C22.97,30.43 24.47,28.93 24.47,27.09 C24.47,25.49 23.34,24.15 21.83,23.83 L21.83,16.12 C21.83,15.73 21.51,15.42 21.13,15.42 Z M23.07,27.09 C23.07,28.16 22.2,29.03 21.13,29.03 C20.06,29.03 19.19,28.16 19.19,27.09 C19.19,26.02 20.06,25.15 21.13,25.15 C22.2,25.15 23.07,26.02 23.07,27.09 Z" id="Shape"></path>
            <path d="M16.88,22 C16.53,21.84 16.12,22 15.96,22.36 C15.77,22.8 15.33,23.08 14.85,23.08 C14.37,23.08 13.93,22.8 13.74,22.36 C13.58,22 13.17,21.84 12.81,22 C12.46,22.16 12.3,22.57 12.45,22.92 C12.87,23.87 13.81,24.48 14.84,24.48 C15.87,24.48 16.81,23.87 17.23,22.92 C17.39,22.57 17.23,22.15 16.88,22 Z" id="Shape"></path>
            <path d="M27.41,24.48 C28.44,24.48 29.38,23.87 29.8,22.92 C29.96,22.57 29.8,22.16 29.44,22 C29.09,21.84 28.68,22 28.52,22.36 C28.33,22.8 27.89,23.08 27.41,23.08 C26.93,23.08 26.49,22.8 26.3,22.36 C26.14,22 25.73,21.84 25.38,22 C25.03,22.16 24.87,22.57 25.02,22.92 C25.44,23.86 26.38,24.48 27.41,24.48 Z" id="Shape"></path>
            <path d="M13.81,29.63 C13.65,29.28 13.24,29.12 12.89,29.27 C12.54,29.43 12.38,29.84 12.53,30.19 C14.04,33.59 17.41,35.79 21.13,35.79 C24.85,35.79 28.22,33.59 29.73,30.19 C29.89,29.84 29.73,29.43 29.37,29.27 C29.02,29.11 28.61,29.27 28.45,29.63 C27.17,32.53 24.29,34.4 21.13,34.4 C17.96,34.4 15.09,32.53 13.81,29.63 Z" id="Shape"></path>
        </g>
    </g>
</svg>