<?xml version="1.0" encoding="UTF-8"?>
<svg width="47px" height="48px" viewBox="0 0 47 48" version="1.1" xmlns="http://www.w3.org/2000/svg" xmlns:xlink="http://www.w3.org/1999/xlink">
    <!-- Generator: Sketch 51.3 (57544) - http://www.bohemiancoding.com/sketch -->
    <title>icon-five-days-week</title>
    <desc>Created with Sketch.</desc>
    <defs></defs>
    <g id="Page-1" stroke="none" stroke-width="1" fill="none" fill-rule="evenodd">
        <g id="icon-five-days-week" transform="translate(-1.000000, 0.000000)" fill="#0F75BC" fill-rule="nonzero">
            <path d="M10.3296,42.19 C9.8784,42.19 9.7152,41.85 9.5232,41.51 C9.3216,41.15 9.4368,40.69 9.7824,40.48 C10.128,40.27 10.5696,40.39 10.7712,40.75 C10.8384,40.86 10.8864,40.95 10.9344,41.03 C11.2416,41.54 10.8864,42.19 10.3296,42.19 Z" id="Shape"></path>
            <path d="M22.9536,48 L20.4,48 C17.0976,48 13.9776,46.68 11.616,44.28 C11.328,43.99 11.328,43.52 11.6064,43.22 C11.8848,42.92 12.336,42.92 12.624,43.21 C14.7168,45.33 17.4816,46.5 20.4,46.5 L22.9536,46.5 C26.2176,46.5 29.2896,45.18 31.6032,42.77 L45.0144,28.05 C46.2816,26.65 45.2928,24.75 43.776,24.75 C41.904,24.75 40.1472,25.5 38.8224,26.88 L34.9344,31.68 C33.7728,33.12 31.2096,32.28 31.2096,30.14 L31.2096,26.15 C31.2096,26 30.8928,27.27 35.952,7.62 C36.384,5.96 35.1744,4.32 33.5136,4.32 C32.4672,4.32 31.4304,5 31.0752,6.28 L26.1408,24.22 C25.9104,25.05 24.7296,24.88 24.7296,24.01 L24.7296,4.13 C24.7296,1.78 22.0032,0.64 20.4288,2.27 C19.9584,2.77 19.6896,3.43 19.6896,4.13 L19.6896,23.42 C19.6896,24.29 18.4896,24.46 18.2784,23.61 L14.016,7.11 C13.8432,6.43 13.4208,5.87 12.8448,5.52 C11.1552,4.5 9.0624,5.79 9.0624,7.79 C9.0624,8.28 8.7264,6.84 13.5072,25.4 C13.728,26.24 12.6048,26.72 12.192,25.97 L6.432,15.58 C5.3472,13.62 2.4,14.39 2.4,16.71 C2.4,17.1 2.496,17.49 2.688,17.83 L6.7296,25.12 C8.3712,28.08 9.2352,31.45 9.2352,34.87 C9.2352,35.99 9.3888,37.1 9.6864,38.17 C9.8016,38.57 9.5808,38.98 9.1968,39.1 C8.8128,39.22 8.4192,38.99 8.304,38.59 C7.968,37.39 7.7952,36.13 7.7952,34.87 C7.7952,31.71 6.9984,28.6 5.4816,25.87 L1.44,18.58 C0.432,16.76 1.0656,14.47 2.7552,13.46 C4.4736,12.43 6.6816,13.04 7.6704,14.83 L10.6944,20.28 L7.7568,8.86 C7.1904,6.64 8.4576,4.39 10.56,3.81 C12.672,3.22 14.8416,4.52 15.408,6.73 L18.24,17.73 L18.24,4.13 C18.24,1.86 19.9968,0 22.1952,0 C24.3744,0 26.1504,1.85 26.1504,4.12 L26.1504,18.66 L29.6736,5.85 C30.1344,4.05 31.7088,2.8 33.4944,2.8 C36.1056,2.8 37.9872,5.39 37.3248,7.99 L32.64,26.24 L32.64,30.13 C32.64,30.79 33.3984,31.12 33.8496,30.68 C36.5568,27.34 37.7472,25.87 37.776,25.84 C39.3792,24.17 41.5104,23.25 43.776,23.25 C46.6176,23.25 48.192,26.85 46.0608,29.09 C32.1792,44.31 32.6304,43.81 32.6208,43.82 C30.0384,46.51 26.6016,48 22.9536,48 Z" id="Shape"></path>
            <path d="M20.4,43.4 C20.0064,43.4 19.68,43.06 19.68,42.65 C19.68,36.66 23.9712,31.55 29.664,30.76 C30.0576,30.71 30.4224,30.99 30.4704,31.4 C30.5184,31.81 30.2496,32.19 29.856,32.24 C24.8736,32.93 21.12,37.4 21.12,42.65 C21.12,43.07 20.7936,43.4 20.4,43.4 Z" id="Shape"></path>
        </g>
    </g>
</svg>