<?xml version="1.0" encoding="UTF-8"?>
<svg width="46px" height="48px" viewBox="0 0 46 48" version="1.1" xmlns="http://www.w3.org/2000/svg" xmlns:xlink="http://www.w3.org/1999/xlink">
    <!-- Generator: Sketch 51.3 (57544) - http://www.bohemiancoding.com/sketch -->
    <title>icon-gym-membership</title>
    <desc>Created with Sketch.</desc>
    <defs></defs>
    <g id="Page-1" stroke="none" stroke-width="1" fill="none" fill-rule="evenodd">
        <g id="icon-gym-membership" fill="#0F75BC" fill-rule="nonzero">
            <path d="M23,18.12 C20.46,18.12 18.4,16.06 18.4,13.52 C18.4,10.98 20.46,8.92 23,8.92 C25.54,8.92 27.6,10.98 27.6,13.52 C27.6,16.06 25.54,18.12 23,18.12 Z M23,10.45 C21.31,10.45 19.93,11.83 19.93,13.52 C19.93,15.21 21.31,16.59 23,16.59 C24.69,16.59 26.07,15.21 26.07,13.52 C26.07,11.83 24.69,10.45 23,10.45 Z" id="Shape"></path>
            <path d="M28.49,23.74 C28.27,23.74 28.05,23.64 27.9,23.46 C27.63,23.13 27.68,22.65 28.01,22.38 C28.08,22.32 28.14,22.25 28.19,22.17 L35.5,9.08 C35.61,8.89 35.64,8.69 35.58,8.49 C35.53,8.29 35.4,8.13 35.22,8.02 C34.85,7.81 34.38,7.93 34.17,8.3 L27.75,19.78 C27.54,20.15 27.08,20.28 26.71,20.07 C26.34,19.86 26.21,19.4 26.41,19.03 L32.83,7.54 C33.47,6.43 34.88,6.05 35.98,6.69 C36.51,7 36.89,7.49 37.05,8.09 C37.21,8.68 37.13,9.3 36.82,9.84 L29.5,22.93 C29.35,23.18 29.18,23.39 28.96,23.57 C28.83,23.69 28.66,23.74 28.49,23.74 Z" id="Shape"></path>
            <path d="M6.84,47.52 C6.26,47.52 5.68,47.3 5.24,46.87 C4.8,46.44 4.55,45.87 4.55,45.25 C4.54,44.64 4.77,44.06 5.2,43.62 L13.57,34.8 C13.86,34.49 14.35,34.48 14.65,34.77 C14.96,35.06 14.97,35.55 14.68,35.85 L6.3,44.68 C6,44.99 6,45.48 6.31,45.77 C6.61,46.07 7.1,46.06 7.39,45.76 L15.84,36.85 C16.13,36.54 16.62,36.53 16.92,36.82 C17.23,37.11 17.24,37.6 16.95,37.9 L8.5,46.82 C8.04,47.28 7.44,47.52 6.84,47.52 Z" id="Shape"></path>
            <path d="M17.76,23.74 C17.59,23.74 17.42,23.68 17.27,23.57 C17.06,23.4 16.88,23.19 16.74,22.95 L9.42,9.83 C8.79,8.74 9.17,7.33 10.27,6.7 C11.37,6.07 12.78,6.44 13.41,7.54 L19.84,19.04 C20.05,19.41 19.91,19.88 19.54,20.08 C19.17,20.29 18.7,20.16 18.5,19.79 L12.07,8.3 C11.86,7.94 11.39,7.82 11.03,8.03 C10.66,8.24 10.54,8.71 10.75,9.08 L18.08,22.19 C18.12,22.26 18.18,22.33 18.25,22.39 C18.58,22.66 18.62,23.14 18.35,23.47 C18.2,23.65 17.98,23.74 17.76,23.74 Z" id="Shape"></path>
            <path d="M34.5,47.25 C34.37,47.25 34.25,47.24 34.12,47.22 C33.51,47.12 32.98,46.79 32.63,46.29 C32.27,45.79 32.13,45.18 32.23,44.58 L33.47,37.14 L30.86,35.98 C30.47,35.81 30.3,35.35 30.47,34.97 C30.64,34.58 31.09,34.41 31.48,34.58 L34.63,35.98 C34.95,36.12 35.13,36.46 35.07,36.81 L33.73,44.84 C33.7,45.04 33.74,45.25 33.86,45.41 C33.98,45.58 34.16,45.69 34.36,45.72 C34.78,45.79 35.17,45.5 35.24,45.09 L36.77,35.89 C36.83,35.54 36.64,35.2 36.33,35.06 L31.61,32.96 C31.22,32.79 31.05,32.33 31.22,31.95 C31.39,31.56 31.85,31.39 32.23,31.56 L36.95,33.66 C37.91,34.09 38.46,35.11 38.28,36.14 L36.75,45.34 C36.58,46.44 35.63,47.25 34.5,47.25 Z" id="Shape"></path>
            <path d="M18.03,39.11 C17.84,39.11 17.65,39.04 17.51,38.9 L13.02,34.72 C12.86,34.57 12.77,34.37 12.78,34.15 C12.78,33.94 12.87,33.73 13.03,33.59 L17.6,29.45 L16.87,21.61 C16.87,20.07 18.06,18.87 19.53,18.87 L26.46,18.87 C27.93,18.87 29.13,20.07 29.13,21.54 C29.13,21.57 29.13,21.59 29.13,21.62 L28.42,28.45 L32.46,30.15 C32.83,30.31 33.02,30.73 32.89,31.11 L31.11,36.21 C31.04,36.41 30.89,36.58 30.69,36.66 C30.49,36.74 30.27,36.74 30.07,36.65 L23.33,33.6 L18.61,38.84 C18.47,38.99 18.28,39.08 18.07,39.09 C18.06,39.11 18.05,39.11 18.03,39.11 Z M14.68,34.18 L17.99,37.26 L22.56,32.18 C22.78,31.93 23.14,31.86 23.45,31.99 L29.94,34.93 L31.21,31.3 L27.31,29.66 C27,29.53 26.81,29.21 26.84,28.87 L27.6,21.52 C27.58,20.91 27.08,20.42 26.47,20.42 L19.54,20.42 C18.91,20.42 18.41,20.93 18.41,21.55 L19.17,29.7 C19.19,29.94 19.1,30.18 18.92,30.34 L14.68,34.18 Z" id="Shape"></path>
            <path d="M38.33,8.15 L7.67,8.15 C7.25,8.15 6.9,7.81 6.9,7.38 C6.9,6.95 7.24,6.61 7.67,6.61 L38.34,6.61 C38.76,6.61 39.11,6.95 39.11,7.38 C39.11,7.81 38.76,8.15 38.33,8.15 Z" id="Shape"></path>
            <path d="M7.67,14.28 L5.37,14.28 C4.95,14.28 4.6,13.94 4.6,13.51 L4.6,1.25 C4.6,0.83 4.94,0.48 5.37,0.48 L7.67,0.48 C8.09,0.48 8.44,0.82 8.44,1.25 L8.44,13.52 C8.43,13.94 8.09,14.28 7.67,14.28 Z M6.13,12.75 L6.9,12.75 L6.9,2.02 L6.13,2.02 L6.13,12.75 Z" id="Shape"></path>
            <path d="M5.37,14.28 L3.07,14.28 C2.65,14.28 2.3,13.94 2.3,13.51 L2.3,1.25 C2.3,0.83 2.64,0.48 3.07,0.48 L5.37,0.48 C5.79,0.48 6.14,0.82 6.14,1.25 L6.14,13.52 C6.13,13.94 5.79,14.28 5.37,14.28 Z M3.83,12.75 L4.6,12.75 L4.6,2.02 L3.83,2.02 L3.83,12.75 Z" id="Shape"></path>
            <path d="M42.93,14.28 L40.63,14.28 C40.21,14.28 39.86,13.94 39.86,13.51 L39.86,1.25 C39.86,0.83 40.2,0.48 40.63,0.48 L42.93,0.48 C43.35,0.48 43.7,0.82 43.7,1.25 L43.7,13.52 C43.7,13.94 43.36,14.28 42.93,14.28 Z M41.4,12.75 L42.17,12.75 L42.17,2.02 L41.4,2.02 L41.4,12.75 Z" id="Shape"></path>
            <path d="M40.63,14.28 L38.33,14.28 C37.91,14.28 37.56,13.94 37.56,13.51 L37.56,1.25 C37.56,0.83 37.9,0.48 38.33,0.48 L40.63,0.48 C41.05,0.48 41.4,0.82 41.4,1.25 L41.4,13.52 C41.4,13.94 41.06,14.28 40.63,14.28 Z M39.1,12.75 L39.87,12.75 L39.87,2.02 L39.1,2.02 L39.1,12.75 Z" id="Shape"></path>
            <path d="M3.07,8.15 L0.77,8.15 C0.34,8.15 0,7.81 0,7.38 C0,6.95 0.34,6.61 0.77,6.61 L3.07,6.61 C3.49,6.61 3.84,6.95 3.84,7.38 C3.84,7.81 3.49,8.15 3.07,8.15 Z" id="Shape"></path>
            <path d="M45.23,8.15 L42.93,8.15 C42.51,8.15 42.16,7.81 42.16,7.38 C42.16,6.95 42.5,6.61 42.93,6.61 L45.23,6.61 C45.65,6.61 46,6.95 46,7.38 C46,7.81 45.66,8.15 45.23,8.15 Z" id="Shape"></path>
        </g>
    </g>
</svg>