<?xml version="1.0" encoding="UTF-8"?>
<svg width="40px" height="48px" viewBox="0 0 40 48" version="1.1" xmlns="http://www.w3.org/2000/svg" xmlns:xlink="http://www.w3.org/1999/xlink">
    <!-- Generator: Sketch 51.3 (57544) - http://www.bohemiancoding.com/sketch -->
    <title>icon-onsite-opportunities</title>
    <desc>Created with Sketch.</desc>
    <defs></defs>
    <g id="Page-1" stroke="none" stroke-width="1" fill="none" fill-rule="evenodd">
        <g id="icon-onsite-opportunities" fill="#0F75BC" fill-rule="nonzero">
            <path d="M38.81,47.95 L1.19,47.95 C0.81,47.95 0.5,47.64 0.5,47.26 L0.5,35.72 C0.5,35.34 0.81,35.03 1.19,35.03 L9.18,35.03 L9.18,31.33 C9.18,30.95 9.49,30.64 9.87,30.64 L19.1,30.64 L19.1,26.25 C19.1,25.87 19.41,25.56 19.79,25.56 L28.08,25.56 L28.08,20.94 C28.08,20.56 28.39,20.25 28.77,20.25 L38.82,20.25 C39.2,20.25 39.51,20.56 39.51,20.94 L39.51,47.26 C39.5,47.65 39.19,47.95 38.81,47.95 Z M1.88,46.58 L38.13,46.58 L38.13,21.63 L29.46,21.63 L29.46,26.25 C29.46,26.63 29.15,26.94 28.77,26.94 L20.48,26.94 L20.48,31.33 C20.48,31.71 20.17,32.02 19.79,32.02 L10.56,32.02 L10.56,35.72 C10.56,36.1 10.25,36.41 9.87,36.41 L1.88,36.41 L1.88,46.58 Z" id="Shape"></path>
            <path d="M3.87,34.79 C2.59,34.79 1.56,33.75 1.56,32.47 C1.56,31.96 1.73,31.46 2.04,31.06 L6.44,25.01 L7.78,13.97 L6.7,14.44 L5.33,16.84 C4.79,17.81 3.56,18.16 2.59,17.62 C1.63,17.09 1.27,15.88 1.79,14.91 L3.66,11.31 C3.86,10.92 4.17,10.59 4.55,10.37 L8.63,7.96 C9.47,7.46 10.5,7.39 11.4,7.76 L15.27,9.34 C15.83,9.57 16.32,9.96 16.66,10.46 L18.01,12.42 L20.73,11.63 C21.82,11.32 22.96,11.96 23.26,13.05 C23.55,14.09 22.99,15.18 21.98,15.54 L18.29,16.83 C17.49,17.11 16.6,16.93 15.96,16.37 L15.32,15.81 L15.1,17.93 C17.16,19 18.35,21.22 18.12,23.52 L17.65,29.78 C17.55,31.07 16.43,32.03 15.14,31.93 C13.85,31.83 12.89,30.71 12.99,29.42 C12.99,29.4 12.99,29.38 12.99,29.36 L13.4,23.72 C13.45,23.26 13.11,22.85 12.65,22.8 C12.44,22.78 12.24,22.83 12.07,22.96 C11.89,23.09 11.76,23.3 11.73,23.52 L11.37,26.24 C11.3,26.74 11.09,27.2 10.77,27.58 L5.62,33.95 C5.2,34.49 4.55,34.79 3.87,34.79 Z M8.62,12.16 C9,12.16 9.31,12.47 9.31,12.85 C9.31,12.88 9.31,12.91 9.3,12.93 L7.79,25.35 C7.78,25.47 7.73,25.58 7.66,25.67 L3.15,31.88 C2.99,32.08 2.92,32.34 2.95,32.6 C2.98,32.85 3.11,33.08 3.32,33.23 C3.72,33.53 4.27,33.47 4.6,33.09 L9.75,26.72 L9.77,26.7 C9.93,26.52 10.03,26.3 10.06,26.07 L10.42,23.35 C10.58,22.14 11.7,21.29 12.91,21.45 C12.94,21.45 12.97,21.46 13,21.46 C14.13,21.66 14.92,22.69 14.82,23.84 L14.41,29.48 C14.36,30 14.74,30.47 15.26,30.53 C15.79,30.59 16.27,30.21 16.33,29.68 C16.33,29.67 16.33,29.67 16.33,29.66 L16.8,23.4 C16.99,21.54 15.96,19.77 14.25,19.02 L14.16,18.98 C13.87,18.87 13.69,18.58 13.72,18.27 L14.12,14.32 C14.16,13.94 14.5,13.67 14.87,13.7 C15.01,13.71 15.15,13.77 15.26,13.87 L16.9,15.32 C17.16,15.55 17.53,15.62 17.86,15.51 L21.55,14.22 C21.9,14.09 22.08,13.71 21.96,13.36 C21.84,13.02 21.48,12.84 21.14,12.94 L17.93,13.87 C17.65,13.95 17.34,13.84 17.17,13.6 L15.54,11.22 C15.35,10.94 15.08,10.72 14.76,10.59 L10.89,9.01 C10.38,8.8 9.81,8.85 9.34,9.12 L5.26,11.54 C5.1,11.63 4.98,11.77 4.89,11.93 L3.02,15.53 C2.87,15.86 3,16.25 3.31,16.4 C3.61,16.55 3.98,16.44 4.15,16.15 L5.63,13.55 C5.7,13.42 5.82,13.32 5.95,13.26 L8.34,12.21 C8.43,12.18 8.52,12.16 8.62,12.16 Z" id="Shape"></path>
            <path d="M14.8,8.59 C12.44,8.59 10.53,6.67 10.53,4.32 C10.53,2.06 12.29,0.2 14.54,0.06 C16.9,-0.08 18.92,1.71 19.06,4.07 C19.2,6.42 17.42,8.44 15.07,8.59 C14.98,8.59 14.89,8.59 14.8,8.59 Z M14.63,1.43 C13.03,1.53 11.82,2.9 11.92,4.5 C12.02,6.1 13.39,7.31 14.99,7.21 C16.59,7.11 17.8,5.74 17.7,4.14 C17.7,4.14 17.7,4.14 17.7,4.14 C17.61,2.56 16.26,1.34 14.67,1.43 C14.65,1.43 14.64,1.43 14.63,1.43 Z" id="Shape"></path>
        </g>
    </g>
</svg>