<?xml version="1.0" encoding="UTF-8"?>
<svg width="48px" height="47px" viewBox="0 0 48 47" version="1.1" xmlns="http://www.w3.org/2000/svg" xmlns:xlink="http://www.w3.org/1999/xlink">
    <!-- Generator: Sketch 51.3 (57544) - http://www.bohemiancoding.com/sketch -->
    <title>parental leave</title>
    <desc>Created with Sketch.</desc>
    <defs></defs>
    <g id="Page-1" stroke="none" stroke-width="1" fill="none" fill-rule="evenodd">
        <g id="parental-leave" transform="translate(0.000000, -1.000000)" fill="#0F75BC" fill-rule="nonzero">
            <path d="M38.63,47.1936 C38.51,47.1936 38.38,47.1648 38.27,47.0976 C34.84,45.1488 33.26,42.0096 32.87,41.136 C30.57,39.7632 29.13,37.872 28.35,36.5664 C27.81,37.1328 27.29,37.6512 26.78,38.1408 C24.82,40.0224 22.1,40.8864 20.17,41.28 C19.06,41.5104 18.1,41.6064 17.49,41.6448 C17.11,41.6736 16.83,41.6832 16.62,41.6832 L11.08,47.0016 C10.8,47.2704 10.36,47.2704 10.08,47.0016 C9.8,46.7328 9.8,46.3104 10.08,46.0416 L15.84,40.512 C16.01,40.3488 16.24,40.2816 16.46,40.32 C17.28,40.3776 22.75,40.0896 25.77,37.1808 C26.25,36.72 26.74,36.2304 27.25,35.6928 C25.88,35.808 23.74,35.6064 21.95,33.888 L18.27,30.3552 C17.79,31.152 17.25,31.8528 16.63,32.448 C16.35,32.7168 15.91,32.7168 15.63,32.448 C15.35,32.1792 15.35,31.7568 15.63,31.488 C16.24,30.9024 16.77,30.192 17.23,29.3568 L16.78,28.9248 C15.88,28.0608 15.49,27.1872 15.63,26.3424 C15.74,25.6608 16.19,25.056 16.97,24.5184 C16.17,23.616 16.3,22.416 17.34,21.4176 C17.74,21.0336 18.16,20.784 18.59,20.6592 C18.54,20.4576 18.52,20.2464 18.54,20.0352 C18.34,18.8736 18.02,17.7216 17.59,16.5984 C15.76,17.4048 13.82,17.088 13.72,17.0688 C13.34,17.0016 13.08,16.6464 13.15,16.2816 C13.22,15.9168 13.58,15.6672 13.97,15.7344 C14,15.7344 16.54,16.1376 18.1,14.64 L21.64,11.2416 C22.82,10.1088 22.66,8.8608 22.01,8.1792 C21.6,7.7472 20.9,7.488 20.17,8.064 C17.67,10.0608 15.57,10.9536 14.54,11.3184 C14.1,11.472 13.73,11.7408 13.47,12.0864 L10.69,15.7728 C10.46,16.08 10.02,16.1472 9.7,15.9264 C9.38,15.7056 9.31,15.2832 9.54,14.976 L12.32,11.2896 C12.75,10.7136 13.35,10.2816 14.06,10.0416 C15,9.7152 16.93,8.8896 19.27,7.0272 C20.46,6.0768 22.01,6.1824 23.05,7.2768 C23.51,7.7568 23.82,8.3904 23.9,9.0816 L26.44,6.6432 C26.72,6.3744 27.16,6.3744 27.44,6.6432 C27.72,6.912 27.72,7.3344 27.44,7.6032 L19.09,15.6192 C19,15.7056 18.9,15.792 18.8,15.8784 C19.12,16.656 19.38,17.4528 19.59,18.2496 C20.33,17.616 21.15,17.4048 21.88,17.6256 C22.02,17.232 22.28,16.8384 22.66,16.4736 C23.15,16.0032 23.69,15.7152 24.23,15.6384 C24.69,15.5712 25.39,15.6192 26.04,16.2432 L27.76,17.8944 C28.02,17.4624 28.38,17.0784 28.82,16.8 C29.39,16.4448 29.99,16.32 30.47,16.464 C30.65,16.5216 30.85,16.5984 31.04,16.6944 L39.6,8.4768 C41.24,6.9024 41.7,5.4624 40.83,4.6272 C40.45,4.2624 39.97,4.1376 39.39,4.2432 C38.63,4.3872 37.74,4.9248 36.82,5.808 L35.03,7.5264 L27.36,14.8896 C27.08,15.1584 26.64,15.1584 26.36,14.8896 C26.08,14.6208 26.08,14.1984 26.36,13.9296 L34.04,6.5568 C35.67,4.9824 36.13,3.552 35.26,2.7168 C34.88,2.352 34.4,2.2272 33.82,2.3328 C33.06,2.4768 32.17,3.0144 31.25,3.8976 L29.38,5.6928 C29.1,5.9616 28.66,5.9616 28.38,5.6928 C28.1,5.424 28.1,5.0016 28.38,4.7328 L30.25,2.9376 C31.38,1.8528 32.49,1.2 33.54,0.9984 C34.58,0.8064 35.54,1.0752 36.25,1.7568 C36.54,2.0352 37.11,2.7264 37.1,3.7824 C37.78,3.3216 38.45,3.024 39.1,2.9088 C40.14,2.7168 41.1,2.9856 41.81,3.6672 C42.28,4.1184 43.46,5.5968 41.84,7.968 C42.98,7.9392 43.72,8.496 44.02,8.784 C44.58,9.3216 46.14,11.328 42.79,14.544 L41.67,15.6192 C42.4,15.648 43.07,15.9264 43.6,16.4352 C44.31,17.1168 44.59,18.0384 44.39,19.0368 C44.19,20.0448 43.51,21.1104 42.37,22.1952 L38.8,25.6224 C38.52,25.8912 38.08,25.8912 37.8,25.6224 C37.52,25.3536 37.52,24.9312 37.8,24.6624 L41.37,21.2352 C42.29,20.352 42.85,19.4976 43,18.768 C43.11,18.2112 42.98,17.7504 42.6,17.3856 C42.22,17.0208 41.74,16.896 41.16,17.0016 C40.4,17.1456 39.51,17.6832 38.59,18.5664 C38.59,18.5664 38.59,18.5664 38.59,18.5664 L35.68,21.36 C36.53,22.9824 36.58,25.0176 35.84,27.9072 C37,28.464 39.67,29.9712 41.52,32.784 C42.43,33.1488 45.71,34.6368 47.78,37.9104 C47.98,38.2272 47.88,38.6496 47.54,38.8416 C47.21,39.0336 46.77,38.9376 46.57,38.6112 C44.47,35.28 40.84,33.984 40.8,33.9648 C40.65,33.9072 40.52,33.8112 40.44,33.6768 C38.32,30.3264 34.78,28.9248 34.75,28.9056 C34.42,28.7808 34.24,28.4352 34.33,28.0992 C35.46,24.0384 34.83,22.4256 34.07,21.3888 C32.56,19.3344 30.9,18 30.04,17.7312 C29.96,17.7216 29.72,17.7792 29.44,18 C29.28,18.1152 28.95,18.4128 28.8,18.8928 L30.17,20.208 C30.68,20.6976 32.25,21.696 32.82,22.032 C33.15,22.2336 33.25,22.6464 33.04,22.9632 C32.83,23.28 32.4,23.376 32.07,23.1744 C31.85,23.04 29.89,21.84 29.18,21.1584 L27.54,19.584 C27.54,19.584 27.53,19.5744 27.53,19.5744 L25.02,17.1648 C24.76,16.9152 24.56,16.9152 24.42,16.9344 C24.18,16.9728 23.9,17.1264 23.63,17.3856 C23.36,17.6448 23.19,17.9136 23.16,18.144 C23.14,18.2688 23.14,18.4704 23.4,18.72 L26.29,21.4944 C26.57,21.7632 26.57,22.1856 26.29,22.4544 C26.01,22.7232 25.57,22.7232 25.29,22.4544 L22.4,19.68 L21.78,19.0848 C21.2,18.528 20.59,19.1136 20.39,19.3056 C19.58,20.0832 20.01,20.496 20.16,20.64 L20.69,21.1488 C20.69,21.1488 20.7,21.1584 20.7,21.1584 C20.7,21.1584 20.7,21.1584 20.7,21.1584 L23.66,24 C23.94,24.2688 23.94,24.6912 23.66,24.96 C23.38,25.2288 22.94,25.2288 22.66,24.96 L19.69,22.1088 C19.12,21.5616 18.51,22.1472 18.31,22.3392 C17.5,23.1168 17.93,23.5296 18.08,23.6736 L18.56,24.1344 C18.57,24.144 18.58,24.1536 18.58,24.1536 L21.58,27.0336 C21.86,27.3024 21.86,27.7248 21.58,27.9936 C21.3,28.2624 20.86,28.2624 20.58,27.9936 L17.95,25.4688 C17.49,25.7472 17.07,26.1024 17,26.5152 C16.92,27.0048 17.36,27.552 17.75,27.9264 L22.92,32.8896 C25.06,34.944 27.76,34.2144 27.94,34.1568 C28.1,34.0992 28.27,34.0896 28.43,34.1472 C28.63,34.2144 28.79,34.3584 28.86,34.5504 C28.87,34.5888 30.27,38.0544 33.75,40.0416 C33.89,40.1184 33.99,40.2432 34.05,40.3872 C34.06,40.4256 35.46,43.8912 38.94,45.8784 C39.28,46.0704 39.39,46.4832 39.19,46.8096 C39.11,47.0784 38.87,47.1936 38.63,47.1936 Z M32.25,17.472 C33.2,18.2112 34.16,19.2288 34.94,20.2176 L41.83,13.6032 C43.47,12.0288 43.93,10.5888 43.06,9.7536 C42.19,8.9184 40.69,9.36 39.06,10.9344 C39.06,10.9344 39.06,10.9344 39.06,10.9344 L32.25,17.472 Z M0.79,37.7856 C0.61,37.7856 0.43,37.7184 0.29,37.584 C0.01,37.3152 0.01,36.8928 0.29,36.624 L5.76,31.3728 C4.34,25.8816 5.36,20.5344 7.1,18.24 L8.03,17.0016 C8.26,16.6944 8.7,16.6272 9.02,16.848 C9.34,17.0688 9.41,17.4912 9.18,17.7984 L8.25,19.0368 C6.9,20.832 5.69,25.8528 7.24,31.4112 C7.31,31.6416 7.24,31.8912 7.06,32.064 L1.3,37.5936 C1.15,37.7184 0.97,37.7856 0.79,37.7856 Z" id="Shape"></path>
        </g>
    </g>
</svg>