<?xml version="1.0" encoding="UTF-8"?>
<svg width="48px" height="47px" viewBox="0 0 48 47" version="1.1" xmlns="http://www.w3.org/2000/svg" xmlns:xlink="http://www.w3.org/1999/xlink">
    <!-- Generator: Sketch 51.3 (57544) - http://www.bohemiancoding.com/sketch -->
    <title>wfh</title>
    <desc>Created with Sketch.</desc>
    <defs></defs>
    <g id="Page-1" stroke="none" stroke-width="1" fill="none" fill-rule="evenodd">
        <g id="wfh" transform="translate(0.000000, -1.000000)" fill="#0F75BC" fill-rule="nonzero">
            <path d="M23.99,0.973077551 C23.83,0.973077551 23.68,1.03185306 23.55,1.12001633 L0.35,16.7934857 C-0.01,17.0383837 -0.1,17.5281796 0.15,17.8906286 L2.13,20.6628735 C2.38,21.0155265 2.88,21.1036898 3.24,20.8587918 L4.8,19.8008327 L4.8,26.0604245 C4.8,27.1085878 6.4,27.1085878 6.4,26.0604245 L6.4,18.7232816 L24,6.83103673 L41.6,18.7232816 L41.6,43.3012408 L6.4,43.3012408 L6.4,33.1134857 C6.41,32.6726694 6.04,32.3102204 5.59,32.3200163 C5.15,32.3298122 4.8,32.6824653 4.8,33.1134857 L4.8,43.3012408 L3.2,43.3012408 C2.76,43.3012408 2.39,43.6538939 2.4,44.0849143 L2.4,47.2098122 C2.4,47.6408327 2.76,47.9934857 3.2,47.9934857 L44.8,47.9934857 C45.24,47.9934857 45.6,47.6408327 45.6,47.2098122 L45.6,44.0849143 C45.6,43.6538939 45.24,43.2914449 44.8,43.3012408 L43.2,43.3012408 L43.2,19.8008327 L44.76,20.8587918 C45.12,21.1036898 45.62,21.0155265 45.87,20.6628735 L47.85,17.8906286 C48.1,17.5379755 48.01,17.0481796 47.65,16.7934857 L43.2,13.7861388 L43.2,4.11756735 C43.2,3.68654694 42.84,3.33389388 42.4,3.33389388 L34.4,3.33389388 C33.96,3.33389388 33.6,3.68654694 33.6,4.11756735 L33.6,7.30124082 L24.45,1.12001633 C24.3,1.02205714 24.14,0.973077551 23.99,0.973077551 Z M24,2.71675102 L46.08,17.6359347 L45.01,19.1249143 L24.45,5.23430204 C24.18,5.04817959 23.81,5.04817959 23.54,5.23430204 L2.98,19.1249143 L1.91,17.6359347 L24,2.71675102 Z M35.2,4.90124082 L41.6,4.90124082 L41.6,12.7085878 L35.2,8.38858776 L35.2,4.90124082 Z M8,37.8155265 L8,40.9502204 C8,41.3812408 8.36,41.7338939 8.8,41.7338939 L39.2,41.7338939 C39.64,41.7338939 40,41.3812408 40,40.9502204 L40,37.8155265 C40,37.3845061 39.65,37.041649 39.21,37.0318531 L39.05,37.0318531 C39.14,36.7869551 39.2,36.5224653 39.2,36.2481796 L39.2,29.9787918 C39.2,28.6857306 38.12,27.6277714 36.8,27.6277714 L25.6,27.6277714 C24.28,27.6277714 23.2,28.6857306 23.2,29.9787918 L23.2,31.0269551 C22.7,30.8506286 22.16,30.7624653 21.6,30.7624653 L20.8,30.7624653 L20.8,28.7738939 C21.78,27.9118531 22.4,26.6677714 22.4,25.276751 L22.4,24.4930776 C22.94,24.4930776 23.2,24.0424653 23.2,23.7192 L23.2,21.3583837 C23.2,18.7624653 21.04,16.6563429 18.4,16.6563429 L16.8,16.6563429 C14.15,16.6563429 12,18.7722612 12,21.3583837 L12,23.7094041 C12,24.1404245 12.36,24.4930776 12.8,24.4930776 L12.8,25.276751 C12.8,26.6677714 13.42,27.9118531 14.4,28.7738939 L14.4,30.7624653 L13.6,30.7624653 C10.95,30.7624653 8.8,32.8685878 8.8,35.4645061 L8.8,37.0318531 C8.36,37.0318531 8,37.3845061 8,37.8155265 Z M16.8,18.2236898 L18.4,18.2236898 C20.19,18.2236898 21.6,19.6049143 21.6,21.3583837 L21.6,22.6024653 L20.63,21.6522612 C20.23,21.2604245 19.85,21.3192 19.55,21.4955265 C19.26,21.6718531 17.16,22.9257306 15.19,22.9257306 L13.59,22.9257306 L13.59,21.3583837 C13.6,19.6049143 15.01,18.2236898 16.8,18.2236898 Z M19.88,23.1314449 L20.8,24.0326694 L20.8,25.276751 C20.8,27.0302204 19.39,28.4114449 17.6,28.4114449 C15.81,28.4114449 14.4,27.0302204 14.4,25.276751 L14.4,24.4930776 L15.2,24.4930776 C17.17,24.4930776 19,23.6212408 19.88,23.1314449 Z M5.59,28.401649 C5.15,28.4114449 4.8,28.764098 4.8,29.2049143 L4.8,29.9885878 C4.8,31.036751 6.4,31.036751 6.4,29.9885878 L6.4,29.2049143 C6.41,28.754302 6.04,28.3918531 5.59,28.401649 Z M25.6,37.0318531 C25.14,37.0318531 24.8,36.6987918 24.8,36.2481796 L24.8,29.9787918 C24.8,29.5281796 25.14,29.1951184 25.6,29.1951184 L36.8,29.1951184 C37.26,29.1951184 37.6,29.5281796 37.6,29.9787918 L37.6,36.2481796 C37.6,36.6987918 37.26,37.0318531 36.8,37.0318531 L25.6,37.0318531 Z M16,29.7045061 C16.5,29.8808327 17.04,29.9787918 17.6,29.9787918 C18.16,29.9787918 18.7,29.8808327 19.2,29.7045061 L19.2,31.3992 C19.2,31.3992 18.92,32.3298122 17.6,32.3298122 C16.28,32.3298122 16,31.3992 16,31.3992 L16,29.7045061 Z M13.6,32.3298122 L14.68,32.3298122 C14.68,32.3298122 15.38,33.8971592 17.61,33.8971592 C19.83,33.8971592 20.53,32.3396082 20.54,32.3298122 L21.62,32.3298122 C22.21,32.3298122 22.75,32.4865469 23.22,32.7510367 L23.22,36.2481796 C23.22,36.5224653 23.28,36.7869551 23.37,37.0318531 L10.4,37.0318531 L10.4,35.4645061 C10.4,33.7110367 11.81,32.3298122 13.6,32.3298122 Z M31.2,32.3298122 C30.76,32.3298122 30.4,32.6824653 30.4,33.1134857 C30.4,33.5445061 30.76,33.8971592 31.2,33.8971592 C31.64,33.8971592 32,33.5445061 32,33.1134857 C32,32.6824653 31.64,32.3298122 31.2,32.3298122 Z M9.6,38.5992 L38.4,38.5992 L38.4,40.1665469 L9.6,40.1665469 L9.6,38.5992 Z M4,44.8685878 L44,44.8685878 L44,46.4359347 L4,46.4359347 L4,44.8685878 Z" id="Shape"></path>
        </g>
    </g>
</svg>